<?xml version="1.0" encoding="UTF-8" standalone="no"?>
<!DOCTYPE svg PUBLIC "-//W3C//DTD SVG 1.1//EN"
 "http://www.w3.org/Graphics/SVG/1.1/DTD/svg11.dtd">
<!-- Generated by graphviz version 2.43.0 (0)
 -->
<!-- Title: %3 Pages: 1 -->
<svg width="64pt" height="528pt"
 viewBox="0.00 0.00 64.00 528.00" xmlns="http://www.w3.org/2000/svg" xmlns:xlink="http://www.w3.org/1999/xlink">
<g id="graph0" class="graph" transform="scale(1 1) rotate(0) translate(4 524)">
<title>%3</title>
<polygon fill="white" stroke="transparent" points="-4,4 -4,-524 60,-524 60,4 -4,4"/>
<!-- inp -->
<g id="node1" class="node">
<title>inp</title>
<g id="a_node1"><a xlink:title="#p=0&#10;&#10;inp idx_0">
<polygon fill="#ffffff" stroke="black" points="44,-520 30,-520 30,-506 44,-506 44,-520"/>
</a>
</g>
</g>
<!-- permute -->
<g id="node2" class="node">
<title>permute</title>
<g id="a_node2"><a xlink:title="#p=0&#10;&#10;permute idx_1&#10;MET permute&#10;(1, 32, 32, 128) torch.float32">
<polygon fill="#ffffff" stroke="black" points="35,-498 21,-498 21,-484 35,-484 35,-498"/>
</a>
</g>
</g>
<!-- inp&#45;&gt;permute -->
<g id="edge1" class="edge">
<title>inp&#45;&gt;permute</title>
<path fill="none" stroke="black" d="M34.15,-505.67C33.75,-504.78 33.33,-503.84 32.9,-502.89"/>
<polygon fill="black" stroke="black" points="34.45,-502.06 30.8,-498.22 31.25,-503.5 34.45,-502.06"/>
</g>
<!-- add -->
<g id="node15" class="node">
<title>add</title>
<g id="a_node15"><a xlink:title="#p=0&#10;&#10;add idx_14&#10;+">
<polygon fill="#ffffff" stroke="black" points="44,-234 30,-234 30,-220 44,-220 44,-234"/>
</a>
</g>
</g>
<!-- inp&#45;&gt;add -->
<g id="edge15" class="edge">
<title>inp&#45;&gt;add</title>
<path fill="none" stroke="black" d="M39.18,-505.83C41.84,-497.72 46,-482.98 46,-470 46,-470 46,-470 46,-270 46,-259.46 43.26,-247.75 40.8,-239.38"/>
<polygon fill="black" stroke="black" points="42.33,-238.43 39.18,-234.17 38.99,-239.47 42.33,-238.43"/>
</g>
<!-- norm1 -->
<g id="node3" class="node">
<title>norm1</title>
<g id="a_node3"><a xlink:title="#p=256&#10;&#10;norm1 idx_2&#10;LayerNorm&#10;&#45;&#45;&#45;&#45;&#45;&#45;&#45;&#45;&#45;&#45;&#10;(1, 32, 32, 128)">
<polygon fill="#ffe4e4" stroke="black" points="35,-476 21,-476 21,-462 35,-462 35,-476"/>
</a>
</g>
</g>
<!-- permute&#45;&gt;norm1 -->
<g id="edge2" class="edge">
<title>permute&#45;&gt;norm1</title>
<path fill="none" stroke="black" d="M28,-483.67C28,-482.93 28,-482.15 28,-481.37"/>
<polygon fill="black" stroke="black" points="29.75,-481.22 28,-476.22 26.25,-481.22 29.75,-481.22"/>
</g>
<!-- permute_1 -->
<g id="node4" class="node">
<title>permute_1</title>
<g id="a_node4"><a xlink:title="#p=0&#10;&#10;permute_1 idx_3&#10;MET permute&#10;(1, 128, 32, 32) torch.float32">
<polygon fill="#ffffff" stroke="black" points="35,-454 21,-454 21,-440 35,-440 35,-454"/>
</a>
</g>
</g>
<!-- norm1&#45;&gt;permute_1 -->
<g id="edge3" class="edge">
<title>norm1&#45;&gt;permute_1</title>
<path fill="none" stroke="black" d="M28,-461.67C28,-460.93 28,-460.15 28,-459.37"/>
<polygon fill="black" stroke="black" points="29.75,-459.22 28,-454.22 26.25,-459.22 29.75,-459.22"/>
</g>
<!-- conv1 -->
<g id="node5" class="node">
<title>conv1</title>
<g id="a_node5"><a xlink:title="#p=33024&#10;&#10;conv1 idx_4&#10;Conv2d&#10;&#45;&#45;&#45;&#45;&#45;&#45;&#45;&#45;&#45;&#45;&#10;kernel_size: (1, 1)&#10;in_channels: 128&#10;out_channels: 256&#10;+ bias&#10;&#45;&#45;&#45;&#45;&#45;&#45;&#45;&#45;&#45;&#45;&#10;(1, 256, 32, 32)">
<polygon fill="#ff0000" stroke="black" points="34,-432 20,-432 20,-418 34,-418 34,-432"/>
</a>
</g>
</g>
<!-- permute_1&#45;&gt;conv1 -->
<g id="edge4" class="edge">
<title>permute_1&#45;&gt;conv1</title>
<path fill="none" stroke="black" d="M27.68,-439.67C27.65,-438.93 27.61,-438.15 27.57,-437.37"/>
<polygon fill="black" stroke="black" points="29.31,-437.12 27.31,-432.22 25.81,-437.3 29.31,-437.12"/>
</g>
<!-- conv2 -->
<g id="node6" class="node">
<title>conv2</title>
<g id="a_node6"><a xlink:title="#p=2560&#10;&#10;conv2 idx_5&#10;dwise Conv2d&#10;&#45;&#45;&#45;&#45;&#45;&#45;&#45;&#45;&#45;&#45;&#10;kernel_size: (3, 3)&#10;channels: 256&#10;exp_rate: 1&#10;+ bias&#10;&#45;&#45;&#45;&#45;&#45;&#45;&#45;&#45;&#45;&#45;&#10;(1, 256, 32, 32)">
<polygon fill="#ffd4d4" stroke="black" points="33,-410 19,-410 19,-396 33,-396 33,-410"/>
</a>
</g>
</g>
<!-- conv1&#45;&gt;conv2 -->
<g id="edge5" class="edge">
<title>conv1&#45;&gt;conv2</title>
<path fill="none" stroke="black" d="M26.68,-417.67C26.65,-416.93 26.61,-416.15 26.57,-415.37"/>
<polygon fill="black" stroke="black" points="28.31,-415.12 26.31,-410.22 24.81,-415.3 28.31,-415.12"/>
</g>
<!-- sg -->
<g id="node7" class="node">
<title>sg</title>
<g id="a_node7"><a xlink:title="#p=0&#10;&#10;sg idx_6&#10;MOD sg&#10;SimpleGate&#10;(1, 128, 32, 32) torch.float32">
<polygon fill="#ffffff" stroke="black" points="32,-388 18,-388 18,-374 32,-374 32,-388"/>
</a>
</g>
</g>
<!-- conv2&#45;&gt;sg -->
<g id="edge6" class="edge">
<title>conv2&#45;&gt;sg</title>
<path fill="none" stroke="black" d="M25.68,-395.67C25.65,-394.93 25.61,-394.15 25.57,-393.37"/>
<polygon fill="black" stroke="black" points="27.31,-393.12 25.31,-388.22 23.81,-393.3 27.31,-393.12"/>
</g>
<!-- sca_0 -->
<g id="node8" class="node">
<title>sca_0</title>
<g id="a_node8"><a xlink:title="#p=0&#10;&#10;sca_0 idx_7&#10;AdaptiveAvgPool2d&#10;&#45;&#45;&#45;&#45;&#45;&#45;&#45;&#45;&#45;&#45;&#10;(1, 128, 1, 1)">
<polygon fill="#ffffff" stroke="black" points="14,-366 0,-366 0,-352 14,-352 14,-366"/>
</a>
</g>
</g>
<!-- sg&#45;&gt;sca_0 -->
<g id="edge7" class="edge">
<title>sg&#45;&gt;sca_0</title>
<path fill="none" stroke="black" d="M19.3,-373.67C18.23,-372.48 17.09,-371.21 15.95,-369.94"/>
<polygon fill="black" stroke="black" points="17.24,-368.76 12.6,-366.22 14.64,-371.11 17.24,-368.76"/>
</g>
<!-- mul -->
<g id="node10" class="node">
<title>mul</title>
<g id="a_node10"><a xlink:title="#p=0&#10;&#10;mul idx_9&#10;*">
<polygon fill="#ffffff" stroke="black" points="14,-322 0,-322 0,-308 14,-308 14,-322"/>
</a>
</g>
</g>
<!-- sg&#45;&gt;mul -->
<g id="edge9" class="edge">
<title>sg&#45;&gt;mul</title>
<path fill="none" stroke="black" d="M24.91,-373.91C24.59,-364.25 23.14,-344.96 17,-330 16.5,-328.79 15.89,-327.59 15.2,-326.42"/>
<polygon fill="black" stroke="black" points="16.59,-325.35 12.35,-322.18 13.69,-327.31 16.59,-325.35"/>
</g>
<!-- sca_1 -->
<g id="node9" class="node">
<title>sca_1</title>
<g id="a_node9"><a xlink:title="#p=16512&#10;&#10;sca_1 idx_8&#10;Conv2d&#10;&#45;&#45;&#45;&#45;&#45;&#45;&#45;&#45;&#45;&#45;&#10;kernel_size: (1, 1)&#10;in_channels: 128&#10;out_channels: 128&#10;+ bias&#10;&#45;&#45;&#45;&#45;&#45;&#45;&#45;&#45;&#45;&#45;&#10;(1, 128, 1, 1)">
<polygon fill="#ff7373" stroke="black" points="14,-344 0,-344 0,-330 14,-330 14,-344"/>
</a>
</g>
</g>
<!-- sca_0&#45;&gt;sca_1 -->
<g id="edge8" class="edge">
<title>sca_0&#45;&gt;sca_1</title>
<path fill="none" stroke="black" d="M7,-351.67C7,-350.93 7,-350.15 7,-349.37"/>
<polygon fill="black" stroke="black" points="8.75,-349.22 7,-344.22 5.25,-349.22 8.75,-349.22"/>
</g>
<!-- sca_1&#45;&gt;mul -->
<g id="edge10" class="edge">
<title>sca_1&#45;&gt;mul</title>
<path fill="none" stroke="black" d="M7,-329.67C7,-328.93 7,-328.15 7,-327.37"/>
<polygon fill="black" stroke="black" points="8.75,-327.22 7,-322.22 5.25,-327.22 8.75,-327.22"/>
</g>
<!-- conv3 -->
<g id="node11" class="node">
<title>conv3</title>
<g id="a_node11"><a xlink:title="#p=16512&#10;&#10;conv3 idx_10&#10;Conv2d&#10;&#45;&#45;&#45;&#45;&#45;&#45;&#45;&#45;&#45;&#45;&#10;kernel_size: (1, 1)&#10;in_channels: 128&#10;out_channels: 128&#10;+ bias&#10;&#45;&#45;&#45;&#45;&#45;&#45;&#45;&#45;&#45;&#45;&#10;(1, 128, 32, 32)">
<polygon fill="#ff7373" stroke="black" points="14,-300 0,-300 0,-286 14,-286 14,-300"/>
</a>
</g>
</g>
<!-- mul&#45;&gt;conv3 -->
<g id="edge11" class="edge">
<title>mul&#45;&gt;conv3</title>
<path fill="none" stroke="black" d="M7,-307.67C7,-306.93 7,-306.15 7,-305.37"/>
<polygon fill="black" stroke="black" points="8.75,-305.22 7,-300.22 5.25,-305.22 8.75,-305.22"/>
</g>
<!-- dropout1 -->
<g id="node12" class="node">
<title>dropout1</title>
<g id="a_node12"><a xlink:title="#p=0&#10;&#10;dropout1 idx_11&#10;MOD dropout1&#10;Identity&#10;(1, 128, 32, 32) torch.float32">
<polygon fill="#ffffff" stroke="black" points="14,-278 0,-278 0,-264 14,-264 14,-278"/>
</a>
</g>
</g>
<!-- conv3&#45;&gt;dropout1 -->
<g id="edge12" class="edge">
<title>conv3&#45;&gt;dropout1</title>
<path fill="none" stroke="black" d="M7,-285.67C7,-284.93 7,-284.15 7,-283.37"/>
<polygon fill="black" stroke="black" points="8.75,-283.22 7,-278.22 5.25,-283.22 8.75,-283.22"/>
</g>
<!-- mul_1 -->
<g id="node14" class="node">
<title>mul_1</title>
<g id="a_node14"><a xlink:title="#p=0&#10;&#10;mul_1 idx_13&#10;*">
<polygon fill="#ffffff" stroke="black" points="35,-256 21,-256 21,-242 35,-242 35,-256"/>
</a>
</g>
</g>
<!-- dropout1&#45;&gt;mul_1 -->
<g id="edge13" class="edge">
<title>dropout1&#45;&gt;mul_1</title>
<path fill="none" stroke="black" d="M13.64,-263.67C14.89,-262.48 16.23,-261.21 17.56,-259.94"/>
<polygon fill="black" stroke="black" points="19.06,-260.93 21.47,-256.22 16.64,-258.4 19.06,-260.93"/>
</g>
<!-- beta -->
<g id="node13" class="node">
<title>beta</title>
<g id="a_node13"><a xlink:title="#p=0&#10;&#10;beta idx_12&#10;ATT &#10;(1, 128, 1, 1) torch.float32">
<polygon fill="#ffffff" stroke="black" points="35,-278 21,-278 21,-264 35,-264 35,-278"/>
</a>
</g>
</g>
<!-- beta&#45;&gt;mul_1 -->
<g id="edge14" class="edge">
<title>beta&#45;&gt;mul_1</title>
<path fill="none" stroke="black" d="M28,-263.67C28,-262.93 28,-262.15 28,-261.37"/>
<polygon fill="black" stroke="black" points="29.75,-261.22 28,-256.22 26.25,-261.22 29.75,-261.22"/>
</g>
<!-- mul_1&#45;&gt;add -->
<g id="edge16" class="edge">
<title>mul_1&#45;&gt;add</title>
<path fill="none" stroke="black" d="M30.85,-241.67C31.25,-240.78 31.67,-239.84 32.1,-238.89"/>
<polygon fill="black" stroke="black" points="33.75,-239.5 34.2,-234.22 30.55,-238.06 33.75,-239.5"/>
</g>
<!-- permute_2 -->
<g id="node16" class="node">
<title>permute_2</title>
<g id="a_node16"><a xlink:title="#p=0&#10;&#10;permute_2 idx_15&#10;MET permute&#10;(1, 32, 32, 128) torch.float32">
<polygon fill="#ffffff" stroke="black" points="35,-212 21,-212 21,-198 35,-198 35,-212"/>
</a>
</g>
</g>
<!-- add&#45;&gt;permute_2 -->
<g id="edge17" class="edge">
<title>add&#45;&gt;permute_2</title>
<path fill="none" stroke="black" d="M34.15,-219.67C33.75,-218.78 33.33,-217.84 32.9,-216.89"/>
<polygon fill="black" stroke="black" points="34.45,-216.06 30.8,-212.22 31.25,-217.5 34.45,-216.06"/>
</g>
<!-- add_1 -->
<g id="node25" class="node">
<title>add_1</title>
<g id="a_node25"><a xlink:title="#p=0&#10;&#10;add_1 idx_24&#10;+">
<polygon fill="#ffffff" stroke="black" points="54,-36 40,-36 40,-22 54,-22 54,-36"/>
</a>
</g>
</g>
<!-- add&#45;&gt;add_1 -->
<g id="edge26" class="edge">
<title>add&#45;&gt;add_1</title>
<path fill="none" stroke="black" d="M41.79,-219.85C47.42,-211.99 56,-197.77 56,-184 56,-184 56,-184 56,-72 56,-61.46 53.26,-49.75 50.8,-41.38"/>
<polygon fill="black" stroke="black" points="52.33,-40.43 49.18,-36.17 48.99,-41.47 52.33,-40.43"/>
</g>
<!-- norm2 -->
<g id="node17" class="node">
<title>norm2</title>
<g id="a_node17"><a xlink:title="#p=256&#10;&#10;norm2 idx_16&#10;LayerNorm&#10;&#45;&#45;&#45;&#45;&#45;&#45;&#45;&#45;&#45;&#45;&#10;(1, 32, 32, 128)">
<polygon fill="#ffe4e4" stroke="black" points="35,-190 21,-190 21,-176 35,-176 35,-190"/>
</a>
</g>
</g>
<!-- permute_2&#45;&gt;norm2 -->
<g id="edge18" class="edge">
<title>permute_2&#45;&gt;norm2</title>
<path fill="none" stroke="black" d="M28,-197.67C28,-196.93 28,-196.15 28,-195.37"/>
<polygon fill="black" stroke="black" points="29.75,-195.22 28,-190.22 26.25,-195.22 29.75,-195.22"/>
</g>
<!-- permute_3 -->
<g id="node18" class="node">
<title>permute_3</title>
<g id="a_node18"><a xlink:title="#p=0&#10;&#10;permute_3 idx_17&#10;MET permute&#10;(1, 128, 32, 32) torch.float32">
<polygon fill="#ffffff" stroke="black" points="35,-168 21,-168 21,-154 35,-154 35,-168"/>
</a>
</g>
</g>
<!-- norm2&#45;&gt;permute_3 -->
<g id="edge19" class="edge">
<title>norm2&#45;&gt;permute_3</title>
<path fill="none" stroke="black" d="M28,-175.67C28,-174.93 28,-174.15 28,-173.37"/>
<polygon fill="black" stroke="black" points="29.75,-173.22 28,-168.22 26.25,-173.22 29.75,-173.22"/>
</g>
<!-- conv4 -->
<g id="node19" class="node">
<title>conv4</title>
<g id="a_node19"><a xlink:title="#p=33024&#10;&#10;conv4 idx_18&#10;Conv2d&#10;&#45;&#45;&#45;&#45;&#45;&#45;&#45;&#45;&#45;&#45;&#10;kernel_size: (1, 1)&#10;in_channels: 128&#10;out_channels: 256&#10;+ bias&#10;&#45;&#45;&#45;&#45;&#45;&#45;&#45;&#45;&#45;&#45;&#10;(1, 256, 32, 32)">
<polygon fill="#ff0000" stroke="black" points="35,-146 21,-146 21,-132 35,-132 35,-146"/>
</a>
</g>
</g>
<!-- permute_3&#45;&gt;conv4 -->
<g id="edge20" class="edge">
<title>permute_3&#45;&gt;conv4</title>
<path fill="none" stroke="black" d="M28,-153.67C28,-152.93 28,-152.15 28,-151.37"/>
<polygon fill="black" stroke="black" points="29.75,-151.22 28,-146.22 26.25,-151.22 29.75,-151.22"/>
</g>
<!-- sg_1 -->
<g id="node20" class="node">
<title>sg_1</title>
<g id="a_node20"><a xlink:title="#p=0&#10;&#10;sg_1 idx_19&#10;MOD sg&#10;SimpleGate&#10;(1, 128, 32, 32) torch.float32">
<polygon fill="#ffffff" stroke="black" points="35,-124 21,-124 21,-110 35,-110 35,-124"/>
</a>
</g>
</g>
<!-- conv4&#45;&gt;sg_1 -->
<g id="edge21" class="edge">
<title>conv4&#45;&gt;sg_1</title>
<path fill="none" stroke="black" d="M28,-131.67C28,-130.93 28,-130.15 28,-129.37"/>
<polygon fill="black" stroke="black" points="29.75,-129.22 28,-124.22 26.25,-129.22 29.75,-129.22"/>
</g>
<!-- conv5 -->
<g id="node21" class="node">
<title>conv5</title>
<g id="a_node21"><a xlink:title="#p=16512&#10;&#10;conv5 idx_20&#10;Conv2d&#10;&#45;&#45;&#45;&#45;&#45;&#45;&#45;&#45;&#45;&#45;&#10;kernel_size: (1, 1)&#10;in_channels: 128&#10;out_channels: 128&#10;+ bias&#10;&#45;&#45;&#45;&#45;&#45;&#45;&#45;&#45;&#45;&#45;&#10;(1, 128, 32, 32)">
<polygon fill="#ff7373" stroke="black" points="35,-102 21,-102 21,-88 35,-88 35,-102"/>
</a>
</g>
</g>
<!-- sg_1&#45;&gt;conv5 -->
<g id="edge22" class="edge">
<title>sg_1&#45;&gt;conv5</title>
<path fill="none" stroke="black" d="M28,-109.67C28,-108.93 28,-108.15 28,-107.37"/>
<polygon fill="black" stroke="black" points="29.75,-107.22 28,-102.22 26.25,-107.22 29.75,-107.22"/>
</g>
<!-- dropout2 -->
<g id="node22" class="node">
<title>dropout2</title>
<g id="a_node22"><a xlink:title="#p=0&#10;&#10;dropout2 idx_21&#10;MOD dropout2&#10;Identity&#10;(1, 128, 32, 32) torch.float32">
<polygon fill="#ffffff" stroke="black" points="24,-80 10,-80 10,-66 24,-66 24,-80"/>
</a>
</g>
</g>
<!-- conv5&#45;&gt;dropout2 -->
<g id="edge23" class="edge">
<title>conv5&#45;&gt;dropout2</title>
<path fill="none" stroke="black" d="M24.52,-87.67C24.03,-86.78 23.51,-85.84 22.99,-84.89"/>
<polygon fill="black" stroke="black" points="24.36,-83.76 20.42,-80.22 21.3,-85.44 24.36,-83.76"/>
</g>
<!-- mul_2 -->
<g id="node24" class="node">
<title>mul_2</title>
<g id="a_node24"><a xlink:title="#p=0&#10;&#10;mul_2 idx_23&#10;*">
<polygon fill="#ffffff" stroke="black" points="45,-58 31,-58 31,-44 45,-44 45,-58"/>
</a>
</g>
</g>
<!-- dropout2&#45;&gt;mul_2 -->
<g id="edge24" class="edge">
<title>dropout2&#45;&gt;mul_2</title>
<path fill="none" stroke="black" d="M23.64,-65.67C24.89,-64.48 26.23,-63.21 27.56,-61.94"/>
<polygon fill="black" stroke="black" points="29.06,-62.93 31.47,-58.22 26.64,-60.4 29.06,-62.93"/>
</g>
<!-- gamma -->
<g id="node23" class="node">
<title>gamma</title>
<g id="a_node23"><a xlink:title="#p=0&#10;&#10;gamma idx_22&#10;ATT &#10;(1, 128, 1, 1) torch.float32">
<polygon fill="#ffffff" stroke="black" points="45,-80 31,-80 31,-66 45,-66 45,-80"/>
</a>
</g>
</g>
<!-- gamma&#45;&gt;mul_2 -->
<g id="edge25" class="edge">
<title>gamma&#45;&gt;mul_2</title>
<path fill="none" stroke="black" d="M38,-65.67C38,-64.93 38,-64.15 38,-63.37"/>
<polygon fill="black" stroke="black" points="39.75,-63.22 38,-58.22 36.25,-63.22 39.75,-63.22"/>
</g>
<!-- mul_2&#45;&gt;add_1 -->
<g id="edge27" class="edge">
<title>mul_2&#45;&gt;add_1</title>
<path fill="none" stroke="black" d="M40.85,-43.67C41.25,-42.78 41.67,-41.84 42.1,-40.89"/>
<polygon fill="black" stroke="black" points="43.75,-41.5 44.2,-36.22 40.55,-40.06 43.75,-41.5"/>
</g>
<!-- output -->
<g id="node26" class="node">
<title>output</title>
<g id="a_node26"><a xlink:title="#p=0&#10;&#10;output">
<polygon fill="#ffffff" stroke="black" points="54,-14 40,-14 40,0 54,0 54,-14"/>
</a>
</g>
</g>
<!-- add_1&#45;&gt;output -->
<g id="edge28" class="edge">
<title>add_1&#45;&gt;output</title>
<path fill="none" stroke="black" d="M47,-21.67C47,-20.93 47,-20.15 47,-19.37"/>
<polygon fill="black" stroke="black" points="48.75,-19.22 47,-14.22 45.25,-19.22 48.75,-19.22"/>
</g>
</g>
</svg>
