<?xml version="1.0" encoding="UTF-8" standalone="no"?>
<!DOCTYPE svg PUBLIC "-//W3C//DTD SVG 1.1//EN"
 "http://www.w3.org/Graphics/SVG/1.1/DTD/svg11.dtd">
<!-- Generated by graphviz version 2.43.0 (0)
 -->
<!-- Title: %3 Pages: 1 -->
<svg width="97pt" height="660pt"
 viewBox="0.00 0.00 97.00 660.00" xmlns="http://www.w3.org/2000/svg" xmlns:xlink="http://www.w3.org/1999/xlink">
<g id="graph0" class="graph" transform="scale(1 1) rotate(0) translate(4 656)">
<title>%3</title>
<polygon fill="white" stroke="transparent" points="-4,4 -4,-656 93,-656 93,4 -4,4"/>
<!-- inp -->
<g id="node1" class="node">
<title>inp</title>
<g id="a_node1"><a xlink:title="#p=0&#10;&#10;inp idx_0">
<polygon fill="#ffffff" stroke="black" points="87,-652 73,-652 73,-638 87,-638 87,-652"/>
</a>
</g>
</g>
<!-- intro -->
<g id="node2" class="node">
<title>intro</title>
<g id="a_node2"><a xlink:title="#p=448&#10;&#10;intro idx_1&#10;Conv2d&#10;&#45;&#45;&#45;&#45;&#45;&#45;&#45;&#45;&#45;&#45;&#10;kernel_size: (3, 3)&#10;in_channels: 3&#10;out_channels: 16&#10;+ bias&#10;&#45;&#45;&#45;&#45;&#45;&#45;&#45;&#45;&#45;&#45;&#10;(1, 16, 256, 256)">
<polygon fill="#ffe5e5" stroke="black" points="78,-630 64,-630 64,-616 78,-616 78,-630"/>
</a>
</g>
</g>
<!-- inp&#45;&gt;intro -->
<g id="edge1" class="edge">
<title>inp&#45;&gt;intro</title>
<path fill="none" stroke="black" d="M77.15,-637.67C76.75,-636.78 76.33,-635.84 75.9,-634.89"/>
<polygon fill="black" stroke="black" points="77.45,-634.06 73.8,-630.22 74.25,-635.5 77.45,-634.06"/>
</g>
<!-- add_4 -->
<g id="node29" class="node">
<title>add_4</title>
<g id="a_node29"><a xlink:title="#p=0&#10;&#10;add_4 idx_28&#10;+">
<polygon fill="#ffffff" stroke="black" points="87,-36 73,-36 73,-22 87,-22 87,-36"/>
</a>
</g>
</g>
<!-- inp&#45;&gt;add_4 -->
<g id="edge33" class="edge">
<title>inp&#45;&gt;add_4</title>
<path fill="none" stroke="black" d="M82.18,-637.83C84.84,-629.72 89,-614.98 89,-602 89,-602 89,-602 89,-72 89,-61.46 86.26,-49.75 83.8,-41.38"/>
<polygon fill="black" stroke="black" points="85.33,-40.43 82.18,-36.17 81.99,-41.47 85.33,-40.43"/>
</g>
<!-- encoders_0_0 -->
<g id="node3" class="node">
<title>encoders_0_0</title>
<g id="a_node3"><a xlink:title="#p=2320&#10;&#10;encoders_0_0 idx_2&#10;MOD encoders.0.0&#10;NAFBlock&#10;(1, 16, 256, 256) torch.float32">
<polygon fill="#ffe2e2" stroke="black" points="78,-608 64,-608 64,-594 78,-594 78,-608"/>
</a>
</g>
</g>
<!-- intro&#45;&gt;encoders_0_0 -->
<g id="edge2" class="edge">
<title>intro&#45;&gt;encoders_0_0</title>
<path fill="none" stroke="black" d="M71,-615.67C71,-614.93 71,-614.15 71,-613.37"/>
<polygon fill="black" stroke="black" points="72.75,-613.22 71,-608.22 69.25,-613.22 72.75,-613.22"/>
</g>
<!-- downs_0 -->
<g id="node4" class="node">
<title>downs_0</title>
<g id="a_node4"><a xlink:title="#p=2080&#10;&#10;downs_0 idx_3&#10;Conv2d&#10;&#45;&#45;&#45;&#45;&#45;&#45;&#45;&#45;&#45;&#45;&#10;kernel_size: (2, 2)&#10;in_channels: 16&#10;out_channels: 32&#10;stride: (2, 2)&#10;+ bias&#10;&#45;&#45;&#45;&#45;&#45;&#45;&#45;&#45;&#45;&#45;&#10;(1, 32, 128, 128)">
<polygon fill="#ffe2e2" stroke="black" points="62,-586 48,-586 48,-572 62,-572 62,-586"/>
</a>
</g>
</g>
<!-- encoders_0_0&#45;&gt;downs_0 -->
<g id="edge3" class="edge">
<title>encoders_0_0&#45;&gt;downs_0</title>
<path fill="none" stroke="black" d="M65.94,-593.67C65.1,-592.63 64.22,-591.53 63.33,-590.42"/>
<polygon fill="black" stroke="black" points="64.46,-589.03 59.97,-586.22 61.73,-591.22 64.46,-589.03"/>
</g>
<!-- add_3 -->
<g id="node26" class="node">
<title>add_3</title>
<g id="a_node26"><a xlink:title="#p=0&#10;&#10;add_3 idx_25&#10;+">
<polygon fill="#ffffff" stroke="black" points="78,-102 64,-102 64,-88 78,-88 78,-102"/>
</a>
</g>
</g>
<!-- encoders_0_0&#45;&gt;add_3 -->
<g id="edge29" class="edge">
<title>encoders_0_0&#45;&gt;add_3</title>
<path fill="none" stroke="black" d="M71.48,-593.74C72.08,-585.54 73,-570.7 73,-558 73,-558 73,-558 73,-138 73,-127.68 72.39,-115.95 71.84,-107.51"/>
<polygon fill="black" stroke="black" points="73.57,-107.13 71.48,-102.26 70.08,-107.37 73.57,-107.13"/>
</g>
<!-- encoders_1_0 -->
<g id="node5" class="node">
<title>encoders_1_0</title>
<g id="a_node5"><a xlink:title="#p=8224&#10;&#10;encoders_1_0 idx_4&#10;MOD encoders.1.0&#10;NAFBlock&#10;(1, 32, 128, 128) torch.float32">
<polygon fill="#ffd8d8" stroke="black" points="62,-564 48,-564 48,-550 62,-550 62,-564"/>
</a>
</g>
</g>
<!-- downs_0&#45;&gt;encoders_1_0 -->
<g id="edge4" class="edge">
<title>downs_0&#45;&gt;encoders_1_0</title>
<path fill="none" stroke="black" d="M55,-571.67C55,-570.93 55,-570.15 55,-569.37"/>
<polygon fill="black" stroke="black" points="56.75,-569.22 55,-564.22 53.25,-569.22 56.75,-569.22"/>
</g>
<!-- downs_1 -->
<g id="node6" class="node">
<title>downs_1</title>
<g id="a_node6"><a xlink:title="#p=8256&#10;&#10;downs_1 idx_5&#10;Conv2d&#10;&#45;&#45;&#45;&#45;&#45;&#45;&#45;&#45;&#45;&#45;&#10;kernel_size: (2, 2)&#10;in_channels: 32&#10;out_channels: 64&#10;stride: (2, 2)&#10;+ bias&#10;&#45;&#45;&#45;&#45;&#45;&#45;&#45;&#45;&#45;&#45;&#10;(1, 64, 64, 64)">
<polygon fill="#ffd8d8" stroke="black" points="46,-542 32,-542 32,-528 46,-528 46,-542"/>
</a>
</g>
</g>
<!-- encoders_1_0&#45;&gt;downs_1 -->
<g id="edge5" class="edge">
<title>encoders_1_0&#45;&gt;downs_1</title>
<path fill="none" stroke="black" d="M49.94,-549.67C49.1,-548.63 48.22,-547.53 47.33,-546.42"/>
<polygon fill="black" stroke="black" points="48.46,-545.03 43.97,-542.22 45.73,-547.22 48.46,-545.03"/>
</g>
<!-- add_2 -->
<g id="node22" class="node">
<title>add_2</title>
<g id="a_node22"><a xlink:title="#p=0&#10;&#10;add_2 idx_21&#10;+">
<polygon fill="#ffffff" stroke="black" points="62,-190 48,-190 48,-176 62,-176 62,-190"/>
</a>
</g>
</g>
<!-- encoders_1_0&#45;&gt;add_2 -->
<g id="edge24" class="edge">
<title>encoders_1_0&#45;&gt;add_2</title>
<path fill="none" stroke="black" d="M55.48,-549.74C56.08,-541.54 57,-526.7 57,-514 57,-514 57,-514 57,-226 57,-215.68 56.39,-203.95 55.84,-195.51"/>
<polygon fill="black" stroke="black" points="57.57,-195.13 55.48,-190.26 54.08,-195.37 57.57,-195.13"/>
</g>
<!-- encoders_2_0 -->
<g id="node7" class="node">
<title>encoders_2_0</title>
<g id="a_node7"><a xlink:title="#p=30784&#10;&#10;encoders_2_0 idx_6&#10;MOD encoders.2.0&#10;NAFBlock&#10;(1, 64, 64, 64) torch.float32">
<polygon fill="#ffb0b0" stroke="black" points="46,-520 32,-520 32,-506 46,-506 46,-520"/>
</a>
</g>
</g>
<!-- downs_1&#45;&gt;encoders_2_0 -->
<g id="edge6" class="edge">
<title>downs_1&#45;&gt;encoders_2_0</title>
<path fill="none" stroke="black" d="M39,-527.67C39,-526.93 39,-526.15 39,-525.37"/>
<polygon fill="black" stroke="black" points="40.75,-525.22 39,-520.22 37.25,-525.22 40.75,-525.22"/>
</g>
<!-- downs_2 -->
<g id="node8" class="node">
<title>downs_2</title>
<g id="a_node8"><a xlink:title="#p=32896&#10;&#10;downs_2 idx_7&#10;Conv2d&#10;&#45;&#45;&#45;&#45;&#45;&#45;&#45;&#45;&#45;&#45;&#10;kernel_size: (2, 2)&#10;in_channels: 64&#10;out_channels: 128&#10;stride: (2, 2)&#10;+ bias&#10;&#45;&#45;&#45;&#45;&#45;&#45;&#45;&#45;&#45;&#45;&#10;(1, 128, 32, 32)">
<polygon fill="#ffacac" stroke="black" points="30,-498 16,-498 16,-484 30,-484 30,-498"/>
</a>
</g>
</g>
<!-- encoders_2_0&#45;&gt;downs_2 -->
<g id="edge7" class="edge">
<title>encoders_2_0&#45;&gt;downs_2</title>
<path fill="none" stroke="black" d="M33.94,-505.67C33.1,-504.63 32.22,-503.53 31.33,-502.42"/>
<polygon fill="black" stroke="black" points="32.46,-501.03 27.97,-498.22 29.73,-503.22 32.46,-501.03"/>
</g>
<!-- add_1 -->
<g id="node18" class="node">
<title>add_1</title>
<g id="a_node18"><a xlink:title="#p=0&#10;&#10;add_1 idx_17&#10;+">
<polygon fill="#ffffff" stroke="black" points="46,-278 32,-278 32,-264 46,-264 46,-278"/>
</a>
</g>
</g>
<!-- encoders_2_0&#45;&gt;add_1 -->
<g id="edge19" class="edge">
<title>encoders_2_0&#45;&gt;add_1</title>
<path fill="none" stroke="black" d="M39.48,-505.74C40.08,-497.54 41,-482.7 41,-470 41,-470 41,-470 41,-314 41,-303.68 40.39,-291.95 39.84,-283.51"/>
<polygon fill="black" stroke="black" points="41.57,-283.13 39.48,-278.26 38.08,-283.37 41.57,-283.13"/>
</g>
<!-- encoders_3_0 -->
<g id="node9" class="node">
<title>encoders_3_0</title>
<g id="a_node9"><a xlink:title="#p=118912&#10;&#10;encoders_3_0 idx_8&#10;MOD encoders.3.0&#10;NAFBlock&#10;(1, 128, 32, 32) torch.float32">
<polygon fill="#ff1616" stroke="black" points="30,-476 16,-476 16,-462 30,-462 30,-476"/>
</a>
</g>
</g>
<!-- downs_2&#45;&gt;encoders_3_0 -->
<g id="edge8" class="edge">
<title>downs_2&#45;&gt;encoders_3_0</title>
<path fill="none" stroke="black" d="M23,-483.67C23,-482.93 23,-482.15 23,-481.37"/>
<polygon fill="black" stroke="black" points="24.75,-481.22 23,-476.22 21.25,-481.22 24.75,-481.22"/>
</g>
<!-- downs_3 -->
<g id="node10" class="node">
<title>downs_3</title>
<g id="a_node10"><a xlink:title="#p=131328&#10;&#10;downs_3 idx_9&#10;Conv2d&#10;&#45;&#45;&#45;&#45;&#45;&#45;&#45;&#45;&#45;&#45;&#10;kernel_size: (2, 2)&#10;in_channels: 128&#10;out_channels: 256&#10;stride: (2, 2)&#10;+ bias&#10;&#45;&#45;&#45;&#45;&#45;&#45;&#45;&#45;&#45;&#45;&#10;(1, 256, 16, 16)">
<polygon fill="#ff0000" stroke="black" points="14,-454 0,-454 0,-440 14,-440 14,-454"/>
</a>
</g>
</g>
<!-- encoders_3_0&#45;&gt;downs_3 -->
<g id="edge9" class="edge">
<title>encoders_3_0&#45;&gt;downs_3</title>
<path fill="none" stroke="black" d="M17.94,-461.67C17.1,-460.63 16.22,-459.53 15.33,-458.42"/>
<polygon fill="black" stroke="black" points="16.46,-457.03 11.97,-454.22 13.73,-459.22 16.46,-457.03"/>
</g>
<!-- add -->
<g id="node14" class="node">
<title>add</title>
<g id="a_node14"><a xlink:title="#p=0&#10;&#10;add idx_13&#10;+">
<polygon fill="#ffffff" stroke="black" points="30,-366 16,-366 16,-352 30,-352 30,-366"/>
</a>
</g>
</g>
<!-- encoders_3_0&#45;&gt;add -->
<g id="edge14" class="edge">
<title>encoders_3_0&#45;&gt;add</title>
<path fill="none" stroke="black" d="M23.48,-461.74C24.08,-453.54 25,-438.7 25,-426 25,-426 25,-426 25,-402 25,-391.68 24.39,-379.95 23.84,-371.51"/>
<polygon fill="black" stroke="black" points="25.57,-371.13 23.48,-366.26 22.08,-371.37 25.57,-371.13"/>
</g>
<!-- middle_blks_0 -->
<g id="node11" class="node">
<title>middle_blks_0</title>
<g id="a_node11"><a xlink:title="#p=467200&#10;&#10;middle_blks_0 idx_10&#10;MOD middle_blks.0&#10;NAFBlock&#10;(1, 256, 16, 16) torch.float32">
<polygon fill="#ff0000" stroke="black" points="14,-432 0,-432 0,-418 14,-418 14,-432"/>
</a>
</g>
</g>
<!-- downs_3&#45;&gt;middle_blks_0 -->
<g id="edge10" class="edge">
<title>downs_3&#45;&gt;middle_blks_0</title>
<path fill="none" stroke="black" d="M7,-439.67C7,-438.93 7,-438.15 7,-437.37"/>
<polygon fill="black" stroke="black" points="8.75,-437.22 7,-432.22 5.25,-437.22 8.75,-437.22"/>
</g>
<!-- ups_0_0 -->
<g id="node12" class="node">
<title>ups_0_0</title>
<g id="a_node12"><a xlink:title="#p=131072&#10;&#10;ups_0_0 idx_11&#10;Conv2d&#10;&#45;&#45;&#45;&#45;&#45;&#45;&#45;&#45;&#45;&#45;&#10;kernel_size: (1, 1)&#10;in_channels: 256&#10;out_channels: 512&#10;no bias&#10;&#45;&#45;&#45;&#45;&#45;&#45;&#45;&#45;&#45;&#45;&#10;(1, 512, 16, 16)">
<polygon fill="#ff0101" stroke="black" points="14,-410 0,-410 0,-396 14,-396 14,-410"/>
</a>
</g>
</g>
<!-- middle_blks_0&#45;&gt;ups_0_0 -->
<g id="edge11" class="edge">
<title>middle_blks_0&#45;&gt;ups_0_0</title>
<path fill="none" stroke="black" d="M7,-417.67C7,-416.93 7,-416.15 7,-415.37"/>
<polygon fill="black" stroke="black" points="8.75,-415.22 7,-410.22 5.25,-415.22 8.75,-415.22"/>
</g>
<!-- ups_0_1 -->
<g id="node13" class="node">
<title>ups_0_1</title>
<g id="a_node13"><a xlink:title="#p=0&#10;&#10;ups_0_1 idx_12&#10;MOD ups.0.1&#10;PixelShuffle&#10;(1, 128, 32, 32) torch.float32">
<polygon fill="#ffffff" stroke="black" points="14,-388 0,-388 0,-374 14,-374 14,-388"/>
</a>
</g>
</g>
<!-- ups_0_0&#45;&gt;ups_0_1 -->
<g id="edge12" class="edge">
<title>ups_0_0&#45;&gt;ups_0_1</title>
<path fill="none" stroke="black" d="M7,-395.67C7,-394.93 7,-394.15 7,-393.37"/>
<polygon fill="black" stroke="black" points="8.75,-393.22 7,-388.22 5.25,-393.22 8.75,-393.22"/>
</g>
<!-- ups_0_1&#45;&gt;add -->
<g id="edge13" class="edge">
<title>ups_0_1&#45;&gt;add</title>
<path fill="none" stroke="black" d="M12.06,-373.67C12.9,-372.63 13.78,-371.53 14.67,-370.42"/>
<polygon fill="black" stroke="black" points="16.27,-371.22 18.03,-366.22 13.54,-369.03 16.27,-371.22"/>
</g>
<!-- decoders_0_0 -->
<g id="node15" class="node">
<title>decoders_0_0</title>
<g id="a_node15"><a xlink:title="#p=118912&#10;&#10;decoders_0_0 idx_14&#10;MOD decoders.0.0&#10;NAFBlock&#10;(1, 128, 32, 32) torch.float32">
<polygon fill="#ff1616" stroke="black" points="30,-344 16,-344 16,-330 30,-330 30,-344"/>
</a>
</g>
</g>
<!-- add&#45;&gt;decoders_0_0 -->
<g id="edge15" class="edge">
<title>add&#45;&gt;decoders_0_0</title>
<path fill="none" stroke="black" d="M23,-351.67C23,-350.93 23,-350.15 23,-349.37"/>
<polygon fill="black" stroke="black" points="24.75,-349.22 23,-344.22 21.25,-349.22 24.75,-349.22"/>
</g>
<!-- ups_1_0 -->
<g id="node16" class="node">
<title>ups_1_0</title>
<g id="a_node16"><a xlink:title="#p=32768&#10;&#10;ups_1_0 idx_15&#10;Conv2d&#10;&#45;&#45;&#45;&#45;&#45;&#45;&#45;&#45;&#45;&#45;&#10;kernel_size: (1, 1)&#10;in_channels: 128&#10;out_channels: 256&#10;no bias&#10;&#45;&#45;&#45;&#45;&#45;&#45;&#45;&#45;&#45;&#45;&#10;(1, 256, 32, 32)">
<polygon fill="#ffadad" stroke="black" points="30,-322 16,-322 16,-308 30,-308 30,-322"/>
</a>
</g>
</g>
<!-- decoders_0_0&#45;&gt;ups_1_0 -->
<g id="edge16" class="edge">
<title>decoders_0_0&#45;&gt;ups_1_0</title>
<path fill="none" stroke="black" d="M23,-329.67C23,-328.93 23,-328.15 23,-327.37"/>
<polygon fill="black" stroke="black" points="24.75,-327.22 23,-322.22 21.25,-327.22 24.75,-327.22"/>
</g>
<!-- ups_1_1 -->
<g id="node17" class="node">
<title>ups_1_1</title>
<g id="a_node17"><a xlink:title="#p=0&#10;&#10;ups_1_1 idx_16&#10;MOD ups.1.1&#10;PixelShuffle&#10;(1, 64, 64, 64) torch.float32">
<polygon fill="#ffffff" stroke="black" points="30,-300 16,-300 16,-286 30,-286 30,-300"/>
</a>
</g>
</g>
<!-- ups_1_0&#45;&gt;ups_1_1 -->
<g id="edge17" class="edge">
<title>ups_1_0&#45;&gt;ups_1_1</title>
<path fill="none" stroke="black" d="M23,-307.67C23,-306.93 23,-306.15 23,-305.37"/>
<polygon fill="black" stroke="black" points="24.75,-305.22 23,-300.22 21.25,-305.22 24.75,-305.22"/>
</g>
<!-- ups_1_1&#45;&gt;add_1 -->
<g id="edge18" class="edge">
<title>ups_1_1&#45;&gt;add_1</title>
<path fill="none" stroke="black" d="M28.06,-285.67C28.9,-284.63 29.78,-283.53 30.67,-282.42"/>
<polygon fill="black" stroke="black" points="32.27,-283.22 34.03,-278.22 29.54,-281.03 32.27,-283.22"/>
</g>
<!-- decoders_1_0 -->
<g id="node19" class="node">
<title>decoders_1_0</title>
<g id="a_node19"><a xlink:title="#p=30784&#10;&#10;decoders_1_0 idx_18&#10;MOD decoders.1.0&#10;NAFBlock&#10;(1, 64, 64, 64) torch.float32">
<polygon fill="#ffb0b0" stroke="black" points="46,-256 32,-256 32,-242 46,-242 46,-256"/>
</a>
</g>
</g>
<!-- add_1&#45;&gt;decoders_1_0 -->
<g id="edge20" class="edge">
<title>add_1&#45;&gt;decoders_1_0</title>
<path fill="none" stroke="black" d="M39,-263.67C39,-262.93 39,-262.15 39,-261.37"/>
<polygon fill="black" stroke="black" points="40.75,-261.22 39,-256.22 37.25,-261.22 40.75,-261.22"/>
</g>
<!-- ups_2_0 -->
<g id="node20" class="node">
<title>ups_2_0</title>
<g id="a_node20"><a xlink:title="#p=8192&#10;&#10;ups_2_0 idx_19&#10;Conv2d&#10;&#45;&#45;&#45;&#45;&#45;&#45;&#45;&#45;&#45;&#45;&#10;kernel_size: (1, 1)&#10;in_channels: 64&#10;out_channels: 128&#10;no bias&#10;&#45;&#45;&#45;&#45;&#45;&#45;&#45;&#45;&#45;&#45;&#10;(1, 128, 64, 64)">
<polygon fill="#ffd8d8" stroke="black" points="46,-234 32,-234 32,-220 46,-220 46,-234"/>
</a>
</g>
</g>
<!-- decoders_1_0&#45;&gt;ups_2_0 -->
<g id="edge21" class="edge">
<title>decoders_1_0&#45;&gt;ups_2_0</title>
<path fill="none" stroke="black" d="M39,-241.67C39,-240.93 39,-240.15 39,-239.37"/>
<polygon fill="black" stroke="black" points="40.75,-239.22 39,-234.22 37.25,-239.22 40.75,-239.22"/>
</g>
<!-- ups_2_1 -->
<g id="node21" class="node">
<title>ups_2_1</title>
<g id="a_node21"><a xlink:title="#p=0&#10;&#10;ups_2_1 idx_20&#10;MOD ups.2.1&#10;PixelShuffle&#10;(1, 32, 128, 128) torch.float32">
<polygon fill="#ffffff" stroke="black" points="46,-212 32,-212 32,-198 46,-198 46,-212"/>
</a>
</g>
</g>
<!-- ups_2_0&#45;&gt;ups_2_1 -->
<g id="edge22" class="edge">
<title>ups_2_0&#45;&gt;ups_2_1</title>
<path fill="none" stroke="black" d="M39,-219.67C39,-218.93 39,-218.15 39,-217.37"/>
<polygon fill="black" stroke="black" points="40.75,-217.22 39,-212.22 37.25,-217.22 40.75,-217.22"/>
</g>
<!-- ups_2_1&#45;&gt;add_2 -->
<g id="edge23" class="edge">
<title>ups_2_1&#45;&gt;add_2</title>
<path fill="none" stroke="black" d="M44.06,-197.67C44.9,-196.63 45.78,-195.53 46.67,-194.42"/>
<polygon fill="black" stroke="black" points="48.27,-195.22 50.03,-190.22 45.54,-193.03 48.27,-195.22"/>
</g>
<!-- decoders_2_0 -->
<g id="node23" class="node">
<title>decoders_2_0</title>
<g id="a_node23"><a xlink:title="#p=8224&#10;&#10;decoders_2_0 idx_22&#10;MOD decoders.2.0&#10;NAFBlock&#10;(1, 32, 128, 128) torch.float32">
<polygon fill="#ffd8d8" stroke="black" points="62,-168 48,-168 48,-154 62,-154 62,-168"/>
</a>
</g>
</g>
<!-- add_2&#45;&gt;decoders_2_0 -->
<g id="edge25" class="edge">
<title>add_2&#45;&gt;decoders_2_0</title>
<path fill="none" stroke="black" d="M55,-175.67C55,-174.93 55,-174.15 55,-173.37"/>
<polygon fill="black" stroke="black" points="56.75,-173.22 55,-168.22 53.25,-173.22 56.75,-173.22"/>
</g>
<!-- ups_3_0 -->
<g id="node24" class="node">
<title>ups_3_0</title>
<g id="a_node24"><a xlink:title="#p=2048&#10;&#10;ups_3_0 idx_23&#10;Conv2d&#10;&#45;&#45;&#45;&#45;&#45;&#45;&#45;&#45;&#45;&#45;&#10;kernel_size: (1, 1)&#10;in_channels: 32&#10;out_channels: 64&#10;no bias&#10;&#45;&#45;&#45;&#45;&#45;&#45;&#45;&#45;&#45;&#45;&#10;(1, 64, 128, 128)">
<polygon fill="#ffe2e2" stroke="black" points="62,-146 48,-146 48,-132 62,-132 62,-146"/>
</a>
</g>
</g>
<!-- decoders_2_0&#45;&gt;ups_3_0 -->
<g id="edge26" class="edge">
<title>decoders_2_0&#45;&gt;ups_3_0</title>
<path fill="none" stroke="black" d="M55,-153.67C55,-152.93 55,-152.15 55,-151.37"/>
<polygon fill="black" stroke="black" points="56.75,-151.22 55,-146.22 53.25,-151.22 56.75,-151.22"/>
</g>
<!-- ups_3_1 -->
<g id="node25" class="node">
<title>ups_3_1</title>
<g id="a_node25"><a xlink:title="#p=0&#10;&#10;ups_3_1 idx_24&#10;MOD ups.3.1&#10;PixelShuffle&#10;(1, 16, 256, 256) torch.float32">
<polygon fill="#ffffff" stroke="black" points="62,-124 48,-124 48,-110 62,-110 62,-124"/>
</a>
</g>
</g>
<!-- ups_3_0&#45;&gt;ups_3_1 -->
<g id="edge27" class="edge">
<title>ups_3_0&#45;&gt;ups_3_1</title>
<path fill="none" stroke="black" d="M55,-131.67C55,-130.93 55,-130.15 55,-129.37"/>
<polygon fill="black" stroke="black" points="56.75,-129.22 55,-124.22 53.25,-129.22 56.75,-129.22"/>
</g>
<!-- ups_3_1&#45;&gt;add_3 -->
<g id="edge28" class="edge">
<title>ups_3_1&#45;&gt;add_3</title>
<path fill="none" stroke="black" d="M60.06,-109.67C60.9,-108.63 61.78,-107.53 62.67,-106.42"/>
<polygon fill="black" stroke="black" points="64.27,-107.22 66.03,-102.22 61.54,-105.03 64.27,-107.22"/>
</g>
<!-- decoders_3_0 -->
<g id="node27" class="node">
<title>decoders_3_0</title>
<g id="a_node27"><a xlink:title="#p=2320&#10;&#10;decoders_3_0 idx_26&#10;MOD decoders.3.0&#10;NAFBlock&#10;(1, 16, 256, 256) torch.float32">
<polygon fill="#ffe2e2" stroke="black" points="78,-80 64,-80 64,-66 78,-66 78,-80"/>
</a>
</g>
</g>
<!-- add_3&#45;&gt;decoders_3_0 -->
<g id="edge30" class="edge">
<title>add_3&#45;&gt;decoders_3_0</title>
<path fill="none" stroke="black" d="M71,-87.67C71,-86.93 71,-86.15 71,-85.37"/>
<polygon fill="black" stroke="black" points="72.75,-85.22 71,-80.22 69.25,-85.22 72.75,-85.22"/>
</g>
<!-- ending -->
<g id="node28" class="node">
<title>ending</title>
<g id="a_node28"><a xlink:title="#p=435&#10;&#10;ending idx_27&#10;Conv2d&#10;&#45;&#45;&#45;&#45;&#45;&#45;&#45;&#45;&#45;&#45;&#10;kernel_size: (3, 3)&#10;in_channels: 16&#10;out_channels: 3&#10;+ bias&#10;&#45;&#45;&#45;&#45;&#45;&#45;&#45;&#45;&#45;&#45;&#10;(1, 3, 256, 256)">
<polygon fill="#ffe5e5" stroke="black" points="78,-58 64,-58 64,-44 78,-44 78,-58"/>
</a>
</g>
</g>
<!-- decoders_3_0&#45;&gt;ending -->
<g id="edge31" class="edge">
<title>decoders_3_0&#45;&gt;ending</title>
<path fill="none" stroke="black" d="M71,-65.67C71,-64.93 71,-64.15 71,-63.37"/>
<polygon fill="black" stroke="black" points="72.75,-63.22 71,-58.22 69.25,-63.22 72.75,-63.22"/>
</g>
<!-- ending&#45;&gt;add_4 -->
<g id="edge32" class="edge">
<title>ending&#45;&gt;add_4</title>
<path fill="none" stroke="black" d="M73.85,-43.67C74.25,-42.78 74.67,-41.84 75.1,-40.89"/>
<polygon fill="black" stroke="black" points="76.75,-41.5 77.2,-36.22 73.55,-40.06 76.75,-41.5"/>
</g>
<!-- output -->
<g id="node30" class="node">
<title>output</title>
<g id="a_node30"><a xlink:title="#p=0&#10;&#10;output">
<polygon fill="#ffffff" stroke="black" points="87,-14 73,-14 73,0 87,0 87,-14"/>
</a>
</g>
</g>
<!-- add_4&#45;&gt;output -->
<g id="edge34" class="edge">
<title>add_4&#45;&gt;output</title>
<path fill="none" stroke="black" d="M80,-21.67C80,-20.93 80,-20.15 80,-19.37"/>
<polygon fill="black" stroke="black" points="81.75,-19.22 80,-14.22 78.25,-19.22 81.75,-19.22"/>
</g>
</g>
</svg>
