<?xml version="1.0" encoding="UTF-8" standalone="no"?>
<!DOCTYPE svg PUBLIC "-//W3C//DTD SVG 1.1//EN"
 "http://www.w3.org/Graphics/SVG/1.1/DTD/svg11.dtd">
<!-- Generated by graphviz version 2.43.0 (0)
 -->
<!-- Title: %3 Pages: 1 -->
<svg width="511pt" height="2654pt"
 viewBox="0.00 0.00 511.29 2654.00" xmlns="http://www.w3.org/2000/svg" xmlns:xlink="http://www.w3.org/1999/xlink">
<g id="graph0" class="graph" transform="scale(1 1) rotate(0) translate(4 2650)">
<title>%3</title>
<polygon fill="white" stroke="transparent" points="-4,4 -4,-2650 507.29,-2650 507.29,4 -4,4"/>
<!-- inp -->
<g id="node1" class="node">
<title>inp</title>
<polygon fill="#ffffff" stroke="black" points="398,-2600 503.08,-2634.5 292.92,-2634.5 398,-2600"/>
<text text-anchor="middle" x="398" y="-2619.3" font-family="Times,serif" font-size="14.00">inp idx_0</text>
</g>
<!-- permute -->
<g id="node2" class="node">
<title>permute</title>
<polygon fill="#ffffff" stroke="black" points="440,-2564 218,-2564 218,-2511 440,-2511 440,-2564"/>
<text text-anchor="middle" x="329" y="-2548.8" font-family="Times,serif" font-size="14.00">permute idx_1</text>
<text text-anchor="middle" x="329" y="-2533.8" font-family="Times,serif" font-size="14.00">MET permute</text>
<text text-anchor="middle" x="329" y="-2518.8" font-family="Times,serif" font-size="14.00">(1, 32, 32, 128) torch.float32</text>
</g>
<!-- inp&#45;&gt;permute -->
<g id="edge1" class="edge">
<title>inp&#45;&gt;permute</title>
<path fill="none" stroke="black" d="M383.37,-2604.29C375.6,-2594.89 365.79,-2583.03 356.66,-2571.97"/>
<polygon fill="black" stroke="black" points="359.23,-2569.59 350.16,-2564.11 353.83,-2574.04 359.23,-2569.59"/>
</g>
<!-- add -->
<g id="node15" class="node">
<title>add</title>
<polygon fill="#ffffff" stroke="black" points="454,-1106 360,-1106 360,-1068 454,-1068 454,-1106"/>
<text text-anchor="middle" x="407" y="-1090.8" font-family="Times,serif" font-size="14.00">add idx_14</text>
<text text-anchor="middle" x="407" y="-1075.8" font-family="Times,serif" font-size="14.00">+</text>
</g>
<!-- inp&#45;&gt;add -->
<g id="edge15" class="edge">
<title>inp&#45;&gt;add</title>
<path fill="none" stroke="black" d="M416.59,-2605.8C427.72,-2595.06 441.18,-2580.03 449,-2564 473.19,-2514.41 472,-2497.18 472,-2442 472,-2442 472,-2442 472,-1249 472,-1198.79 444.49,-1145.77 425.26,-1114.84"/>
<polygon fill="black" stroke="black" points="428.17,-1112.9 419.84,-1106.35 422.27,-1116.66 428.17,-1112.9"/>
</g>
<!-- norm1 -->
<g id="node3" class="node">
<title>norm1</title>
<polygon fill="#ffe4e4" stroke="black" points="385,-2475 259,-2475 259,-2407 385,-2407 385,-2475"/>
<text text-anchor="middle" x="322" y="-2459.8" font-family="Times,serif" font-size="14.00">norm1 idx_2</text>
<text text-anchor="middle" x="322" y="-2444.8" font-family="Times,serif" font-size="14.00">LayerNorm</text>
<text text-anchor="middle" x="322" y="-2429.8" font-family="Times,serif" font-size="14.00">&#45;&#45;&#45;&#45;&#45;&#45;&#45;&#45;&#45;&#45;</text>
<text text-anchor="middle" x="322" y="-2414.8" font-family="Times,serif" font-size="14.00">(1, 32, 32, 128)</text>
</g>
<!-- permute&#45;&gt;norm1 -->
<g id="edge2" class="edge">
<title>permute&#45;&gt;norm1</title>
<path fill="none" stroke="black" d="M327.09,-2510.68C326.51,-2502.82 325.85,-2493.96 325.21,-2485.29"/>
<polygon fill="black" stroke="black" points="328.69,-2484.96 324.46,-2475.25 321.71,-2485.48 328.69,-2484.96"/>
</g>
<!-- permute_1 -->
<g id="node4" class="node">
<title>permute_1</title>
<polygon fill="#ffffff" stroke="black" points="419,-2371 197,-2371 197,-2318 419,-2318 419,-2371"/>
<text text-anchor="middle" x="308" y="-2355.8" font-family="Times,serif" font-size="14.00">permute_1 idx_3</text>
<text text-anchor="middle" x="308" y="-2340.8" font-family="Times,serif" font-size="14.00">MET permute</text>
<text text-anchor="middle" x="308" y="-2325.8" font-family="Times,serif" font-size="14.00">(1, 128, 32, 32) torch.float32</text>
</g>
<!-- norm1&#45;&gt;permute_1 -->
<g id="edge3" class="edge">
<title>norm1&#45;&gt;permute_1</title>
<path fill="none" stroke="black" d="M317.1,-2406.95C315.87,-2398.62 314.54,-2389.65 313.29,-2381.2"/>
<polygon fill="black" stroke="black" points="316.74,-2380.62 311.81,-2371.24 309.82,-2381.64 316.74,-2380.62"/>
</g>
<!-- conv1 -->
<g id="node5" class="node">
<title>conv1</title>
<polygon fill="#ff0000" stroke="black" points="352,-2282 206,-2282 206,-2139 352,-2139 352,-2282"/>
<text text-anchor="middle" x="279" y="-2266.8" font-family="Times,serif" font-size="14.00">conv1 idx_4</text>
<text text-anchor="middle" x="279" y="-2251.8" font-family="Times,serif" font-size="14.00">Conv2d</text>
<text text-anchor="middle" x="279" y="-2236.8" font-family="Times,serif" font-size="14.00">&#45;&#45;&#45;&#45;&#45;&#45;&#45;&#45;&#45;&#45;</text>
<text text-anchor="middle" x="279" y="-2221.8" font-family="Times,serif" font-size="14.00">kernel_size: (1, 1)</text>
<text text-anchor="middle" x="279" y="-2206.8" font-family="Times,serif" font-size="14.00">in_channels: 128</text>
<text text-anchor="middle" x="279" y="-2191.8" font-family="Times,serif" font-size="14.00">out_channels: 256</text>
<text text-anchor="middle" x="279" y="-2176.8" font-family="Times,serif" font-size="14.00">+ bias</text>
<text text-anchor="middle" x="279" y="-2161.8" font-family="Times,serif" font-size="14.00">&#45;&#45;&#45;&#45;&#45;&#45;&#45;&#45;&#45;&#45;</text>
<text text-anchor="middle" x="279" y="-2146.8" font-family="Times,serif" font-size="14.00">(1, 256, 32, 32)</text>
</g>
<!-- permute_1&#45;&gt;conv1 -->
<g id="edge4" class="edge">
<title>permute_1&#45;&gt;conv1</title>
<path fill="none" stroke="black" d="M302.34,-2317.74C300.67,-2310.13 298.75,-2301.38 296.73,-2292.22"/>
<polygon fill="black" stroke="black" points="300.09,-2291.18 294.53,-2282.17 293.25,-2292.69 300.09,-2291.18"/>
</g>
<!-- conv2 -->
<g id="node6" class="node">
<title>conv2</title>
<polygon fill="#ffd4d4" stroke="black" points="292.5,-2103 149.5,-2103 149.5,-1960 292.5,-1960 292.5,-2103"/>
<text text-anchor="middle" x="221" y="-2087.8" font-family="Times,serif" font-size="14.00">conv2 idx_5</text>
<text text-anchor="middle" x="221" y="-2072.8" font-family="Times,serif" font-size="14.00">dwise Conv2d</text>
<text text-anchor="middle" x="221" y="-2057.8" font-family="Times,serif" font-size="14.00">&#45;&#45;&#45;&#45;&#45;&#45;&#45;&#45;&#45;&#45;</text>
<text text-anchor="middle" x="221" y="-2042.8" font-family="Times,serif" font-size="14.00">kernel_size: (3, 3)</text>
<text text-anchor="middle" x="221" y="-2027.8" font-family="Times,serif" font-size="14.00">channels: 256</text>
<text text-anchor="middle" x="221" y="-2012.8" font-family="Times,serif" font-size="14.00">exp_rate: 1</text>
<text text-anchor="middle" x="221" y="-1997.8" font-family="Times,serif" font-size="14.00">+ bias</text>
<text text-anchor="middle" x="221" y="-1982.8" font-family="Times,serif" font-size="14.00">&#45;&#45;&#45;&#45;&#45;&#45;&#45;&#45;&#45;&#45;</text>
<text text-anchor="middle" x="221" y="-1967.8" font-family="Times,serif" font-size="14.00">(1, 256, 32, 32)</text>
</g>
<!-- conv1&#45;&gt;conv2 -->
<g id="edge5" class="edge">
<title>conv1&#45;&gt;conv2</title>
<path fill="none" stroke="black" d="M255.83,-2138.78C253.03,-2130.25 250.16,-2121.48 247.32,-2112.82"/>
<polygon fill="black" stroke="black" points="250.58,-2111.52 244.14,-2103.11 243.92,-2113.7 250.58,-2111.52"/>
</g>
<!-- sg -->
<g id="node7" class="node">
<title>sg</title>
<polygon fill="#ffffff" stroke="black" points="331,-1924 109,-1924 109,-1856 331,-1856 331,-1924"/>
<text text-anchor="middle" x="220" y="-1908.8" font-family="Times,serif" font-size="14.00">sg idx_6</text>
<text text-anchor="middle" x="220" y="-1893.8" font-family="Times,serif" font-size="14.00">MOD sg</text>
<text text-anchor="middle" x="220" y="-1878.8" font-family="Times,serif" font-size="14.00">SimpleGate</text>
<text text-anchor="middle" x="220" y="-1863.8" font-family="Times,serif" font-size="14.00">(1, 128, 32, 32) torch.float32</text>
</g>
<!-- conv2&#45;&gt;sg -->
<g id="edge6" class="edge">
<title>conv2&#45;&gt;sg</title>
<path fill="none" stroke="black" d="M220.49,-1959.93C220.43,-1951.29 220.37,-1942.66 220.31,-1934.58"/>
<polygon fill="black" stroke="black" points="223.81,-1934.29 220.24,-1924.31 216.81,-1934.34 223.81,-1934.29"/>
</g>
<!-- sca_0 -->
<g id="node8" class="node">
<title>sca_0</title>
<polygon fill="#ffffff" stroke="black" points="191.5,-1820 36.5,-1820 36.5,-1752 191.5,-1752 191.5,-1820"/>
<text text-anchor="middle" x="114" y="-1804.8" font-family="Times,serif" font-size="14.00">sca_0 idx_7</text>
<text text-anchor="middle" x="114" y="-1789.8" font-family="Times,serif" font-size="14.00">AdaptiveAvgPool2d</text>
<text text-anchor="middle" x="114" y="-1774.8" font-family="Times,serif" font-size="14.00">&#45;&#45;&#45;&#45;&#45;&#45;&#45;&#45;&#45;&#45;</text>
<text text-anchor="middle" x="114" y="-1759.8" font-family="Times,serif" font-size="14.00">(1, 128, 1, 1)</text>
</g>
<!-- sg&#45;&gt;sca_0 -->
<g id="edge7" class="edge">
<title>sg&#45;&gt;sca_0</title>
<path fill="none" stroke="black" d="M185.58,-1855.88C176.14,-1846.8 165.8,-1836.85 155.98,-1827.4"/>
<polygon fill="black" stroke="black" points="158.24,-1824.71 148.61,-1820.3 153.38,-1829.76 158.24,-1824.71"/>
</g>
<!-- mul -->
<g id="node10" class="node">
<title>mul</title>
<polygon fill="#ffffff" stroke="black" points="157,-1537 71,-1537 71,-1499 157,-1499 157,-1537"/>
<text text-anchor="middle" x="114" y="-1521.8" font-family="Times,serif" font-size="14.00">mul idx_9</text>
<text text-anchor="middle" x="114" y="-1506.8" font-family="Times,serif" font-size="14.00">*</text>
</g>
<!-- sg&#45;&gt;mul -->
<g id="edge9" class="edge">
<title>sg&#45;&gt;mul</title>
<path fill="none" stroke="black" d="M226.46,-1855.74C236.43,-1794.89 249.32,-1663.56 196,-1573 188.69,-1560.59 177.28,-1550.49 165.26,-1542.52"/>
<polygon fill="black" stroke="black" points="166.8,-1539.36 156.45,-1537.1 163.13,-1545.33 166.8,-1539.36"/>
</g>
<!-- sca_1 -->
<g id="node9" class="node">
<title>sca_1</title>
<polygon fill="#ff7373" stroke="black" points="187,-1716 41,-1716 41,-1573 187,-1573 187,-1716"/>
<text text-anchor="middle" x="114" y="-1700.8" font-family="Times,serif" font-size="14.00">sca_1 idx_8</text>
<text text-anchor="middle" x="114" y="-1685.8" font-family="Times,serif" font-size="14.00">Conv2d</text>
<text text-anchor="middle" x="114" y="-1670.8" font-family="Times,serif" font-size="14.00">&#45;&#45;&#45;&#45;&#45;&#45;&#45;&#45;&#45;&#45;</text>
<text text-anchor="middle" x="114" y="-1655.8" font-family="Times,serif" font-size="14.00">kernel_size: (1, 1)</text>
<text text-anchor="middle" x="114" y="-1640.8" font-family="Times,serif" font-size="14.00">in_channels: 128</text>
<text text-anchor="middle" x="114" y="-1625.8" font-family="Times,serif" font-size="14.00">out_channels: 128</text>
<text text-anchor="middle" x="114" y="-1610.8" font-family="Times,serif" font-size="14.00">+ bias</text>
<text text-anchor="middle" x="114" y="-1595.8" font-family="Times,serif" font-size="14.00">&#45;&#45;&#45;&#45;&#45;&#45;&#45;&#45;&#45;&#45;</text>
<text text-anchor="middle" x="114" y="-1580.8" font-family="Times,serif" font-size="14.00">(1, 128, 1, 1)</text>
</g>
<!-- sca_0&#45;&gt;sca_1 -->
<g id="edge8" class="edge">
<title>sca_0&#45;&gt;sca_1</title>
<path fill="none" stroke="black" d="M114,-1751.94C114,-1744.1 114,-1735.39 114,-1726.42"/>
<polygon fill="black" stroke="black" points="117.5,-1726.23 114,-1716.23 110.5,-1726.23 117.5,-1726.23"/>
</g>
<!-- sca_1&#45;&gt;mul -->
<g id="edge10" class="edge">
<title>sca_1&#45;&gt;mul</title>
<path fill="none" stroke="black" d="M114,-1572.88C114,-1563.93 114,-1555.21 114,-1547.49"/>
<polygon fill="black" stroke="black" points="117.5,-1547.31 114,-1537.31 110.5,-1547.31 117.5,-1547.31"/>
</g>
<!-- conv3 -->
<g id="node11" class="node">
<title>conv3</title>
<polygon fill="#ff7373" stroke="black" points="185,-1463 39,-1463 39,-1320 185,-1320 185,-1463"/>
<text text-anchor="middle" x="112" y="-1447.8" font-family="Times,serif" font-size="14.00">conv3 idx_10</text>
<text text-anchor="middle" x="112" y="-1432.8" font-family="Times,serif" font-size="14.00">Conv2d</text>
<text text-anchor="middle" x="112" y="-1417.8" font-family="Times,serif" font-size="14.00">&#45;&#45;&#45;&#45;&#45;&#45;&#45;&#45;&#45;&#45;</text>
<text text-anchor="middle" x="112" y="-1402.8" font-family="Times,serif" font-size="14.00">kernel_size: (1, 1)</text>
<text text-anchor="middle" x="112" y="-1387.8" font-family="Times,serif" font-size="14.00">in_channels: 128</text>
<text text-anchor="middle" x="112" y="-1372.8" font-family="Times,serif" font-size="14.00">out_channels: 128</text>
<text text-anchor="middle" x="112" y="-1357.8" font-family="Times,serif" font-size="14.00">+ bias</text>
<text text-anchor="middle" x="112" y="-1342.8" font-family="Times,serif" font-size="14.00">&#45;&#45;&#45;&#45;&#45;&#45;&#45;&#45;&#45;&#45;</text>
<text text-anchor="middle" x="112" y="-1327.8" font-family="Times,serif" font-size="14.00">(1, 128, 32, 32)</text>
</g>
<!-- mul&#45;&gt;conv3 -->
<g id="edge11" class="edge">
<title>mul&#45;&gt;conv3</title>
<path fill="none" stroke="black" d="M113.71,-1498.9C113.59,-1491.64 113.45,-1482.73 113.3,-1473.19"/>
<polygon fill="black" stroke="black" points="116.79,-1473 113.13,-1463.06 109.79,-1473.11 116.79,-1473"/>
</g>
<!-- dropout1 -->
<g id="node12" class="node">
<title>dropout1</title>
<polygon fill="#ffffff" stroke="black" points="222,-1284 0,-1284 0,-1216 222,-1216 222,-1284"/>
<text text-anchor="middle" x="111" y="-1268.8" font-family="Times,serif" font-size="14.00">dropout1 idx_11</text>
<text text-anchor="middle" x="111" y="-1253.8" font-family="Times,serif" font-size="14.00">MOD dropout1</text>
<text text-anchor="middle" x="111" y="-1238.8" font-family="Times,serif" font-size="14.00">Identity</text>
<text text-anchor="middle" x="111" y="-1223.8" font-family="Times,serif" font-size="14.00">(1, 128, 32, 32) torch.float32</text>
</g>
<!-- conv3&#45;&gt;dropout1 -->
<g id="edge12" class="edge">
<title>conv3&#45;&gt;dropout1</title>
<path fill="none" stroke="black" d="M111.49,-1319.93C111.43,-1311.29 111.37,-1302.66 111.31,-1294.58"/>
<polygon fill="black" stroke="black" points="114.81,-1294.29 111.24,-1284.31 107.81,-1294.34 114.81,-1294.29"/>
</g>
<!-- mul_1 -->
<g id="node14" class="node">
<title>mul_1</title>
<polygon fill="#ffffff" stroke="black" points="397,-1180 287,-1180 287,-1142 397,-1142 397,-1180"/>
<text text-anchor="middle" x="342" y="-1164.8" font-family="Times,serif" font-size="14.00">mul_1 idx_13</text>
<text text-anchor="middle" x="342" y="-1149.8" font-family="Times,serif" font-size="14.00">*</text>
</g>
<!-- dropout1&#45;&gt;mul_1 -->
<g id="edge13" class="edge">
<title>dropout1&#45;&gt;mul_1</title>
<path fill="none" stroke="black" d="M198.66,-1215.98C227.41,-1205.16 258.6,-1193.41 284.52,-1183.65"/>
<polygon fill="black" stroke="black" points="286.06,-1186.81 294.19,-1180.01 283.59,-1180.26 286.06,-1186.81"/>
</g>
<!-- beta -->
<g id="node13" class="node">
<title>beta</title>
<polygon fill="#ffffff" stroke="black" points="444,-1276.5 240,-1276.5 240,-1223.5 444,-1223.5 444,-1276.5"/>
<text text-anchor="middle" x="342" y="-1261.3" font-family="Times,serif" font-size="14.00">beta idx_12</text>
<text text-anchor="middle" x="342" y="-1246.3" font-family="Times,serif" font-size="14.00">ATT </text>
<text text-anchor="middle" x="342" y="-1231.3" font-family="Times,serif" font-size="14.00">(1, 128, 1, 1) torch.float32</text>
</g>
<!-- beta&#45;&gt;mul_1 -->
<g id="edge14" class="edge">
<title>beta&#45;&gt;mul_1</title>
<path fill="none" stroke="black" d="M342,-1223.37C342,-1212.92 342,-1200.8 342,-1190.11"/>
<polygon fill="black" stroke="black" points="345.5,-1190.01 342,-1180.01 338.5,-1190.01 345.5,-1190.01"/>
</g>
<!-- mul_1&#45;&gt;add -->
<g id="edge16" class="edge">
<title>mul_1&#45;&gt;add</title>
<path fill="none" stroke="black" d="M358.4,-1141.83C366.04,-1133.37 375.27,-1123.15 383.62,-1113.9"/>
<polygon fill="black" stroke="black" points="386.27,-1116.18 390.38,-1106.41 381.08,-1111.49 386.27,-1116.18"/>
</g>
<!-- permute_2 -->
<g id="node16" class="node">
<title>permute_2</title>
<polygon fill="#ffffff" stroke="black" points="449,-1032 227,-1032 227,-979 449,-979 449,-1032"/>
<text text-anchor="middle" x="338" y="-1016.8" font-family="Times,serif" font-size="14.00">permute_2 idx_15</text>
<text text-anchor="middle" x="338" y="-1001.8" font-family="Times,serif" font-size="14.00">MET permute</text>
<text text-anchor="middle" x="338" y="-986.8" font-family="Times,serif" font-size="14.00">(1, 32, 32, 128) torch.float32</text>
</g>
<!-- add&#45;&gt;permute_2 -->
<g id="edge17" class="edge">
<title>add&#45;&gt;permute_2</title>
<path fill="none" stroke="black" d="M391.34,-1067.96C384.06,-1059.57 375.17,-1049.33 366.75,-1039.62"/>
<polygon fill="black" stroke="black" points="369.33,-1037.26 360.13,-1032 364.05,-1041.85 369.33,-1037.26"/>
</g>
<!-- add_1 -->
<g id="node25" class="node">
<title>add_1</title>
<polygon fill="#ffffff" stroke="black" points="470,-110 360,-110 360,-72 470,-72 470,-110"/>
<text text-anchor="middle" x="415" y="-94.8" font-family="Times,serif" font-size="14.00">add_1 idx_24</text>
<text text-anchor="middle" x="415" y="-79.8" font-family="Times,serif" font-size="14.00">+</text>
</g>
<!-- add&#45;&gt;add_1 -->
<g id="edge26" class="edge">
<title>add&#45;&gt;add_1</title>
<path fill="none" stroke="black" d="M429.24,-1067.93C439.58,-1058.33 451.08,-1045.7 458,-1032 482.84,-982.82 480,-965.1 480,-910 480,-910 480,-910 480,-253 480,-202.79 452.49,-149.77 433.26,-118.84"/>
<polygon fill="black" stroke="black" points="436.17,-116.9 427.84,-110.35 430.27,-120.66 436.17,-116.9"/>
</g>
<!-- norm2 -->
<g id="node17" class="node">
<title>norm2</title>
<polygon fill="#ffe4e4" stroke="black" points="397,-943 271,-943 271,-875 397,-875 397,-943"/>
<text text-anchor="middle" x="334" y="-927.8" font-family="Times,serif" font-size="14.00">norm2 idx_16</text>
<text text-anchor="middle" x="334" y="-912.8" font-family="Times,serif" font-size="14.00">LayerNorm</text>
<text text-anchor="middle" x="334" y="-897.8" font-family="Times,serif" font-size="14.00">&#45;&#45;&#45;&#45;&#45;&#45;&#45;&#45;&#45;&#45;</text>
<text text-anchor="middle" x="334" y="-882.8" font-family="Times,serif" font-size="14.00">(1, 32, 32, 128)</text>
</g>
<!-- permute_2&#45;&gt;norm2 -->
<g id="edge18" class="edge">
<title>permute_2&#45;&gt;norm2</title>
<path fill="none" stroke="black" d="M336.91,-978.68C336.57,-970.82 336.2,-961.96 335.83,-953.29"/>
<polygon fill="black" stroke="black" points="339.33,-953.09 335.41,-943.25 332.33,-953.39 339.33,-953.09"/>
</g>
<!-- permute_3 -->
<g id="node18" class="node">
<title>permute_3</title>
<polygon fill="#ffffff" stroke="black" points="334,-839 112,-839 112,-786 334,-786 334,-839"/>
<text text-anchor="middle" x="223" y="-823.8" font-family="Times,serif" font-size="14.00">permute_3 idx_17</text>
<text text-anchor="middle" x="223" y="-808.8" font-family="Times,serif" font-size="14.00">MET permute</text>
<text text-anchor="middle" x="223" y="-793.8" font-family="Times,serif" font-size="14.00">(1, 128, 32, 32) torch.float32</text>
</g>
<!-- norm2&#45;&gt;permute_3 -->
<g id="edge19" class="edge">
<title>norm2&#45;&gt;permute_3</title>
<path fill="none" stroke="black" d="M295.18,-874.95C284.11,-865.53 272.07,-855.27 261.05,-845.89"/>
<polygon fill="black" stroke="black" points="263.11,-843.05 253.23,-839.24 258.58,-848.38 263.11,-843.05"/>
</g>
<!-- conv4 -->
<g id="node19" class="node">
<title>conv4</title>
<polygon fill="#ff0000" stroke="black" points="241,-750 95,-750 95,-607 241,-607 241,-750"/>
<text text-anchor="middle" x="168" y="-734.8" font-family="Times,serif" font-size="14.00">conv4 idx_18</text>
<text text-anchor="middle" x="168" y="-719.8" font-family="Times,serif" font-size="14.00">Conv2d</text>
<text text-anchor="middle" x="168" y="-704.8" font-family="Times,serif" font-size="14.00">&#45;&#45;&#45;&#45;&#45;&#45;&#45;&#45;&#45;&#45;</text>
<text text-anchor="middle" x="168" y="-689.8" font-family="Times,serif" font-size="14.00">kernel_size: (1, 1)</text>
<text text-anchor="middle" x="168" y="-674.8" font-family="Times,serif" font-size="14.00">in_channels: 128</text>
<text text-anchor="middle" x="168" y="-659.8" font-family="Times,serif" font-size="14.00">out_channels: 256</text>
<text text-anchor="middle" x="168" y="-644.8" font-family="Times,serif" font-size="14.00">+ bias</text>
<text text-anchor="middle" x="168" y="-629.8" font-family="Times,serif" font-size="14.00">&#45;&#45;&#45;&#45;&#45;&#45;&#45;&#45;&#45;&#45;</text>
<text text-anchor="middle" x="168" y="-614.8" font-family="Times,serif" font-size="14.00">(1, 256, 32, 32)</text>
</g>
<!-- permute_3&#45;&gt;conv4 -->
<g id="edge20" class="edge">
<title>permute_3&#45;&gt;conv4</title>
<path fill="none" stroke="black" d="M212.26,-785.74C209.03,-777.97 205.29,-769 201.39,-759.64"/>
<polygon fill="black" stroke="black" points="204.52,-758.05 197.45,-750.17 198.06,-760.75 204.52,-758.05"/>
</g>
<!-- sg_1 -->
<g id="node20" class="node">
<title>sg_1</title>
<polygon fill="#ffffff" stroke="black" points="251,-571 29,-571 29,-503 251,-503 251,-571"/>
<text text-anchor="middle" x="140" y="-555.8" font-family="Times,serif" font-size="14.00">sg_1 idx_19</text>
<text text-anchor="middle" x="140" y="-540.8" font-family="Times,serif" font-size="14.00">MOD sg</text>
<text text-anchor="middle" x="140" y="-525.8" font-family="Times,serif" font-size="14.00">SimpleGate</text>
<text text-anchor="middle" x="140" y="-510.8" font-family="Times,serif" font-size="14.00">(1, 128, 32, 32) torch.float32</text>
</g>
<!-- conv4&#45;&gt;sg_1 -->
<g id="edge21" class="edge">
<title>conv4&#45;&gt;sg_1</title>
<path fill="none" stroke="black" d="M153.84,-606.93C152.08,-598.19 150.33,-589.46 148.69,-581.3"/>
<polygon fill="black" stroke="black" points="152.09,-580.43 146.69,-571.31 145.22,-581.81 152.09,-580.43"/>
</g>
<!-- conv5 -->
<g id="node21" class="node">
<title>conv5</title>
<polygon fill="#ff7373" stroke="black" points="199,-467 53,-467 53,-324 199,-324 199,-467"/>
<text text-anchor="middle" x="126" y="-451.8" font-family="Times,serif" font-size="14.00">conv5 idx_20</text>
<text text-anchor="middle" x="126" y="-436.8" font-family="Times,serif" font-size="14.00">Conv2d</text>
<text text-anchor="middle" x="126" y="-421.8" font-family="Times,serif" font-size="14.00">&#45;&#45;&#45;&#45;&#45;&#45;&#45;&#45;&#45;&#45;</text>
<text text-anchor="middle" x="126" y="-406.8" font-family="Times,serif" font-size="14.00">kernel_size: (1, 1)</text>
<text text-anchor="middle" x="126" y="-391.8" font-family="Times,serif" font-size="14.00">in_channels: 128</text>
<text text-anchor="middle" x="126" y="-376.8" font-family="Times,serif" font-size="14.00">out_channels: 128</text>
<text text-anchor="middle" x="126" y="-361.8" font-family="Times,serif" font-size="14.00">+ bias</text>
<text text-anchor="middle" x="126" y="-346.8" font-family="Times,serif" font-size="14.00">&#45;&#45;&#45;&#45;&#45;&#45;&#45;&#45;&#45;&#45;</text>
<text text-anchor="middle" x="126" y="-331.8" font-family="Times,serif" font-size="14.00">(1, 128, 32, 32)</text>
</g>
<!-- sg_1&#45;&gt;conv5 -->
<g id="edge22" class="edge">
<title>sg_1&#45;&gt;conv5</title>
<path fill="none" stroke="black" d="M136.68,-502.94C135.89,-495.1 135.02,-486.39 134.12,-477.42"/>
<polygon fill="black" stroke="black" points="137.58,-476.83 133.1,-467.23 130.61,-477.53 137.58,-476.83"/>
</g>
<!-- dropout2 -->
<g id="node22" class="node">
<title>dropout2</title>
<polygon fill="#ffffff" stroke="black" points="230,-288 8,-288 8,-220 230,-220 230,-288"/>
<text text-anchor="middle" x="119" y="-272.8" font-family="Times,serif" font-size="14.00">dropout2 idx_21</text>
<text text-anchor="middle" x="119" y="-257.8" font-family="Times,serif" font-size="14.00">MOD dropout2</text>
<text text-anchor="middle" x="119" y="-242.8" font-family="Times,serif" font-size="14.00">Identity</text>
<text text-anchor="middle" x="119" y="-227.8" font-family="Times,serif" font-size="14.00">(1, 128, 32, 32) torch.float32</text>
</g>
<!-- conv5&#45;&gt;dropout2 -->
<g id="edge23" class="edge">
<title>conv5&#45;&gt;dropout2</title>
<path fill="none" stroke="black" d="M122.46,-323.93C122.02,-315.19 121.58,-306.46 121.17,-298.3"/>
<polygon fill="black" stroke="black" points="124.67,-298.13 120.67,-288.31 117.68,-298.48 124.67,-298.13"/>
</g>
<!-- mul_2 -->
<g id="node24" class="node">
<title>mul_2</title>
<polygon fill="#ffffff" stroke="black" points="405,-184 295,-184 295,-146 405,-146 405,-184"/>
<text text-anchor="middle" x="350" y="-168.8" font-family="Times,serif" font-size="14.00">mul_2 idx_23</text>
<text text-anchor="middle" x="350" y="-153.8" font-family="Times,serif" font-size="14.00">*</text>
</g>
<!-- dropout2&#45;&gt;mul_2 -->
<g id="edge24" class="edge">
<title>dropout2&#45;&gt;mul_2</title>
<path fill="none" stroke="black" d="M206.66,-219.98C235.41,-209.16 266.6,-197.41 292.52,-187.65"/>
<polygon fill="black" stroke="black" points="294.06,-190.81 302.19,-184.01 291.59,-184.26 294.06,-190.81"/>
</g>
<!-- gamma -->
<g id="node23" class="node">
<title>gamma</title>
<polygon fill="#ffffff" stroke="black" points="452,-280.5 248,-280.5 248,-227.5 452,-227.5 452,-280.5"/>
<text text-anchor="middle" x="350" y="-265.3" font-family="Times,serif" font-size="14.00">gamma idx_22</text>
<text text-anchor="middle" x="350" y="-250.3" font-family="Times,serif" font-size="14.00">ATT </text>
<text text-anchor="middle" x="350" y="-235.3" font-family="Times,serif" font-size="14.00">(1, 128, 1, 1) torch.float32</text>
</g>
<!-- gamma&#45;&gt;mul_2 -->
<g id="edge25" class="edge">
<title>gamma&#45;&gt;mul_2</title>
<path fill="none" stroke="black" d="M350,-227.37C350,-216.92 350,-204.8 350,-194.11"/>
<polygon fill="black" stroke="black" points="353.5,-194.01 350,-184.01 346.5,-194.01 353.5,-194.01"/>
</g>
<!-- mul_2&#45;&gt;add_1 -->
<g id="edge27" class="edge">
<title>mul_2&#45;&gt;add_1</title>
<path fill="none" stroke="black" d="M366.4,-145.83C374.04,-137.37 383.27,-127.15 391.62,-117.9"/>
<polygon fill="black" stroke="black" points="394.27,-120.18 398.38,-110.41 389.08,-115.49 394.27,-120.18"/>
</g>
<!-- output -->
<g id="node26" class="node">
<title>output</title>
<ellipse fill="#ffffff" stroke="black" cx="415" cy="-18" rx="41.69" ry="18"/>
<text text-anchor="middle" x="415" y="-14.3" font-family="Times,serif" font-size="14.00">output</text>
</g>
<!-- add_1&#45;&gt;output -->
<g id="edge28" class="edge">
<title>add_1&#45;&gt;output</title>
<path fill="none" stroke="black" d="M415,-71.72C415,-63.97 415,-54.79 415,-46.27"/>
<polygon fill="black" stroke="black" points="418.5,-46 415,-36 411.5,-46 418.5,-46"/>
</g>
</g>
</svg>
