<?xml version="1.0" encoding="UTF-8" standalone="no"?>
<!DOCTYPE svg PUBLIC "-//W3C//DTD SVG 1.1//EN"
 "http://www.w3.org/Graphics/SVG/1.1/DTD/svg11.dtd">
<!-- Generated by graphviz version 2.43.0 (0)
 -->
<!-- Title: %3 Pages: 1 -->
<svg width="358pt" height="2264pt"
 viewBox="0.00 0.00 357.79 2264.00" xmlns="http://www.w3.org/2000/svg" xmlns:xlink="http://www.w3.org/1999/xlink">
<g id="graph0" class="graph" transform="scale(1 1) rotate(0) translate(4 2260)">
<title>%3</title>
<polygon fill="white" stroke="transparent" points="-4,4 -4,-2260 353.79,-2260 353.79,4 -4,4"/>
<!-- inp -->
<g id="node1" class="node">
<title>inp</title>
<polygon fill="green" stroke="black" points="244.5,-2210 349.58,-2244.5 139.42,-2244.5 244.5,-2210"/>
<text text-anchor="middle" x="244.5" y="-2229.3" font-family="Times,serif" font-size="14.00">inp idx_0</text>
</g>
<!-- permute -->
<g id="node2" class="node">
<title>permute</title>
<polygon fill="white" stroke="black" points="260,-2174 141,-2174 141,-2136 260,-2136 260,-2174"/>
<text text-anchor="middle" x="200.5" y="-2158.8" font-family="Times,serif" font-size="14.00">permute idx_1</text>
<text text-anchor="middle" x="200.5" y="-2143.8" font-family="Times,serif" font-size="14.00">MET permute</text>
</g>
<!-- inp&#45;&gt;permute -->
<g id="edge1" class="edge">
<title>inp&#45;&gt;permute</title>
<path fill="none" stroke="black" d="M233.62,-2213.21C228.32,-2204.06 221.86,-2192.89 216.05,-2182.85"/>
<polygon fill="black" stroke="black" points="218.99,-2180.95 210.95,-2174.05 212.93,-2184.45 218.99,-2180.95"/>
</g>
<!-- add -->
<g id="node15" class="node">
<title>add</title>
<polygon fill="yellow" stroke="black" points="295.5,-956 201.5,-956 201.5,-918 295.5,-918 295.5,-956"/>
<text text-anchor="middle" x="248.5" y="-940.8" font-family="Times,serif" font-size="14.00">add idx_14</text>
<text text-anchor="middle" x="248.5" y="-925.8" font-family="Times,serif" font-size="14.00">+</text>
</g>
<!-- inp&#45;&gt;add -->
<g id="edge15" class="edge">
<title>inp&#45;&gt;add</title>
<path fill="none" stroke="black" d="M254.26,-2213.15C267.76,-2185.27 290.5,-2131.03 290.5,-2082 290.5,-2082 290.5,-2082 290.5,-1091.5 290.5,-1046.48 284.62,-1035.07 271.5,-992 268.81,-983.17 265.15,-973.83 261.53,-965.45"/>
<polygon fill="black" stroke="black" points="264.65,-963.84 257.38,-956.13 258.25,-966.69 264.65,-963.84"/>
</g>
<!-- norm1 -->
<g id="node3" class="node">
<title>norm1</title>
<polygon fill="darkorange" stroke="black" points="249,-2100 144,-2100 144,-2062 249,-2062 249,-2100"/>
<text text-anchor="middle" x="196.5" y="-2084.8" font-family="Times,serif" font-size="14.00">norm1 idx_2</text>
<text text-anchor="middle" x="196.5" y="-2069.8" font-family="Times,serif" font-size="14.00">LayerNorm</text>
</g>
<!-- permute&#45;&gt;norm1 -->
<g id="edge2" class="edge">
<title>permute&#45;&gt;norm1</title>
<path fill="none" stroke="black" d="M199.49,-2135.83C199.06,-2128.13 198.55,-2118.97 198.08,-2110.42"/>
<polygon fill="black" stroke="black" points="201.57,-2110.2 197.52,-2100.41 194.58,-2110.59 201.57,-2110.2"/>
</g>
<!-- permute_1 -->
<g id="node4" class="node">
<title>permute_1</title>
<polygon fill="white" stroke="black" points="260,-2026 125,-2026 125,-1988 260,-1988 260,-2026"/>
<text text-anchor="middle" x="192.5" y="-2010.8" font-family="Times,serif" font-size="14.00">permute_1 idx_3</text>
<text text-anchor="middle" x="192.5" y="-1995.8" font-family="Times,serif" font-size="14.00">MET permute</text>
</g>
<!-- norm1&#45;&gt;permute_1 -->
<g id="edge3" class="edge">
<title>norm1&#45;&gt;permute_1</title>
<path fill="none" stroke="black" d="M195.49,-2061.83C195.06,-2054.13 194.55,-2044.97 194.08,-2036.42"/>
<polygon fill="black" stroke="black" points="197.57,-2036.2 193.52,-2026.41 190.58,-2036.59 197.57,-2036.2"/>
</g>
<!-- conv1 -->
<g id="node5" class="node">
<title>conv1</title>
<polygon fill="red" stroke="black" points="262,-1952 119,-1952 119,-1839 262,-1839 262,-1952"/>
<text text-anchor="middle" x="190.5" y="-1936.8" font-family="Times,serif" font-size="14.00">conv1 idx_4</text>
<text text-anchor="middle" x="190.5" y="-1921.8" font-family="Times,serif" font-size="14.00">Conv2d</text>
<text text-anchor="middle" x="190.5" y="-1906.8" font-family="Times,serif" font-size="14.00">&#45;&#45;&#45;&#45;&#45;&#45;&#45;&#45;&#45;&#45;</text>
<text text-anchor="middle" x="190.5" y="-1891.8" font-family="Times,serif" font-size="14.00">kernel_size: (1, 1)</text>
<text text-anchor="middle" x="190.5" y="-1876.8" font-family="Times,serif" font-size="14.00">in_channels: 16</text>
<text text-anchor="middle" x="190.5" y="-1861.8" font-family="Times,serif" font-size="14.00">out_channels: 32</text>
<text text-anchor="middle" x="190.5" y="-1846.8" font-family="Times,serif" font-size="14.00">+ bias</text>
</g>
<!-- permute_1&#45;&gt;conv1 -->
<g id="edge4" class="edge">
<title>permute_1&#45;&gt;conv1</title>
<path fill="none" stroke="black" d="M192.17,-1987.92C192.04,-1980.69 191.88,-1971.89 191.71,-1962.63"/>
<polygon fill="black" stroke="black" points="195.2,-1962.39 191.52,-1952.46 188.21,-1962.52 195.2,-1962.39"/>
</g>
<!-- conv2 -->
<g id="node6" class="node">
<title>conv2</title>
<polygon fill="deepskyblue" stroke="black" points="259,-1803 116,-1803 116,-1690 259,-1690 259,-1803"/>
<text text-anchor="middle" x="187.5" y="-1787.8" font-family="Times,serif" font-size="14.00">conv2 idx_5</text>
<text text-anchor="middle" x="187.5" y="-1772.8" font-family="Times,serif" font-size="14.00">dwise Conv2d</text>
<text text-anchor="middle" x="187.5" y="-1757.8" font-family="Times,serif" font-size="14.00">&#45;&#45;&#45;&#45;&#45;&#45;&#45;&#45;&#45;&#45;</text>
<text text-anchor="middle" x="187.5" y="-1742.8" font-family="Times,serif" font-size="14.00">kernel_size: (3, 3)</text>
<text text-anchor="middle" x="187.5" y="-1727.8" font-family="Times,serif" font-size="14.00">channels: 32</text>
<text text-anchor="middle" x="187.5" y="-1712.8" font-family="Times,serif" font-size="14.00">exp_rate: 1</text>
<text text-anchor="middle" x="187.5" y="-1697.8" font-family="Times,serif" font-size="14.00">+ bias</text>
</g>
<!-- conv1&#45;&gt;conv2 -->
<g id="edge5" class="edge">
<title>conv1&#45;&gt;conv2</title>
<path fill="none" stroke="black" d="M189.37,-1838.93C189.19,-1830.51 189.02,-1821.76 188.84,-1813.16"/>
<polygon fill="black" stroke="black" points="192.34,-1813.08 188.64,-1803.15 185.34,-1813.22 192.34,-1813.08"/>
</g>
<!-- sg -->
<g id="node7" class="node">
<title>sg</title>
<polygon fill="white" stroke="black" points="236.5,-1654 136.5,-1654 136.5,-1601 236.5,-1601 236.5,-1654"/>
<text text-anchor="middle" x="186.5" y="-1638.8" font-family="Times,serif" font-size="14.00">sg idx_6</text>
<text text-anchor="middle" x="186.5" y="-1623.8" font-family="Times,serif" font-size="14.00">MOD sg</text>
<text text-anchor="middle" x="186.5" y="-1608.8" font-family="Times,serif" font-size="14.00">SimpleGate</text>
</g>
<!-- conv2&#45;&gt;sg -->
<g id="edge6" class="edge">
<title>conv2&#45;&gt;sg</title>
<path fill="none" stroke="black" d="M187.02,-1689.74C186.95,-1681.07 186.87,-1672.31 186.81,-1664.24"/>
<polygon fill="black" stroke="black" points="190.3,-1664.06 186.72,-1654.09 183.3,-1664.12 190.3,-1664.06"/>
</g>
<!-- sca_0 -->
<g id="node8" class="node">
<title>sca_0</title>
<polygon fill="darkgoldenrod" stroke="black" points="158,-1565 3,-1565 3,-1527 158,-1527 158,-1565"/>
<text text-anchor="middle" x="80.5" y="-1549.8" font-family="Times,serif" font-size="14.00">sca_0 idx_7</text>
<text text-anchor="middle" x="80.5" y="-1534.8" font-family="Times,serif" font-size="14.00">AdaptiveAvgPool2d</text>
</g>
<!-- sg&#45;&gt;sca_0 -->
<g id="edge7" class="edge">
<title>sg&#45;&gt;sca_0</title>
<path fill="none" stroke="black" d="M152.38,-1600.91C139.79,-1591.47 125.57,-1580.8 113.11,-1571.46"/>
<polygon fill="black" stroke="black" points="114.92,-1568.44 104.82,-1565.24 110.72,-1574.04 114.92,-1568.44"/>
</g>
<!-- mul -->
<g id="node10" class="node">
<title>mul</title>
<polygon fill="#bf3eff" stroke="black" points="123.5,-1342 37.5,-1342 37.5,-1304 123.5,-1304 123.5,-1342"/>
<text text-anchor="middle" x="80.5" y="-1326.8" font-family="Times,serif" font-size="14.00">mul idx_9</text>
<text text-anchor="middle" x="80.5" y="-1311.8" font-family="Times,serif" font-size="14.00">*</text>
</g>
<!-- sg&#45;&gt;mul -->
<g id="edge9" class="edge">
<title>sg&#45;&gt;mul</title>
<path fill="none" stroke="black" d="M190.69,-1600.68C197.06,-1552.91 204.3,-1449.15 161.5,-1378 154.07,-1365.65 142.6,-1355.53 130.6,-1347.53"/>
<polygon fill="black" stroke="black" points="132.17,-1344.38 121.83,-1342.08 128.48,-1350.33 132.17,-1344.38"/>
</g>
<!-- sca_1 -->
<g id="node9" class="node">
<title>sca_1</title>
<polygon fill="red" stroke="black" points="152,-1491 9,-1491 9,-1378 152,-1378 152,-1491"/>
<text text-anchor="middle" x="80.5" y="-1475.8" font-family="Times,serif" font-size="14.00">sca_1 idx_8</text>
<text text-anchor="middle" x="80.5" y="-1460.8" font-family="Times,serif" font-size="14.00">Conv2d</text>
<text text-anchor="middle" x="80.5" y="-1445.8" font-family="Times,serif" font-size="14.00">&#45;&#45;&#45;&#45;&#45;&#45;&#45;&#45;&#45;&#45;</text>
<text text-anchor="middle" x="80.5" y="-1430.8" font-family="Times,serif" font-size="14.00">kernel_size: (1, 1)</text>
<text text-anchor="middle" x="80.5" y="-1415.8" font-family="Times,serif" font-size="14.00">in_channels: 16</text>
<text text-anchor="middle" x="80.5" y="-1400.8" font-family="Times,serif" font-size="14.00">out_channels: 16</text>
<text text-anchor="middle" x="80.5" y="-1385.8" font-family="Times,serif" font-size="14.00">+ bias</text>
</g>
<!-- sca_0&#45;&gt;sca_1 -->
<g id="edge8" class="edge">
<title>sca_0&#45;&gt;sca_1</title>
<path fill="none" stroke="black" d="M80.5,-1526.92C80.5,-1519.69 80.5,-1510.89 80.5,-1501.63"/>
<polygon fill="black" stroke="black" points="84,-1501.46 80.5,-1491.46 77,-1501.46 84,-1501.46"/>
</g>
<!-- sca_1&#45;&gt;mul -->
<g id="edge10" class="edge">
<title>sca_1&#45;&gt;mul</title>
<path fill="none" stroke="black" d="M80.5,-1377.79C80.5,-1368.92 80.5,-1360.1 80.5,-1352.23"/>
<polygon fill="black" stroke="black" points="84,-1352.19 80.5,-1342.19 77,-1352.19 84,-1352.19"/>
</g>
<!-- conv3 -->
<g id="node11" class="node">
<title>conv3</title>
<polygon fill="red" stroke="black" points="151,-1268 8,-1268 8,-1155 151,-1155 151,-1268"/>
<text text-anchor="middle" x="79.5" y="-1252.8" font-family="Times,serif" font-size="14.00">conv3 idx_10</text>
<text text-anchor="middle" x="79.5" y="-1237.8" font-family="Times,serif" font-size="14.00">Conv2d</text>
<text text-anchor="middle" x="79.5" y="-1222.8" font-family="Times,serif" font-size="14.00">&#45;&#45;&#45;&#45;&#45;&#45;&#45;&#45;&#45;&#45;</text>
<text text-anchor="middle" x="79.5" y="-1207.8" font-family="Times,serif" font-size="14.00">kernel_size: (1, 1)</text>
<text text-anchor="middle" x="79.5" y="-1192.8" font-family="Times,serif" font-size="14.00">in_channels: 16</text>
<text text-anchor="middle" x="79.5" y="-1177.8" font-family="Times,serif" font-size="14.00">out_channels: 16</text>
<text text-anchor="middle" x="79.5" y="-1162.8" font-family="Times,serif" font-size="14.00">+ bias</text>
</g>
<!-- mul&#45;&gt;conv3 -->
<g id="edge11" class="edge">
<title>mul&#45;&gt;conv3</title>
<path fill="none" stroke="black" d="M80.33,-1303.92C80.27,-1296.69 80.19,-1287.89 80.1,-1278.63"/>
<polygon fill="black" stroke="black" points="83.6,-1278.43 80.01,-1268.46 76.6,-1278.49 83.6,-1278.43"/>
</g>
<!-- dropout1 -->
<g id="node12" class="node">
<title>dropout1</title>
<polygon fill="white" stroke="black" points="145,-1119 12,-1119 12,-1066 145,-1066 145,-1119"/>
<text text-anchor="middle" x="78.5" y="-1103.8" font-family="Times,serif" font-size="14.00">dropout1 idx_11</text>
<text text-anchor="middle" x="78.5" y="-1088.8" font-family="Times,serif" font-size="14.00">MOD dropout1</text>
<text text-anchor="middle" x="78.5" y="-1073.8" font-family="Times,serif" font-size="14.00">Identity</text>
</g>
<!-- conv3&#45;&gt;dropout1 -->
<g id="edge12" class="edge">
<title>conv3&#45;&gt;dropout1</title>
<path fill="none" stroke="black" d="M79.02,-1154.74C78.95,-1146.07 78.87,-1137.31 78.81,-1129.24"/>
<polygon fill="black" stroke="black" points="82.3,-1129.06 78.72,-1119.09 75.3,-1129.12 82.3,-1129.06"/>
</g>
<!-- mul_1 -->
<g id="node14" class="node">
<title>mul_1</title>
<polygon fill="#bf3eff" stroke="black" points="262.5,-1030 152.5,-1030 152.5,-992 262.5,-992 262.5,-1030"/>
<text text-anchor="middle" x="207.5" y="-1014.8" font-family="Times,serif" font-size="14.00">mul_1 idx_13</text>
<text text-anchor="middle" x="207.5" y="-999.8" font-family="Times,serif" font-size="14.00">*</text>
</g>
<!-- dropout1&#45;&gt;mul_1 -->
<g id="edge13" class="edge">
<title>dropout1&#45;&gt;mul_1</title>
<path fill="none" stroke="black" d="M120.03,-1065.91C135.79,-1056.19 153.66,-1045.18 169.12,-1035.66"/>
<polygon fill="black" stroke="black" points="171.23,-1038.47 177.9,-1030.24 167.56,-1032.51 171.23,-1038.47"/>
</g>
<!-- beta -->
<g id="node13" class="node">
<title>beta</title>
<polygon fill="white" stroke="black" points="262,-1111.5 163,-1111.5 163,-1073.5 262,-1073.5 262,-1111.5"/>
<text text-anchor="middle" x="212.5" y="-1096.3" font-family="Times,serif" font-size="14.00">beta idx_12</text>
<text text-anchor="middle" x="212.5" y="-1081.3" font-family="Times,serif" font-size="14.00">ATT </text>
</g>
<!-- beta&#45;&gt;mul_1 -->
<g id="edge14" class="edge">
<title>beta&#45;&gt;mul_1</title>
<path fill="none" stroke="black" d="M211.37,-1073.46C210.75,-1063.67 209.97,-1051.35 209.28,-1040.31"/>
<polygon fill="black" stroke="black" points="212.77,-1040 208.65,-1030.24 205.78,-1040.44 212.77,-1040"/>
</g>
<!-- mul_1&#45;&gt;add -->
<g id="edge16" class="edge">
<title>mul_1&#45;&gt;add</title>
<path fill="none" stroke="black" d="M217.85,-991.83C222.42,-983.79 227.91,-974.17 232.96,-965.29"/>
<polygon fill="black" stroke="black" points="236.11,-966.84 238.01,-956.41 230.02,-963.37 236.11,-966.84"/>
</g>
<!-- permute_2 -->
<g id="node16" class="node">
<title>permute_2</title>
<polygon fill="white" stroke="black" points="270.5,-882 126.5,-882 126.5,-844 270.5,-844 270.5,-882"/>
<text text-anchor="middle" x="198.5" y="-866.8" font-family="Times,serif" font-size="14.00">permute_2 idx_15</text>
<text text-anchor="middle" x="198.5" y="-851.8" font-family="Times,serif" font-size="14.00">MET permute</text>
</g>
<!-- add&#45;&gt;permute_2 -->
<g id="edge17" class="edge">
<title>add&#45;&gt;permute_2</title>
<path fill="none" stroke="black" d="M235.88,-917.83C230.18,-909.62 223.33,-899.76 217.06,-890.73"/>
<polygon fill="black" stroke="black" points="219.87,-888.63 211.29,-882.41 214.12,-892.62 219.87,-888.63"/>
</g>
<!-- add_1 -->
<g id="node25" class="node">
<title>add_1</title>
<polygon fill="yellow" stroke="black" points="311.5,-110 201.5,-110 201.5,-72 311.5,-72 311.5,-110"/>
<text text-anchor="middle" x="256.5" y="-94.8" font-family="Times,serif" font-size="14.00">add_1 idx_24</text>
<text text-anchor="middle" x="256.5" y="-79.8" font-family="Times,serif" font-size="14.00">+</text>
</g>
<!-- add&#45;&gt;add_1 -->
<g id="edge26" class="edge">
<title>add&#45;&gt;add_1</title>
<path fill="none" stroke="black" d="M260.83,-917.69C267.19,-907.54 274.62,-894.48 279.5,-882 294.77,-842.94 300.5,-831.94 300.5,-790 300.5,-790 300.5,-790 300.5,-245.5 300.5,-200.17 282.55,-150.12 269.58,-119.88"/>
<polygon fill="black" stroke="black" points="272.64,-118.15 265.4,-110.42 266.24,-120.98 272.64,-118.15"/>
</g>
<!-- norm2 -->
<g id="node17" class="node">
<title>norm2</title>
<polygon fill="darkorange" stroke="black" points="252.5,-808 138.5,-808 138.5,-770 252.5,-770 252.5,-808"/>
<text text-anchor="middle" x="195.5" y="-792.8" font-family="Times,serif" font-size="14.00">norm2 idx_16</text>
<text text-anchor="middle" x="195.5" y="-777.8" font-family="Times,serif" font-size="14.00">LayerNorm</text>
</g>
<!-- permute_2&#45;&gt;norm2 -->
<g id="edge18" class="edge">
<title>permute_2&#45;&gt;norm2</title>
<path fill="none" stroke="black" d="M197.74,-843.83C197.42,-836.13 197.04,-826.97 196.68,-818.42"/>
<polygon fill="black" stroke="black" points="200.18,-818.26 196.27,-808.41 193.19,-818.55 200.18,-818.26"/>
</g>
<!-- permute_3 -->
<g id="node18" class="node">
<title>permute_3</title>
<polygon fill="white" stroke="black" points="201.5,-734 57.5,-734 57.5,-696 201.5,-696 201.5,-734"/>
<text text-anchor="middle" x="129.5" y="-718.8" font-family="Times,serif" font-size="14.00">permute_3 idx_17</text>
<text text-anchor="middle" x="129.5" y="-703.8" font-family="Times,serif" font-size="14.00">MET permute</text>
</g>
<!-- norm2&#45;&gt;permute_3 -->
<g id="edge19" class="edge">
<title>norm2&#45;&gt;permute_3</title>
<path fill="none" stroke="black" d="M178.85,-769.83C171.09,-761.37 161.72,-751.15 153.24,-741.9"/>
<polygon fill="black" stroke="black" points="155.72,-739.42 146.38,-734.41 150.56,-744.15 155.72,-739.42"/>
</g>
<!-- conv4 -->
<g id="node19" class="node">
<title>conv4</title>
<polygon fill="red" stroke="black" points="168,-660 25,-660 25,-547 168,-547 168,-660"/>
<text text-anchor="middle" x="96.5" y="-644.8" font-family="Times,serif" font-size="14.00">conv4 idx_18</text>
<text text-anchor="middle" x="96.5" y="-629.8" font-family="Times,serif" font-size="14.00">Conv2d</text>
<text text-anchor="middle" x="96.5" y="-614.8" font-family="Times,serif" font-size="14.00">&#45;&#45;&#45;&#45;&#45;&#45;&#45;&#45;&#45;&#45;</text>
<text text-anchor="middle" x="96.5" y="-599.8" font-family="Times,serif" font-size="14.00">kernel_size: (1, 1)</text>
<text text-anchor="middle" x="96.5" y="-584.8" font-family="Times,serif" font-size="14.00">in_channels: 16</text>
<text text-anchor="middle" x="96.5" y="-569.8" font-family="Times,serif" font-size="14.00">out_channels: 32</text>
<text text-anchor="middle" x="96.5" y="-554.8" font-family="Times,serif" font-size="14.00">+ bias</text>
</g>
<!-- permute_3&#45;&gt;conv4 -->
<g id="edge20" class="edge">
<title>permute_3&#45;&gt;conv4</title>
<path fill="none" stroke="black" d="M124.05,-695.92C121.83,-688.54 119.11,-679.51 116.25,-670.04"/>
<polygon fill="black" stroke="black" points="119.6,-669.02 113.36,-660.46 112.9,-671.04 119.6,-669.02"/>
</g>
<!-- sg_1 -->
<g id="node20" class="node">
<title>sg_1</title>
<polygon fill="white" stroke="black" points="129.5,-511 29.5,-511 29.5,-458 129.5,-458 129.5,-511"/>
<text text-anchor="middle" x="79.5" y="-495.8" font-family="Times,serif" font-size="14.00">sg_1 idx_19</text>
<text text-anchor="middle" x="79.5" y="-480.8" font-family="Times,serif" font-size="14.00">MOD sg</text>
<text text-anchor="middle" x="79.5" y="-465.8" font-family="Times,serif" font-size="14.00">SimpleGate</text>
</g>
<!-- conv4&#45;&gt;sg_1 -->
<g id="edge21" class="edge">
<title>conv4&#45;&gt;sg_1</title>
<path fill="none" stroke="black" d="M88.4,-546.74C87.14,-538.07 85.87,-529.31 84.69,-521.24"/>
<polygon fill="black" stroke="black" points="88.12,-520.48 83.22,-511.09 81.19,-521.49 88.12,-520.48"/>
</g>
<!-- conv5 -->
<g id="node21" class="node">
<title>conv5</title>
<polygon fill="red" stroke="black" points="143,-422 0,-422 0,-309 143,-309 143,-422"/>
<text text-anchor="middle" x="71.5" y="-406.8" font-family="Times,serif" font-size="14.00">conv5 idx_20</text>
<text text-anchor="middle" x="71.5" y="-391.8" font-family="Times,serif" font-size="14.00">Conv2d</text>
<text text-anchor="middle" x="71.5" y="-376.8" font-family="Times,serif" font-size="14.00">&#45;&#45;&#45;&#45;&#45;&#45;&#45;&#45;&#45;&#45;</text>
<text text-anchor="middle" x="71.5" y="-361.8" font-family="Times,serif" font-size="14.00">kernel_size: (1, 1)</text>
<text text-anchor="middle" x="71.5" y="-346.8" font-family="Times,serif" font-size="14.00">in_channels: 16</text>
<text text-anchor="middle" x="71.5" y="-331.8" font-family="Times,serif" font-size="14.00">out_channels: 16</text>
<text text-anchor="middle" x="71.5" y="-316.8" font-family="Times,serif" font-size="14.00">+ bias</text>
</g>
<!-- sg_1&#45;&gt;conv5 -->
<g id="edge22" class="edge">
<title>sg_1&#45;&gt;conv5</title>
<path fill="none" stroke="black" d="M77.74,-457.82C77.22,-450.2 76.63,-441.48 76.01,-432.51"/>
<polygon fill="black" stroke="black" points="79.49,-432.07 75.32,-422.34 72.51,-432.55 79.49,-432.07"/>
</g>
<!-- dropout2 -->
<g id="node22" class="node">
<title>dropout2</title>
<polygon fill="white" stroke="black" points="134,-273 1,-273 1,-220 134,-220 134,-273"/>
<text text-anchor="middle" x="67.5" y="-257.8" font-family="Times,serif" font-size="14.00">dropout2 idx_21</text>
<text text-anchor="middle" x="67.5" y="-242.8" font-family="Times,serif" font-size="14.00">MOD dropout2</text>
<text text-anchor="middle" x="67.5" y="-227.8" font-family="Times,serif" font-size="14.00">Identity</text>
</g>
<!-- conv5&#45;&gt;dropout2 -->
<g id="edge23" class="edge">
<title>conv5&#45;&gt;dropout2</title>
<path fill="none" stroke="black" d="M69.59,-308.74C69.3,-300.07 69,-291.31 68.72,-283.24"/>
<polygon fill="black" stroke="black" points="72.21,-282.96 68.37,-273.09 65.22,-283.2 72.21,-282.96"/>
</g>
<!-- mul_2 -->
<g id="node24" class="node">
<title>mul_2</title>
<polygon fill="#bf3eff" stroke="black" points="267.5,-184 157.5,-184 157.5,-146 267.5,-146 267.5,-184"/>
<text text-anchor="middle" x="212.5" y="-168.8" font-family="Times,serif" font-size="14.00">mul_2 idx_23</text>
<text text-anchor="middle" x="212.5" y="-153.8" font-family="Times,serif" font-size="14.00">*</text>
</g>
<!-- dropout2&#45;&gt;mul_2 -->
<g id="edge24" class="edge">
<title>dropout2&#45;&gt;mul_2</title>
<path fill="none" stroke="black" d="M114.18,-219.91C132.23,-210.01 152.73,-198.77 170.33,-189.12"/>
<polygon fill="black" stroke="black" points="172.15,-192.12 179.23,-184.24 168.78,-185.98 172.15,-192.12"/>
</g>
<!-- gamma -->
<g id="node23" class="node">
<title>gamma</title>
<polygon fill="white" stroke="black" points="272.5,-265.5 152.5,-265.5 152.5,-227.5 272.5,-227.5 272.5,-265.5"/>
<text text-anchor="middle" x="212.5" y="-250.3" font-family="Times,serif" font-size="14.00">gamma idx_22</text>
<text text-anchor="middle" x="212.5" y="-235.3" font-family="Times,serif" font-size="14.00">ATT </text>
</g>
<!-- gamma&#45;&gt;mul_2 -->
<g id="edge25" class="edge">
<title>gamma&#45;&gt;mul_2</title>
<path fill="none" stroke="black" d="M212.5,-227.46C212.5,-217.67 212.5,-205.35 212.5,-194.31"/>
<polygon fill="black" stroke="black" points="216,-194.24 212.5,-184.24 209,-194.24 216,-194.24"/>
</g>
<!-- mul_2&#45;&gt;add_1 -->
<g id="edge27" class="edge">
<title>mul_2&#45;&gt;add_1</title>
<path fill="none" stroke="black" d="M223.6,-145.83C228.57,-137.71 234.52,-127.96 239.99,-119.01"/>
<polygon fill="black" stroke="black" points="243.02,-120.77 245.25,-110.41 237.05,-117.12 243.02,-120.77"/>
</g>
<!-- output -->
<g id="node26" class="node">
<title>output</title>
<ellipse fill="orange" stroke="black" cx="256.5" cy="-18" rx="41.69" ry="18"/>
<text text-anchor="middle" x="256.5" y="-14.3" font-family="Times,serif" font-size="14.00">output</text>
</g>
<!-- add_1&#45;&gt;output -->
<g id="edge28" class="edge">
<title>add_1&#45;&gt;output</title>
<path fill="none" stroke="black" d="M256.5,-71.72C256.5,-63.97 256.5,-54.79 256.5,-46.27"/>
<polygon fill="black" stroke="black" points="260,-46 256.5,-36 253,-46 260,-46"/>
</g>
</g>
</svg>
