<?xml version="1.0" encoding="UTF-8" standalone="no"?>
<!DOCTYPE svg PUBLIC "-//W3C//DTD SVG 1.1//EN"
 "http://www.w3.org/Graphics/SVG/1.1/DTD/svg11.dtd">
<!-- Generated by graphviz version 2.43.0 (0)
 -->
<!-- Title: %3 Pages: 1 -->
<svg width="544pt" height="3203pt"
 viewBox="0.00 0.00 544.29 3203.00" xmlns="http://www.w3.org/2000/svg" xmlns:xlink="http://www.w3.org/1999/xlink">
<g id="graph0" class="graph" transform="scale(1 1) rotate(0) translate(4 3199)">
<title>%3</title>
<polygon fill="white" stroke="transparent" points="-4,4 -4,-3199 540.29,-3199 540.29,4 -4,4"/>
<!-- inp -->
<g id="node1" class="node">
<title>inp</title>
<polygon fill="green" stroke="black" points="431,-3149 536.08,-3183.5 325.92,-3183.5 431,-3149"/>
<text text-anchor="middle" x="431" y="-3168.3" font-family="Times,serif" font-size="14.00">inp idx_0</text>
</g>
<!-- intro -->
<g id="node2" class="node">
<title>intro</title>
<polygon fill="red" stroke="black" points="452.5,-3113 309.5,-3113 309.5,-3000 452.5,-3000 452.5,-3113"/>
<text text-anchor="middle" x="381" y="-3097.8" font-family="Times,serif" font-size="14.00">intro idx_1</text>
<text text-anchor="middle" x="381" y="-3082.8" font-family="Times,serif" font-size="14.00">Conv2d</text>
<text text-anchor="middle" x="381" y="-3067.8" font-family="Times,serif" font-size="14.00">&#45;&#45;&#45;&#45;&#45;&#45;&#45;&#45;&#45;&#45;</text>
<text text-anchor="middle" x="381" y="-3052.8" font-family="Times,serif" font-size="14.00">kernel_size: (3, 3)</text>
<text text-anchor="middle" x="381" y="-3037.8" font-family="Times,serif" font-size="14.00">in_channels: 3</text>
<text text-anchor="middle" x="381" y="-3022.8" font-family="Times,serif" font-size="14.00">out_channels: 16</text>
<text text-anchor="middle" x="381" y="-3007.8" font-family="Times,serif" font-size="14.00">+ bias</text>
</g>
<!-- inp&#45;&gt;intro -->
<g id="edge1" class="edge">
<title>inp&#45;&gt;intro</title>
<path fill="none" stroke="black" d="M422.52,-3151.75C418.85,-3143.43 414.33,-3133.17 409.64,-3122.51"/>
<polygon fill="black" stroke="black" points="412.72,-3120.82 405.49,-3113.08 406.31,-3123.65 412.72,-3120.82"/>
</g>
<!-- add_4 -->
<g id="node29" class="node">
<title>add_4</title>
<polygon fill="yellow" stroke="black" points="484,-110 374,-110 374,-72 484,-72 484,-110"/>
<text text-anchor="middle" x="429" y="-94.8" font-family="Times,serif" font-size="14.00">add_4 idx_28</text>
<text text-anchor="middle" x="429" y="-79.8" font-family="Times,serif" font-size="14.00">+</text>
</g>
<!-- inp&#45;&gt;add_4 -->
<g id="edge33" class="edge">
<title>inp&#45;&gt;add_4</title>
<path fill="none" stroke="black" d="M443.02,-3152.7C449.7,-3141.65 457.53,-3127.03 462,-3113 485.71,-3038.51 484,-3016.67 484,-2938.5 484,-2938.5 484,-2938.5 484,-320.5 484,-242.21 485.29,-220.09 460,-146 456.82,-136.68 451.98,-127.16 447.06,-118.76"/>
<polygon fill="black" stroke="black" points="449.99,-116.84 441.77,-110.15 444.02,-120.5 449.99,-116.84"/>
</g>
<!-- encoders_0_0 -->
<g id="node3" class="node">
<title>encoders_0_0</title>
<polygon fill="white" stroke="black" points="455.5,-2964 300.5,-2964 300.5,-2911 455.5,-2911 455.5,-2964"/>
<text text-anchor="middle" x="378" y="-2948.8" font-family="Times,serif" font-size="14.00">encoders_0_0 idx_2</text>
<text text-anchor="middle" x="378" y="-2933.8" font-family="Times,serif" font-size="14.00">MOD encoders.0.0</text>
<text text-anchor="middle" x="378" y="-2918.8" font-family="Times,serif" font-size="14.00">NAFBlock</text>
</g>
<!-- intro&#45;&gt;encoders_0_0 -->
<g id="edge2" class="edge">
<title>intro&#45;&gt;encoders_0_0</title>
<path fill="none" stroke="black" d="M379.57,-2999.74C379.35,-2991.07 379.12,-2982.31 378.92,-2974.24"/>
<polygon fill="black" stroke="black" points="382.41,-2973.99 378.66,-2964.09 375.41,-2974.17 382.41,-2973.99"/>
</g>
<!-- downs_0 -->
<g id="node4" class="node">
<title>downs_0</title>
<polygon fill="red" stroke="black" points="380.5,-2875 237.5,-2875 237.5,-2747 380.5,-2747 380.5,-2875"/>
<text text-anchor="middle" x="309" y="-2859.8" font-family="Times,serif" font-size="14.00">downs_0 idx_3</text>
<text text-anchor="middle" x="309" y="-2844.8" font-family="Times,serif" font-size="14.00">Conv2d</text>
<text text-anchor="middle" x="309" y="-2829.8" font-family="Times,serif" font-size="14.00">&#45;&#45;&#45;&#45;&#45;&#45;&#45;&#45;&#45;&#45;</text>
<text text-anchor="middle" x="309" y="-2814.8" font-family="Times,serif" font-size="14.00">kernel_size: (2, 2)</text>
<text text-anchor="middle" x="309" y="-2799.8" font-family="Times,serif" font-size="14.00">in_channels: 16</text>
<text text-anchor="middle" x="309" y="-2784.8" font-family="Times,serif" font-size="14.00">out_channels: 32</text>
<text text-anchor="middle" x="309" y="-2769.8" font-family="Times,serif" font-size="14.00">stride: (2, 2)</text>
<text text-anchor="middle" x="309" y="-2754.8" font-family="Times,serif" font-size="14.00">+ bias</text>
</g>
<!-- encoders_0_0&#45;&gt;downs_0 -->
<g id="edge3" class="edge">
<title>encoders_0_0&#45;&gt;downs_0</title>
<path fill="none" stroke="black" d="M363.7,-2910.7C359.26,-2902.69 354.13,-2893.43 348.82,-2883.85"/>
<polygon fill="black" stroke="black" points="351.83,-2882.05 343.92,-2875 345.7,-2885.45 351.83,-2882.05"/>
</g>
<!-- add_3 -->
<g id="node26" class="node">
<title>add_3</title>
<polygon fill="yellow" stroke="black" points="429,-422 319,-422 319,-384 429,-384 429,-422"/>
<text text-anchor="middle" x="374" y="-406.8" font-family="Times,serif" font-size="14.00">add_3 idx_25</text>
<text text-anchor="middle" x="374" y="-391.8" font-family="Times,serif" font-size="14.00">+</text>
</g>
<!-- encoders_0_0&#45;&gt;add_3 -->
<g id="edge29" class="edge">
<title>encoders_0_0&#45;&gt;add_3</title>
<path fill="none" stroke="black" d="M383.77,-2911C393.47,-2865.81 412,-2768.61 412,-2685.5 412,-2685.5 412,-2685.5 412,-602.5 412,-540.76 394.05,-470.12 382.82,-431.97"/>
<polygon fill="black" stroke="black" points="386.09,-430.68 379.85,-422.11 379.38,-432.7 386.09,-430.68"/>
</g>
<!-- encoders_1_0 -->
<g id="node5" class="node">
<title>encoders_1_0</title>
<polygon fill="white" stroke="black" points="383.5,-2711 228.5,-2711 228.5,-2658 383.5,-2658 383.5,-2711"/>
<text text-anchor="middle" x="306" y="-2695.8" font-family="Times,serif" font-size="14.00">encoders_1_0 idx_4</text>
<text text-anchor="middle" x="306" y="-2680.8" font-family="Times,serif" font-size="14.00">MOD encoders.1.0</text>
<text text-anchor="middle" x="306" y="-2665.8" font-family="Times,serif" font-size="14.00">NAFBlock</text>
</g>
<!-- downs_0&#45;&gt;encoders_1_0 -->
<g id="edge4" class="edge">
<title>downs_0&#45;&gt;encoders_1_0</title>
<path fill="none" stroke="black" d="M307.47,-2746.66C307.26,-2737.88 307.05,-2729.14 306.86,-2721.13"/>
<polygon fill="black" stroke="black" points="310.36,-2720.98 306.62,-2711.06 303.36,-2721.15 310.36,-2720.98"/>
</g>
<!-- downs_1 -->
<g id="node6" class="node">
<title>downs_1</title>
<polygon fill="red" stroke="black" points="308.5,-2622 165.5,-2622 165.5,-2494 308.5,-2494 308.5,-2622"/>
<text text-anchor="middle" x="237" y="-2606.8" font-family="Times,serif" font-size="14.00">downs_1 idx_5</text>
<text text-anchor="middle" x="237" y="-2591.8" font-family="Times,serif" font-size="14.00">Conv2d</text>
<text text-anchor="middle" x="237" y="-2576.8" font-family="Times,serif" font-size="14.00">&#45;&#45;&#45;&#45;&#45;&#45;&#45;&#45;&#45;&#45;</text>
<text text-anchor="middle" x="237" y="-2561.8" font-family="Times,serif" font-size="14.00">kernel_size: (2, 2)</text>
<text text-anchor="middle" x="237" y="-2546.8" font-family="Times,serif" font-size="14.00">in_channels: 32</text>
<text text-anchor="middle" x="237" y="-2531.8" font-family="Times,serif" font-size="14.00">out_channels: 64</text>
<text text-anchor="middle" x="237" y="-2516.8" font-family="Times,serif" font-size="14.00">stride: (2, 2)</text>
<text text-anchor="middle" x="237" y="-2501.8" font-family="Times,serif" font-size="14.00">+ bias</text>
</g>
<!-- encoders_1_0&#45;&gt;downs_1 -->
<g id="edge5" class="edge">
<title>encoders_1_0&#45;&gt;downs_1</title>
<path fill="none" stroke="black" d="M291.7,-2657.7C287.26,-2649.69 282.13,-2640.43 276.82,-2630.85"/>
<polygon fill="black" stroke="black" points="279.83,-2629.05 271.92,-2622 273.7,-2632.45 279.83,-2629.05"/>
</g>
<!-- add_2 -->
<g id="node22" class="node">
<title>add_2</title>
<polygon fill="yellow" stroke="black" points="357,-823 247,-823 247,-785 357,-785 357,-823"/>
<text text-anchor="middle" x="302" y="-807.8" font-family="Times,serif" font-size="14.00">add_2 idx_21</text>
<text text-anchor="middle" x="302" y="-792.8" font-family="Times,serif" font-size="14.00">+</text>
</g>
<!-- encoders_1_0&#45;&gt;add_2 -->
<g id="edge24" class="edge">
<title>encoders_1_0&#45;&gt;add_2</title>
<path fill="none" stroke="black" d="M311.77,-2658C321.47,-2612.81 340,-2515.61 340,-2432.5 340,-2432.5 340,-2432.5 340,-1003.5 340,-941.76 322.05,-871.12 310.82,-832.97"/>
<polygon fill="black" stroke="black" points="314.09,-831.68 307.85,-823.11 307.38,-833.7 314.09,-831.68"/>
</g>
<!-- encoders_2_0 -->
<g id="node7" class="node">
<title>encoders_2_0</title>
<polygon fill="white" stroke="black" points="311.5,-2458 156.5,-2458 156.5,-2405 311.5,-2405 311.5,-2458"/>
<text text-anchor="middle" x="234" y="-2442.8" font-family="Times,serif" font-size="14.00">encoders_2_0 idx_6</text>
<text text-anchor="middle" x="234" y="-2427.8" font-family="Times,serif" font-size="14.00">MOD encoders.2.0</text>
<text text-anchor="middle" x="234" y="-2412.8" font-family="Times,serif" font-size="14.00">NAFBlock</text>
</g>
<!-- downs_1&#45;&gt;encoders_2_0 -->
<g id="edge6" class="edge">
<title>downs_1&#45;&gt;encoders_2_0</title>
<path fill="none" stroke="black" d="M235.47,-2493.66C235.26,-2484.88 235.05,-2476.14 234.86,-2468.13"/>
<polygon fill="black" stroke="black" points="238.36,-2467.98 234.62,-2458.06 231.36,-2468.15 238.36,-2467.98"/>
</g>
<!-- downs_2 -->
<g id="node8" class="node">
<title>downs_2</title>
<polygon fill="red" stroke="black" points="238,-2369 92,-2369 92,-2241 238,-2241 238,-2369"/>
<text text-anchor="middle" x="165" y="-2353.8" font-family="Times,serif" font-size="14.00">downs_2 idx_7</text>
<text text-anchor="middle" x="165" y="-2338.8" font-family="Times,serif" font-size="14.00">Conv2d</text>
<text text-anchor="middle" x="165" y="-2323.8" font-family="Times,serif" font-size="14.00">&#45;&#45;&#45;&#45;&#45;&#45;&#45;&#45;&#45;&#45;</text>
<text text-anchor="middle" x="165" y="-2308.8" font-family="Times,serif" font-size="14.00">kernel_size: (2, 2)</text>
<text text-anchor="middle" x="165" y="-2293.8" font-family="Times,serif" font-size="14.00">in_channels: 64</text>
<text text-anchor="middle" x="165" y="-2278.8" font-family="Times,serif" font-size="14.00">out_channels: 128</text>
<text text-anchor="middle" x="165" y="-2263.8" font-family="Times,serif" font-size="14.00">stride: (2, 2)</text>
<text text-anchor="middle" x="165" y="-2248.8" font-family="Times,serif" font-size="14.00">+ bias</text>
</g>
<!-- encoders_2_0&#45;&gt;downs_2 -->
<g id="edge7" class="edge">
<title>encoders_2_0&#45;&gt;downs_2</title>
<path fill="none" stroke="black" d="M219.7,-2404.7C215.26,-2396.69 210.13,-2387.43 204.82,-2377.85"/>
<polygon fill="black" stroke="black" points="207.83,-2376.05 199.92,-2369 201.7,-2379.45 207.83,-2376.05"/>
</g>
<!-- add_1 -->
<g id="node18" class="node">
<title>add_1</title>
<polygon fill="yellow" stroke="black" points="285,-1224 175,-1224 175,-1186 285,-1186 285,-1224"/>
<text text-anchor="middle" x="230" y="-1208.8" font-family="Times,serif" font-size="14.00">add_1 idx_17</text>
<text text-anchor="middle" x="230" y="-1193.8" font-family="Times,serif" font-size="14.00">+</text>
</g>
<!-- encoders_2_0&#45;&gt;add_1 -->
<g id="edge19" class="edge">
<title>encoders_2_0&#45;&gt;add_1</title>
<path fill="none" stroke="black" d="M239.77,-2405C249.47,-2359.81 268,-2262.61 268,-2179.5 268,-2179.5 268,-2179.5 268,-1404.5 268,-1342.76 250.05,-1272.12 238.82,-1233.97"/>
<polygon fill="black" stroke="black" points="242.09,-1232.68 235.85,-1224.11 235.38,-1234.7 242.09,-1232.68"/>
</g>
<!-- encoders_3_0 -->
<g id="node9" class="node">
<title>encoders_3_0</title>
<polygon fill="white" stroke="black" points="239.5,-2205 84.5,-2205 84.5,-2152 239.5,-2152 239.5,-2205"/>
<text text-anchor="middle" x="162" y="-2189.8" font-family="Times,serif" font-size="14.00">encoders_3_0 idx_8</text>
<text text-anchor="middle" x="162" y="-2174.8" font-family="Times,serif" font-size="14.00">MOD encoders.3.0</text>
<text text-anchor="middle" x="162" y="-2159.8" font-family="Times,serif" font-size="14.00">NAFBlock</text>
</g>
<!-- downs_2&#45;&gt;encoders_3_0 -->
<g id="edge8" class="edge">
<title>downs_2&#45;&gt;encoders_3_0</title>
<path fill="none" stroke="black" d="M163.47,-2240.66C163.26,-2231.88 163.05,-2223.14 162.86,-2215.13"/>
<polygon fill="black" stroke="black" points="166.36,-2214.98 162.62,-2205.06 159.36,-2215.15 166.36,-2214.98"/>
</g>
<!-- downs_3 -->
<g id="node10" class="node">
<title>downs_3</title>
<polygon fill="red" stroke="black" points="163,-2116 17,-2116 17,-1988 163,-1988 163,-2116"/>
<text text-anchor="middle" x="90" y="-2100.8" font-family="Times,serif" font-size="14.00">downs_3 idx_9</text>
<text text-anchor="middle" x="90" y="-2085.8" font-family="Times,serif" font-size="14.00">Conv2d</text>
<text text-anchor="middle" x="90" y="-2070.8" font-family="Times,serif" font-size="14.00">&#45;&#45;&#45;&#45;&#45;&#45;&#45;&#45;&#45;&#45;</text>
<text text-anchor="middle" x="90" y="-2055.8" font-family="Times,serif" font-size="14.00">kernel_size: (2, 2)</text>
<text text-anchor="middle" x="90" y="-2040.8" font-family="Times,serif" font-size="14.00">in_channels: 128</text>
<text text-anchor="middle" x="90" y="-2025.8" font-family="Times,serif" font-size="14.00">out_channels: 256</text>
<text text-anchor="middle" x="90" y="-2010.8" font-family="Times,serif" font-size="14.00">stride: (2, 2)</text>
<text text-anchor="middle" x="90" y="-1995.8" font-family="Times,serif" font-size="14.00">+ bias</text>
</g>
<!-- encoders_3_0&#45;&gt;downs_3 -->
<g id="edge9" class="edge">
<title>encoders_3_0&#45;&gt;downs_3</title>
<path fill="none" stroke="black" d="M147.08,-2151.7C142.45,-2143.69 137.09,-2134.43 131.55,-2124.85"/>
<polygon fill="black" stroke="black" points="134.47,-2122.91 126.44,-2116 128.41,-2126.41 134.47,-2122.91"/>
</g>
<!-- add -->
<g id="node14" class="node">
<title>add</title>
<polygon fill="yellow" stroke="black" points="205,-1625 111,-1625 111,-1587 205,-1587 205,-1625"/>
<text text-anchor="middle" x="158" y="-1609.8" font-family="Times,serif" font-size="14.00">add idx_13</text>
<text text-anchor="middle" x="158" y="-1594.8" font-family="Times,serif" font-size="14.00">+</text>
</g>
<!-- encoders_3_0&#45;&gt;add -->
<g id="edge14" class="edge">
<title>encoders_3_0&#45;&gt;add</title>
<path fill="none" stroke="black" d="M167.77,-2152C177.47,-2106.81 196,-2009.61 196,-1926.5 196,-1926.5 196,-1926.5 196,-1805.5 196,-1743.76 178.05,-1673.12 166.82,-1634.97"/>
<polygon fill="black" stroke="black" points="170.09,-1633.68 163.85,-1625.11 163.38,-1635.7 170.09,-1633.68"/>
</g>
<!-- middle_blks_0 -->
<g id="node11" class="node">
<title>middle_blks_0</title>
<polygon fill="white" stroke="black" points="168,-1952 0,-1952 0,-1899 168,-1899 168,-1952"/>
<text text-anchor="middle" x="84" y="-1936.8" font-family="Times,serif" font-size="14.00">middle_blks_0 idx_10</text>
<text text-anchor="middle" x="84" y="-1921.8" font-family="Times,serif" font-size="14.00">MOD middle_blks.0</text>
<text text-anchor="middle" x="84" y="-1906.8" font-family="Times,serif" font-size="14.00">NAFBlock</text>
</g>
<!-- downs_3&#45;&gt;middle_blks_0 -->
<g id="edge10" class="edge">
<title>downs_3&#45;&gt;middle_blks_0</title>
<path fill="none" stroke="black" d="M86.95,-1987.66C86.52,-1978.88 86.1,-1970.14 85.72,-1962.13"/>
<polygon fill="black" stroke="black" points="89.21,-1961.88 85.23,-1952.06 82.22,-1962.22 89.21,-1961.88"/>
</g>
<!-- ups_0_0 -->
<g id="node12" class="node">
<title>ups_0_0</title>
<polygon fill="red" stroke="black" points="162,-1863 16,-1863 16,-1750 162,-1750 162,-1863"/>
<text text-anchor="middle" x="89" y="-1847.8" font-family="Times,serif" font-size="14.00">ups_0_0 idx_11</text>
<text text-anchor="middle" x="89" y="-1832.8" font-family="Times,serif" font-size="14.00">Conv2d</text>
<text text-anchor="middle" x="89" y="-1817.8" font-family="Times,serif" font-size="14.00">&#45;&#45;&#45;&#45;&#45;&#45;&#45;&#45;&#45;&#45;</text>
<text text-anchor="middle" x="89" y="-1802.8" font-family="Times,serif" font-size="14.00">kernel_size: (1, 1)</text>
<text text-anchor="middle" x="89" y="-1787.8" font-family="Times,serif" font-size="14.00">in_channels: 256</text>
<text text-anchor="middle" x="89" y="-1772.8" font-family="Times,serif" font-size="14.00">out_channels: 512</text>
<text text-anchor="middle" x="89" y="-1757.8" font-family="Times,serif" font-size="14.00">no bias</text>
</g>
<!-- middle_blks_0&#45;&gt;ups_0_0 -->
<g id="edge11" class="edge">
<title>middle_blks_0&#45;&gt;ups_0_0</title>
<path fill="none" stroke="black" d="M85.1,-1898.82C85.42,-1891.2 85.8,-1882.48 86.18,-1873.51"/>
<polygon fill="black" stroke="black" points="89.68,-1873.48 86.61,-1863.34 82.69,-1873.18 89.68,-1873.48"/>
</g>
<!-- ups_0_1 -->
<g id="node13" class="node">
<title>ups_0_1</title>
<polygon fill="white" stroke="black" points="159.5,-1714 34.5,-1714 34.5,-1661 159.5,-1661 159.5,-1714"/>
<text text-anchor="middle" x="97" y="-1698.8" font-family="Times,serif" font-size="14.00">ups_0_1 idx_12</text>
<text text-anchor="middle" x="97" y="-1683.8" font-family="Times,serif" font-size="14.00">MOD ups.0.1</text>
<text text-anchor="middle" x="97" y="-1668.8" font-family="Times,serif" font-size="14.00">PixelShuffle</text>
</g>
<!-- ups_0_0&#45;&gt;ups_0_1 -->
<g id="edge12" class="edge">
<title>ups_0_0&#45;&gt;ups_0_1</title>
<path fill="none" stroke="black" d="M92.81,-1749.74C93.41,-1741.07 94,-1732.31 94.56,-1724.24"/>
<polygon fill="black" stroke="black" points="98.06,-1724.3 95.25,-1714.09 91.08,-1723.82 98.06,-1724.3"/>
</g>
<!-- ups_0_1&#45;&gt;add -->
<g id="edge13" class="edge">
<title>ups_0_1&#45;&gt;add</title>
<path fill="none" stroke="black" d="M116.64,-1660.91C123.39,-1652.1 130.97,-1642.23 137.77,-1633.36"/>
<polygon fill="black" stroke="black" points="140.69,-1635.3 144.01,-1625.24 135.14,-1631.04 140.69,-1635.3"/>
</g>
<!-- decoders_0_0 -->
<g id="node15" class="node">
<title>decoders_0_0</title>
<polygon fill="white" stroke="black" points="240,-1551 76,-1551 76,-1498 240,-1498 240,-1551"/>
<text text-anchor="middle" x="158" y="-1535.8" font-family="Times,serif" font-size="14.00">decoders_0_0 idx_14</text>
<text text-anchor="middle" x="158" y="-1520.8" font-family="Times,serif" font-size="14.00">MOD decoders.0.0</text>
<text text-anchor="middle" x="158" y="-1505.8" font-family="Times,serif" font-size="14.00">NAFBlock</text>
</g>
<!-- add&#45;&gt;decoders_0_0 -->
<g id="edge15" class="edge">
<title>add&#45;&gt;decoders_0_0</title>
<path fill="none" stroke="black" d="M158,-1586.96C158,-1579.32 158,-1570.14 158,-1561.23"/>
<polygon fill="black" stroke="black" points="161.5,-1561 158,-1551 154.5,-1561 161.5,-1561"/>
</g>
<!-- ups_1_0 -->
<g id="node16" class="node">
<title>ups_1_0</title>
<polygon fill="red" stroke="black" points="236,-1462 90,-1462 90,-1349 236,-1349 236,-1462"/>
<text text-anchor="middle" x="163" y="-1446.8" font-family="Times,serif" font-size="14.00">ups_1_0 idx_15</text>
<text text-anchor="middle" x="163" y="-1431.8" font-family="Times,serif" font-size="14.00">Conv2d</text>
<text text-anchor="middle" x="163" y="-1416.8" font-family="Times,serif" font-size="14.00">&#45;&#45;&#45;&#45;&#45;&#45;&#45;&#45;&#45;&#45;</text>
<text text-anchor="middle" x="163" y="-1401.8" font-family="Times,serif" font-size="14.00">kernel_size: (1, 1)</text>
<text text-anchor="middle" x="163" y="-1386.8" font-family="Times,serif" font-size="14.00">in_channels: 128</text>
<text text-anchor="middle" x="163" y="-1371.8" font-family="Times,serif" font-size="14.00">out_channels: 256</text>
<text text-anchor="middle" x="163" y="-1356.8" font-family="Times,serif" font-size="14.00">no bias</text>
</g>
<!-- decoders_0_0&#45;&gt;ups_1_0 -->
<g id="edge16" class="edge">
<title>decoders_0_0&#45;&gt;ups_1_0</title>
<path fill="none" stroke="black" d="M159.1,-1497.82C159.42,-1490.2 159.8,-1481.48 160.18,-1472.51"/>
<polygon fill="black" stroke="black" points="163.68,-1472.48 160.61,-1462.34 156.69,-1472.18 163.68,-1472.48"/>
</g>
<!-- ups_1_1 -->
<g id="node17" class="node">
<title>ups_1_1</title>
<polygon fill="white" stroke="black" points="234.5,-1313 109.5,-1313 109.5,-1260 234.5,-1260 234.5,-1313"/>
<text text-anchor="middle" x="172" y="-1297.8" font-family="Times,serif" font-size="14.00">ups_1_1 idx_16</text>
<text text-anchor="middle" x="172" y="-1282.8" font-family="Times,serif" font-size="14.00">MOD ups.1.1</text>
<text text-anchor="middle" x="172" y="-1267.8" font-family="Times,serif" font-size="14.00">PixelShuffle</text>
</g>
<!-- ups_1_0&#45;&gt;ups_1_1 -->
<g id="edge17" class="edge">
<title>ups_1_0&#45;&gt;ups_1_1</title>
<path fill="none" stroke="black" d="M167.29,-1348.74C167.96,-1340.07 168.63,-1331.31 169.25,-1323.24"/>
<polygon fill="black" stroke="black" points="172.75,-1323.32 170.03,-1313.09 165.78,-1322.79 172.75,-1323.32"/>
</g>
<!-- ups_1_1&#45;&gt;add_1 -->
<g id="edge18" class="edge">
<title>ups_1_1&#45;&gt;add_1</title>
<path fill="none" stroke="black" d="M190.67,-1259.91C197.1,-1251.1 204.3,-1241.23 210.77,-1232.36"/>
<polygon fill="black" stroke="black" points="213.63,-1234.38 216.69,-1224.24 207.97,-1230.25 213.63,-1234.38"/>
</g>
<!-- decoders_1_0 -->
<g id="node19" class="node">
<title>decoders_1_0</title>
<polygon fill="white" stroke="black" points="312,-1150 148,-1150 148,-1097 312,-1097 312,-1150"/>
<text text-anchor="middle" x="230" y="-1134.8" font-family="Times,serif" font-size="14.00">decoders_1_0 idx_18</text>
<text text-anchor="middle" x="230" y="-1119.8" font-family="Times,serif" font-size="14.00">MOD decoders.1.0</text>
<text text-anchor="middle" x="230" y="-1104.8" font-family="Times,serif" font-size="14.00">NAFBlock</text>
</g>
<!-- add_1&#45;&gt;decoders_1_0 -->
<g id="edge20" class="edge">
<title>add_1&#45;&gt;decoders_1_0</title>
<path fill="none" stroke="black" d="M230,-1185.96C230,-1178.32 230,-1169.14 230,-1160.23"/>
<polygon fill="black" stroke="black" points="233.5,-1160 230,-1150 226.5,-1160 233.5,-1160"/>
</g>
<!-- ups_2_0 -->
<g id="node20" class="node">
<title>ups_2_0</title>
<polygon fill="red" stroke="black" points="307,-1061 161,-1061 161,-948 307,-948 307,-1061"/>
<text text-anchor="middle" x="234" y="-1045.8" font-family="Times,serif" font-size="14.00">ups_2_0 idx_19</text>
<text text-anchor="middle" x="234" y="-1030.8" font-family="Times,serif" font-size="14.00">Conv2d</text>
<text text-anchor="middle" x="234" y="-1015.8" font-family="Times,serif" font-size="14.00">&#45;&#45;&#45;&#45;&#45;&#45;&#45;&#45;&#45;&#45;</text>
<text text-anchor="middle" x="234" y="-1000.8" font-family="Times,serif" font-size="14.00">kernel_size: (1, 1)</text>
<text text-anchor="middle" x="234" y="-985.8" font-family="Times,serif" font-size="14.00">in_channels: 64</text>
<text text-anchor="middle" x="234" y="-970.8" font-family="Times,serif" font-size="14.00">out_channels: 128</text>
<text text-anchor="middle" x="234" y="-955.8" font-family="Times,serif" font-size="14.00">no bias</text>
</g>
<!-- decoders_1_0&#45;&gt;ups_2_0 -->
<g id="edge21" class="edge">
<title>decoders_1_0&#45;&gt;ups_2_0</title>
<path fill="none" stroke="black" d="M230.88,-1096.82C231.14,-1089.2 231.44,-1080.48 231.74,-1071.51"/>
<polygon fill="black" stroke="black" points="235.25,-1071.45 232.09,-1061.34 228.25,-1071.21 235.25,-1071.45"/>
</g>
<!-- ups_2_1 -->
<g id="node21" class="node">
<title>ups_2_1</title>
<polygon fill="white" stroke="black" points="304.5,-912 179.5,-912 179.5,-859 304.5,-859 304.5,-912"/>
<text text-anchor="middle" x="242" y="-896.8" font-family="Times,serif" font-size="14.00">ups_2_1 idx_20</text>
<text text-anchor="middle" x="242" y="-881.8" font-family="Times,serif" font-size="14.00">MOD ups.2.1</text>
<text text-anchor="middle" x="242" y="-866.8" font-family="Times,serif" font-size="14.00">PixelShuffle</text>
</g>
<!-- ups_2_0&#45;&gt;ups_2_1 -->
<g id="edge22" class="edge">
<title>ups_2_0&#45;&gt;ups_2_1</title>
<path fill="none" stroke="black" d="M237.81,-947.74C238.41,-939.07 239,-930.31 239.56,-922.24"/>
<polygon fill="black" stroke="black" points="243.06,-922.3 240.25,-912.09 236.08,-921.82 243.06,-922.3"/>
</g>
<!-- ups_2_1&#45;&gt;add_2 -->
<g id="edge23" class="edge">
<title>ups_2_1&#45;&gt;add_2</title>
<path fill="none" stroke="black" d="M261.31,-858.91C267.96,-850.1 275.41,-840.23 282.1,-831.36"/>
<polygon fill="black" stroke="black" points="285,-833.33 288.23,-823.24 279.42,-829.11 285,-833.33"/>
</g>
<!-- decoders_2_0 -->
<g id="node23" class="node">
<title>decoders_2_0</title>
<polygon fill="white" stroke="black" points="384,-749 220,-749 220,-696 384,-696 384,-749"/>
<text text-anchor="middle" x="302" y="-733.8" font-family="Times,serif" font-size="14.00">decoders_2_0 idx_22</text>
<text text-anchor="middle" x="302" y="-718.8" font-family="Times,serif" font-size="14.00">MOD decoders.2.0</text>
<text text-anchor="middle" x="302" y="-703.8" font-family="Times,serif" font-size="14.00">NAFBlock</text>
</g>
<!-- add_2&#45;&gt;decoders_2_0 -->
<g id="edge25" class="edge">
<title>add_2&#45;&gt;decoders_2_0</title>
<path fill="none" stroke="black" d="M302,-784.96C302,-777.32 302,-768.14 302,-759.23"/>
<polygon fill="black" stroke="black" points="305.5,-759 302,-749 298.5,-759 305.5,-759"/>
</g>
<!-- ups_3_0 -->
<g id="node24" class="node">
<title>ups_3_0</title>
<polygon fill="red" stroke="black" points="378.5,-660 235.5,-660 235.5,-547 378.5,-547 378.5,-660"/>
<text text-anchor="middle" x="307" y="-644.8" font-family="Times,serif" font-size="14.00">ups_3_0 idx_23</text>
<text text-anchor="middle" x="307" y="-629.8" font-family="Times,serif" font-size="14.00">Conv2d</text>
<text text-anchor="middle" x="307" y="-614.8" font-family="Times,serif" font-size="14.00">&#45;&#45;&#45;&#45;&#45;&#45;&#45;&#45;&#45;&#45;</text>
<text text-anchor="middle" x="307" y="-599.8" font-family="Times,serif" font-size="14.00">kernel_size: (1, 1)</text>
<text text-anchor="middle" x="307" y="-584.8" font-family="Times,serif" font-size="14.00">in_channels: 32</text>
<text text-anchor="middle" x="307" y="-569.8" font-family="Times,serif" font-size="14.00">out_channels: 64</text>
<text text-anchor="middle" x="307" y="-554.8" font-family="Times,serif" font-size="14.00">no bias</text>
</g>
<!-- decoders_2_0&#45;&gt;ups_3_0 -->
<g id="edge26" class="edge">
<title>decoders_2_0&#45;&gt;ups_3_0</title>
<path fill="none" stroke="black" d="M303.1,-695.82C303.42,-688.2 303.8,-679.48 304.18,-670.51"/>
<polygon fill="black" stroke="black" points="307.68,-670.48 304.61,-660.34 300.69,-670.18 307.68,-670.48"/>
</g>
<!-- ups_3_1 -->
<g id="node25" class="node">
<title>ups_3_1</title>
<polygon fill="white" stroke="black" points="379.5,-511 254.5,-511 254.5,-458 379.5,-458 379.5,-511"/>
<text text-anchor="middle" x="317" y="-495.8" font-family="Times,serif" font-size="14.00">ups_3_1 idx_24</text>
<text text-anchor="middle" x="317" y="-480.8" font-family="Times,serif" font-size="14.00">MOD ups.3.1</text>
<text text-anchor="middle" x="317" y="-465.8" font-family="Times,serif" font-size="14.00">PixelShuffle</text>
</g>
<!-- ups_3_0&#45;&gt;ups_3_1 -->
<g id="edge27" class="edge">
<title>ups_3_0&#45;&gt;ups_3_1</title>
<path fill="none" stroke="black" d="M311.77,-546.74C312.51,-538.07 313.26,-529.31 313.95,-521.24"/>
<polygon fill="black" stroke="black" points="317.45,-521.35 314.81,-511.09 310.47,-520.75 317.45,-521.35"/>
</g>
<!-- ups_3_1&#45;&gt;add_3 -->
<g id="edge28" class="edge">
<title>ups_3_1&#45;&gt;add_3</title>
<path fill="none" stroke="black" d="M335.35,-457.91C341.6,-449.19 348.59,-439.43 354.9,-430.64"/>
<polygon fill="black" stroke="black" points="357.94,-432.41 360.92,-422.24 352.25,-428.33 357.94,-432.41"/>
</g>
<!-- decoders_3_0 -->
<g id="node27" class="node">
<title>decoders_3_0</title>
<polygon fill="white" stroke="black" points="456,-348 292,-348 292,-295 456,-295 456,-348"/>
<text text-anchor="middle" x="374" y="-332.8" font-family="Times,serif" font-size="14.00">decoders_3_0 idx_26</text>
<text text-anchor="middle" x="374" y="-317.8" font-family="Times,serif" font-size="14.00">MOD decoders.3.0</text>
<text text-anchor="middle" x="374" y="-302.8" font-family="Times,serif" font-size="14.00">NAFBlock</text>
</g>
<!-- add_3&#45;&gt;decoders_3_0 -->
<g id="edge30" class="edge">
<title>add_3&#45;&gt;decoders_3_0</title>
<path fill="none" stroke="black" d="M374,-383.96C374,-376.32 374,-367.14 374,-358.23"/>
<polygon fill="black" stroke="black" points="377.5,-358 374,-348 370.5,-358 377.5,-358"/>
</g>
<!-- ending -->
<g id="node28" class="node">
<title>ending</title>
<polygon fill="red" stroke="black" points="450.5,-259 307.5,-259 307.5,-146 450.5,-146 450.5,-259"/>
<text text-anchor="middle" x="379" y="-243.8" font-family="Times,serif" font-size="14.00">ending idx_27</text>
<text text-anchor="middle" x="379" y="-228.8" font-family="Times,serif" font-size="14.00">Conv2d</text>
<text text-anchor="middle" x="379" y="-213.8" font-family="Times,serif" font-size="14.00">&#45;&#45;&#45;&#45;&#45;&#45;&#45;&#45;&#45;&#45;</text>
<text text-anchor="middle" x="379" y="-198.8" font-family="Times,serif" font-size="14.00">kernel_size: (3, 3)</text>
<text text-anchor="middle" x="379" y="-183.8" font-family="Times,serif" font-size="14.00">in_channels: 16</text>
<text text-anchor="middle" x="379" y="-168.8" font-family="Times,serif" font-size="14.00">out_channels: 3</text>
<text text-anchor="middle" x="379" y="-153.8" font-family="Times,serif" font-size="14.00">+ bias</text>
</g>
<!-- decoders_3_0&#45;&gt;ending -->
<g id="edge31" class="edge">
<title>decoders_3_0&#45;&gt;ending</title>
<path fill="none" stroke="black" d="M375.1,-294.82C375.42,-287.2 375.8,-278.48 376.18,-269.51"/>
<polygon fill="black" stroke="black" points="379.68,-269.48 376.61,-259.34 372.69,-269.18 379.68,-269.48"/>
</g>
<!-- ending&#45;&gt;add_4 -->
<g id="edge32" class="edge">
<title>ending&#45;&gt;add_4</title>
<path fill="none" stroke="black" d="M404.44,-145.79C408.62,-136.62 412.79,-127.49 416.48,-119.43"/>
<polygon fill="black" stroke="black" points="419.73,-120.74 420.7,-110.19 413.36,-117.83 419.73,-120.74"/>
</g>
<!-- output -->
<g id="node30" class="node">
<title>output</title>
<ellipse fill="orange" stroke="black" cx="429" cy="-18" rx="41.69" ry="18"/>
<text text-anchor="middle" x="429" y="-14.3" font-family="Times,serif" font-size="14.00">output</text>
</g>
<!-- add_4&#45;&gt;output -->
<g id="edge34" class="edge">
<title>add_4&#45;&gt;output</title>
<path fill="none" stroke="black" d="M429,-71.72C429,-63.97 429,-54.79 429,-46.27"/>
<polygon fill="black" stroke="black" points="432.5,-46 429,-36 425.5,-46 432.5,-46"/>
</g>
</g>
</svg>
