<?xml version="1.0" encoding="UTF-8" standalone="no"?>
<!DOCTYPE svg PUBLIC "-//W3C//DTD SVG 1.1//EN"
 "http://www.w3.org/Graphics/SVG/1.1/DTD/svg11.dtd">
<!-- Generated by graphviz version 2.43.0 (0)
 -->
<!-- Title: %3 Pages: 1 -->
<svg width="510pt" height="2654pt"
 viewBox="0.00 0.00 509.79 2654.00" xmlns="http://www.w3.org/2000/svg" xmlns:xlink="http://www.w3.org/1999/xlink">
<g id="graph0" class="graph" transform="scale(1 1) rotate(0) translate(4 2650)">
<title>%3</title>
<polygon fill="white" stroke="transparent" points="-4,4 -4,-2650 505.79,-2650 505.79,4 -4,4"/>
<!-- inp -->
<g id="node1" class="node">
<title>inp</title>
<polygon fill="green" stroke="black" points="396.5,-2600 501.58,-2634.5 291.42,-2634.5 396.5,-2600"/>
<text text-anchor="middle" x="396.5" y="-2619.3" font-family="Times,serif" font-size="14.00">inp idx_0</text>
</g>
<!-- permute -->
<g id="node2" class="node">
<title>permute</title>
<polygon fill="white" stroke="black" points="440,-2564 209,-2564 209,-2511 440,-2511 440,-2564"/>
<text text-anchor="middle" x="324.5" y="-2548.8" font-family="Times,serif" font-size="14.00">permute idx_1</text>
<text text-anchor="middle" x="324.5" y="-2533.8" font-family="Times,serif" font-size="14.00">MET permute</text>
<text text-anchor="middle" x="324.5" y="-2518.8" font-family="Times,serif" font-size="14.00">(1, 256, 256, 16) torch.float32</text>
</g>
<!-- inp&#45;&gt;permute -->
<g id="edge1" class="edge">
<title>inp&#45;&gt;permute</title>
<path fill="none" stroke="black" d="M381.58,-2604.7C373.35,-2595.15 362.84,-2582.97 353.1,-2571.67"/>
<polygon fill="black" stroke="black" points="355.69,-2569.31 346.51,-2564.02 350.39,-2573.88 355.69,-2569.31"/>
</g>
<!-- add -->
<g id="node15" class="node">
<title>add</title>
<polygon fill="yellow" stroke="black" points="455.5,-1106 361.5,-1106 361.5,-1068 455.5,-1068 455.5,-1106"/>
<text text-anchor="middle" x="408.5" y="-1090.8" font-family="Times,serif" font-size="14.00">add idx_14</text>
<text text-anchor="middle" x="408.5" y="-1075.8" font-family="Times,serif" font-size="14.00">+</text>
</g>
<!-- inp&#45;&gt;add -->
<g id="edge15" class="edge">
<title>inp&#45;&gt;add</title>
<path fill="none" stroke="black" d="M415.62,-2606.2C427.25,-2595.51 441.4,-2580.38 449.5,-2564 473.93,-2514.62 471.5,-2497.1 471.5,-2442 471.5,-2442 471.5,-2442 471.5,-1249 471.5,-1199.22 445.06,-1146.37 426.44,-1115.32"/>
<polygon fill="black" stroke="black" points="429.17,-1113.09 420.95,-1106.41 423.21,-1116.76 429.17,-1113.09"/>
</g>
<!-- norm1 -->
<g id="node3" class="node">
<title>norm1</title>
<polygon fill="darkorange" stroke="black" points="385,-2475 250,-2475 250,-2407 385,-2407 385,-2475"/>
<text text-anchor="middle" x="317.5" y="-2459.8" font-family="Times,serif" font-size="14.00">norm1 idx_2</text>
<text text-anchor="middle" x="317.5" y="-2444.8" font-family="Times,serif" font-size="14.00">LayerNorm</text>
<text text-anchor="middle" x="317.5" y="-2429.8" font-family="Times,serif" font-size="14.00">&#45;&#45;&#45;&#45;&#45;&#45;&#45;&#45;&#45;&#45;</text>
<text text-anchor="middle" x="317.5" y="-2414.8" font-family="Times,serif" font-size="14.00">(1, 256, 256, 16)</text>
</g>
<!-- permute&#45;&gt;norm1 -->
<g id="edge2" class="edge">
<title>permute&#45;&gt;norm1</title>
<path fill="none" stroke="black" d="M322.59,-2510.68C322.01,-2502.82 321.35,-2493.96 320.71,-2485.29"/>
<polygon fill="black" stroke="black" points="324.19,-2484.96 319.96,-2475.25 317.21,-2485.48 324.19,-2484.96"/>
</g>
<!-- permute_1 -->
<g id="node4" class="node">
<title>permute_1</title>
<polygon fill="white" stroke="black" points="420,-2371 189,-2371 189,-2318 420,-2318 420,-2371"/>
<text text-anchor="middle" x="304.5" y="-2355.8" font-family="Times,serif" font-size="14.00">permute_1 idx_3</text>
<text text-anchor="middle" x="304.5" y="-2340.8" font-family="Times,serif" font-size="14.00">MET permute</text>
<text text-anchor="middle" x="304.5" y="-2325.8" font-family="Times,serif" font-size="14.00">(1, 16, 256, 256) torch.float32</text>
</g>
<!-- norm1&#45;&gt;permute_1 -->
<g id="edge3" class="edge">
<title>norm1&#45;&gt;permute_1</title>
<path fill="none" stroke="black" d="M312.95,-2406.95C311.81,-2398.62 310.57,-2389.65 309.41,-2381.2"/>
<polygon fill="black" stroke="black" points="312.87,-2380.67 308.04,-2371.24 305.94,-2381.62 312.87,-2380.67"/>
</g>
<!-- conv1 -->
<g id="node5" class="node">
<title>conv1</title>
<polygon fill="red" stroke="black" points="350,-2282 207,-2282 207,-2139 350,-2139 350,-2282"/>
<text text-anchor="middle" x="278.5" y="-2266.8" font-family="Times,serif" font-size="14.00">conv1 idx_4</text>
<text text-anchor="middle" x="278.5" y="-2251.8" font-family="Times,serif" font-size="14.00">Conv2d</text>
<text text-anchor="middle" x="278.5" y="-2236.8" font-family="Times,serif" font-size="14.00">&#45;&#45;&#45;&#45;&#45;&#45;&#45;&#45;&#45;&#45;</text>
<text text-anchor="middle" x="278.5" y="-2221.8" font-family="Times,serif" font-size="14.00">kernel_size: (1, 1)</text>
<text text-anchor="middle" x="278.5" y="-2206.8" font-family="Times,serif" font-size="14.00">in_channels: 16</text>
<text text-anchor="middle" x="278.5" y="-2191.8" font-family="Times,serif" font-size="14.00">out_channels: 32</text>
<text text-anchor="middle" x="278.5" y="-2176.8" font-family="Times,serif" font-size="14.00">+ bias</text>
<text text-anchor="middle" x="278.5" y="-2161.8" font-family="Times,serif" font-size="14.00">&#45;&#45;&#45;&#45;&#45;&#45;&#45;&#45;&#45;&#45;</text>
<text text-anchor="middle" x="278.5" y="-2146.8" font-family="Times,serif" font-size="14.00">(1, 32, 256, 256)</text>
</g>
<!-- permute_1&#45;&gt;conv1 -->
<g id="edge4" class="edge">
<title>permute_1&#45;&gt;conv1</title>
<path fill="none" stroke="black" d="M299.43,-2317.74C297.93,-2310.13 296.2,-2301.38 294.4,-2292.22"/>
<polygon fill="black" stroke="black" points="297.79,-2291.3 292.42,-2282.17 290.92,-2292.66 297.79,-2291.3"/>
</g>
<!-- conv2 -->
<g id="node6" class="node">
<title>conv2</title>
<polygon fill="deepskyblue" stroke="black" points="297,-2103 154,-2103 154,-1960 297,-1960 297,-2103"/>
<text text-anchor="middle" x="225.5" y="-2087.8" font-family="Times,serif" font-size="14.00">conv2 idx_5</text>
<text text-anchor="middle" x="225.5" y="-2072.8" font-family="Times,serif" font-size="14.00">dwise Conv2d</text>
<text text-anchor="middle" x="225.5" y="-2057.8" font-family="Times,serif" font-size="14.00">&#45;&#45;&#45;&#45;&#45;&#45;&#45;&#45;&#45;&#45;</text>
<text text-anchor="middle" x="225.5" y="-2042.8" font-family="Times,serif" font-size="14.00">kernel_size: (3, 3)</text>
<text text-anchor="middle" x="225.5" y="-2027.8" font-family="Times,serif" font-size="14.00">channels: 32</text>
<text text-anchor="middle" x="225.5" y="-2012.8" font-family="Times,serif" font-size="14.00">exp_rate: 1</text>
<text text-anchor="middle" x="225.5" y="-1997.8" font-family="Times,serif" font-size="14.00">+ bias</text>
<text text-anchor="middle" x="225.5" y="-1982.8" font-family="Times,serif" font-size="14.00">&#45;&#45;&#45;&#45;&#45;&#45;&#45;&#45;&#45;&#45;</text>
<text text-anchor="middle" x="225.5" y="-1967.8" font-family="Times,serif" font-size="14.00">(1, 32, 256, 256)</text>
</g>
<!-- conv1&#45;&gt;conv2 -->
<g id="edge5" class="edge">
<title>conv1&#45;&gt;conv2</title>
<path fill="none" stroke="black" d="M257.32,-2138.78C254.77,-2130.25 252.14,-2121.48 249.55,-2112.82"/>
<polygon fill="black" stroke="black" points="252.86,-2111.68 246.64,-2103.11 246.16,-2113.69 252.86,-2111.68"/>
</g>
<!-- sg -->
<g id="node7" class="node">
<title>sg</title>
<polygon fill="white" stroke="black" points="340,-1924 109,-1924 109,-1856 340,-1856 340,-1924"/>
<text text-anchor="middle" x="224.5" y="-1908.8" font-family="Times,serif" font-size="14.00">sg idx_6</text>
<text text-anchor="middle" x="224.5" y="-1893.8" font-family="Times,serif" font-size="14.00">MOD sg</text>
<text text-anchor="middle" x="224.5" y="-1878.8" font-family="Times,serif" font-size="14.00">SimpleGate</text>
<text text-anchor="middle" x="224.5" y="-1863.8" font-family="Times,serif" font-size="14.00">(1, 16, 256, 256) torch.float32</text>
</g>
<!-- conv2&#45;&gt;sg -->
<g id="edge6" class="edge">
<title>conv2&#45;&gt;sg</title>
<path fill="none" stroke="black" d="M224.99,-1959.93C224.93,-1951.29 224.87,-1942.66 224.81,-1934.58"/>
<polygon fill="black" stroke="black" points="228.31,-1934.29 224.74,-1924.31 221.31,-1934.34 228.31,-1934.29"/>
</g>
<!-- sca_0 -->
<g id="node8" class="node">
<title>sca_0</title>
<polygon fill="darkgoldenrod" stroke="black" points="196,-1820 41,-1820 41,-1752 196,-1752 196,-1820"/>
<text text-anchor="middle" x="118.5" y="-1804.8" font-family="Times,serif" font-size="14.00">sca_0 idx_7</text>
<text text-anchor="middle" x="118.5" y="-1789.8" font-family="Times,serif" font-size="14.00">AdaptiveAvgPool2d</text>
<text text-anchor="middle" x="118.5" y="-1774.8" font-family="Times,serif" font-size="14.00">&#45;&#45;&#45;&#45;&#45;&#45;&#45;&#45;&#45;&#45;</text>
<text text-anchor="middle" x="118.5" y="-1759.8" font-family="Times,serif" font-size="14.00">(1, 16, 1, 1)</text>
</g>
<!-- sg&#45;&gt;sca_0 -->
<g id="edge7" class="edge">
<title>sg&#45;&gt;sca_0</title>
<path fill="none" stroke="black" d="M190.08,-1855.88C180.64,-1846.8 170.3,-1836.85 160.48,-1827.4"/>
<polygon fill="black" stroke="black" points="162.74,-1824.71 153.11,-1820.3 157.88,-1829.76 162.74,-1824.71"/>
</g>
<!-- mul -->
<g id="node10" class="node">
<title>mul</title>
<polygon fill="#bf3eff" stroke="black" points="161.5,-1537 75.5,-1537 75.5,-1499 161.5,-1499 161.5,-1537"/>
<text text-anchor="middle" x="118.5" y="-1521.8" font-family="Times,serif" font-size="14.00">mul idx_9</text>
<text text-anchor="middle" x="118.5" y="-1506.8" font-family="Times,serif" font-size="14.00">*</text>
</g>
<!-- sg&#45;&gt;mul -->
<g id="edge9" class="edge">
<title>sg&#45;&gt;mul</title>
<path fill="none" stroke="black" d="M230.78,-1855.76C240.44,-1794.93 252.72,-1663.65 199.5,-1573 192.27,-1560.69 180.99,-1550.62 169.12,-1542.65"/>
<polygon fill="black" stroke="black" points="170.76,-1539.55 160.42,-1537.23 167.05,-1545.49 170.76,-1539.55"/>
</g>
<!-- sca_1 -->
<g id="node9" class="node">
<title>sca_1</title>
<polygon fill="red" stroke="black" points="190,-1716 47,-1716 47,-1573 190,-1573 190,-1716"/>
<text text-anchor="middle" x="118.5" y="-1700.8" font-family="Times,serif" font-size="14.00">sca_1 idx_8</text>
<text text-anchor="middle" x="118.5" y="-1685.8" font-family="Times,serif" font-size="14.00">Conv2d</text>
<text text-anchor="middle" x="118.5" y="-1670.8" font-family="Times,serif" font-size="14.00">&#45;&#45;&#45;&#45;&#45;&#45;&#45;&#45;&#45;&#45;</text>
<text text-anchor="middle" x="118.5" y="-1655.8" font-family="Times,serif" font-size="14.00">kernel_size: (1, 1)</text>
<text text-anchor="middle" x="118.5" y="-1640.8" font-family="Times,serif" font-size="14.00">in_channels: 16</text>
<text text-anchor="middle" x="118.5" y="-1625.8" font-family="Times,serif" font-size="14.00">out_channels: 16</text>
<text text-anchor="middle" x="118.5" y="-1610.8" font-family="Times,serif" font-size="14.00">+ bias</text>
<text text-anchor="middle" x="118.5" y="-1595.8" font-family="Times,serif" font-size="14.00">&#45;&#45;&#45;&#45;&#45;&#45;&#45;&#45;&#45;&#45;</text>
<text text-anchor="middle" x="118.5" y="-1580.8" font-family="Times,serif" font-size="14.00">(1, 16, 1, 1)</text>
</g>
<!-- sca_0&#45;&gt;sca_1 -->
<g id="edge8" class="edge">
<title>sca_0&#45;&gt;sca_1</title>
<path fill="none" stroke="black" d="M118.5,-1751.94C118.5,-1744.1 118.5,-1735.39 118.5,-1726.42"/>
<polygon fill="black" stroke="black" points="122,-1726.23 118.5,-1716.23 115,-1726.23 122,-1726.23"/>
</g>
<!-- sca_1&#45;&gt;mul -->
<g id="edge10" class="edge">
<title>sca_1&#45;&gt;mul</title>
<path fill="none" stroke="black" d="M118.5,-1572.88C118.5,-1563.93 118.5,-1555.21 118.5,-1547.49"/>
<polygon fill="black" stroke="black" points="122,-1547.31 118.5,-1537.31 115,-1547.31 122,-1547.31"/>
</g>
<!-- conv3 -->
<g id="node11" class="node">
<title>conv3</title>
<polygon fill="red" stroke="black" points="188,-1463 45,-1463 45,-1320 188,-1320 188,-1463"/>
<text text-anchor="middle" x="116.5" y="-1447.8" font-family="Times,serif" font-size="14.00">conv3 idx_10</text>
<text text-anchor="middle" x="116.5" y="-1432.8" font-family="Times,serif" font-size="14.00">Conv2d</text>
<text text-anchor="middle" x="116.5" y="-1417.8" font-family="Times,serif" font-size="14.00">&#45;&#45;&#45;&#45;&#45;&#45;&#45;&#45;&#45;&#45;</text>
<text text-anchor="middle" x="116.5" y="-1402.8" font-family="Times,serif" font-size="14.00">kernel_size: (1, 1)</text>
<text text-anchor="middle" x="116.5" y="-1387.8" font-family="Times,serif" font-size="14.00">in_channels: 16</text>
<text text-anchor="middle" x="116.5" y="-1372.8" font-family="Times,serif" font-size="14.00">out_channels: 16</text>
<text text-anchor="middle" x="116.5" y="-1357.8" font-family="Times,serif" font-size="14.00">+ bias</text>
<text text-anchor="middle" x="116.5" y="-1342.8" font-family="Times,serif" font-size="14.00">&#45;&#45;&#45;&#45;&#45;&#45;&#45;&#45;&#45;&#45;</text>
<text text-anchor="middle" x="116.5" y="-1327.8" font-family="Times,serif" font-size="14.00">(1, 16, 256, 256)</text>
</g>
<!-- mul&#45;&gt;conv3 -->
<g id="edge11" class="edge">
<title>mul&#45;&gt;conv3</title>
<path fill="none" stroke="black" d="M118.21,-1498.9C118.09,-1491.64 117.95,-1482.73 117.8,-1473.19"/>
<polygon fill="black" stroke="black" points="121.29,-1473 117.63,-1463.06 114.29,-1473.11 121.29,-1473"/>
</g>
<!-- dropout1 -->
<g id="node12" class="node">
<title>dropout1</title>
<polygon fill="white" stroke="black" points="231,-1284 0,-1284 0,-1216 231,-1216 231,-1284"/>
<text text-anchor="middle" x="115.5" y="-1268.8" font-family="Times,serif" font-size="14.00">dropout1 idx_11</text>
<text text-anchor="middle" x="115.5" y="-1253.8" font-family="Times,serif" font-size="14.00">MOD dropout1</text>
<text text-anchor="middle" x="115.5" y="-1238.8" font-family="Times,serif" font-size="14.00">Identity</text>
<text text-anchor="middle" x="115.5" y="-1223.8" font-family="Times,serif" font-size="14.00">(1, 16, 256, 256) torch.float32</text>
</g>
<!-- conv3&#45;&gt;dropout1 -->
<g id="edge12" class="edge">
<title>conv3&#45;&gt;dropout1</title>
<path fill="none" stroke="black" d="M115.99,-1319.93C115.93,-1311.29 115.87,-1302.66 115.81,-1294.58"/>
<polygon fill="black" stroke="black" points="119.31,-1294.29 115.74,-1284.31 112.31,-1294.34 119.31,-1294.29"/>
</g>
<!-- mul_1 -->
<g id="node14" class="node">
<title>mul_1</title>
<polygon fill="#bf3eff" stroke="black" points="401.5,-1180 291.5,-1180 291.5,-1142 401.5,-1142 401.5,-1180"/>
<text text-anchor="middle" x="346.5" y="-1164.8" font-family="Times,serif" font-size="14.00">mul_1 idx_13</text>
<text text-anchor="middle" x="346.5" y="-1149.8" font-family="Times,serif" font-size="14.00">*</text>
</g>
<!-- dropout1&#45;&gt;mul_1 -->
<g id="edge13" class="edge">
<title>dropout1&#45;&gt;mul_1</title>
<path fill="none" stroke="black" d="M203.16,-1215.98C231.91,-1205.16 263.1,-1193.41 289.02,-1183.65"/>
<polygon fill="black" stroke="black" points="290.56,-1186.81 298.69,-1180.01 288.09,-1180.26 290.56,-1186.81"/>
</g>
<!-- beta -->
<g id="node13" class="node">
<title>beta</title>
<polygon fill="white" stroke="black" points="444,-1276.5 249,-1276.5 249,-1223.5 444,-1223.5 444,-1276.5"/>
<text text-anchor="middle" x="346.5" y="-1261.3" font-family="Times,serif" font-size="14.00">beta idx_12</text>
<text text-anchor="middle" x="346.5" y="-1246.3" font-family="Times,serif" font-size="14.00">ATT </text>
<text text-anchor="middle" x="346.5" y="-1231.3" font-family="Times,serif" font-size="14.00">(1, 16, 1, 1) torch.float32</text>
</g>
<!-- beta&#45;&gt;mul_1 -->
<g id="edge14" class="edge">
<title>beta&#45;&gt;mul_1</title>
<path fill="none" stroke="black" d="M346.5,-1223.37C346.5,-1212.92 346.5,-1200.8 346.5,-1190.11"/>
<polygon fill="black" stroke="black" points="350,-1190.01 346.5,-1180.01 343,-1190.01 350,-1190.01"/>
</g>
<!-- mul_1&#45;&gt;add -->
<g id="edge16" class="edge">
<title>mul_1&#45;&gt;add</title>
<path fill="none" stroke="black" d="M362.15,-1141.83C369.36,-1133.45 378.06,-1123.35 385.96,-1114.17"/>
<polygon fill="black" stroke="black" points="388.77,-1116.27 392.64,-1106.41 383.47,-1111.71 388.77,-1116.27"/>
</g>
<!-- permute_2 -->
<g id="node16" class="node">
<title>permute_2</title>
<polygon fill="white" stroke="black" points="452,-1032 221,-1032 221,-979 452,-979 452,-1032"/>
<text text-anchor="middle" x="336.5" y="-1016.8" font-family="Times,serif" font-size="14.00">permute_2 idx_15</text>
<text text-anchor="middle" x="336.5" y="-1001.8" font-family="Times,serif" font-size="14.00">MET permute</text>
<text text-anchor="middle" x="336.5" y="-986.8" font-family="Times,serif" font-size="14.00">(1, 256, 256, 16) torch.float32</text>
</g>
<!-- add&#45;&gt;permute_2 -->
<g id="edge17" class="edge">
<title>add&#45;&gt;permute_2</title>
<path fill="none" stroke="black" d="M392.16,-1067.96C384.57,-1059.57 375.29,-1049.33 366.5,-1039.62"/>
<polygon fill="black" stroke="black" points="368.9,-1037.07 359.6,-1032 363.72,-1041.76 368.9,-1037.07"/>
</g>
<!-- add_1 -->
<g id="node25" class="node">
<title>add_1</title>
<polygon fill="yellow" stroke="black" points="475.5,-110 365.5,-110 365.5,-72 475.5,-72 475.5,-110"/>
<text text-anchor="middle" x="420.5" y="-94.8" font-family="Times,serif" font-size="14.00">add_1 idx_24</text>
<text text-anchor="middle" x="420.5" y="-79.8" font-family="Times,serif" font-size="14.00">+</text>
</g>
<!-- add&#45;&gt;add_1 -->
<g id="edge26" class="edge">
<title>add&#45;&gt;add_1</title>
<path fill="none" stroke="black" d="M431.89,-1067.85C442.56,-1058.32 454.38,-1045.77 461.5,-1032 486.81,-983.06 483.5,-965.1 483.5,-910 483.5,-910 483.5,-910 483.5,-253 483.5,-203.22 457.06,-150.37 438.44,-119.32"/>
<polygon fill="black" stroke="black" points="441.17,-117.09 432.95,-110.41 435.21,-120.76 441.17,-117.09"/>
</g>
<!-- norm2 -->
<g id="node17" class="node">
<title>norm2</title>
<polygon fill="darkorange" stroke="black" points="400,-943 265,-943 265,-875 400,-875 400,-943"/>
<text text-anchor="middle" x="332.5" y="-927.8" font-family="Times,serif" font-size="14.00">norm2 idx_16</text>
<text text-anchor="middle" x="332.5" y="-912.8" font-family="Times,serif" font-size="14.00">LayerNorm</text>
<text text-anchor="middle" x="332.5" y="-897.8" font-family="Times,serif" font-size="14.00">&#45;&#45;&#45;&#45;&#45;&#45;&#45;&#45;&#45;&#45;</text>
<text text-anchor="middle" x="332.5" y="-882.8" font-family="Times,serif" font-size="14.00">(1, 256, 256, 16)</text>
</g>
<!-- permute_2&#45;&gt;norm2 -->
<g id="edge18" class="edge">
<title>permute_2&#45;&gt;norm2</title>
<path fill="none" stroke="black" d="M335.41,-978.68C335.07,-970.82 334.7,-961.96 334.33,-953.29"/>
<polygon fill="black" stroke="black" points="337.83,-953.09 333.91,-943.25 330.83,-953.39 337.83,-953.09"/>
</g>
<!-- permute_3 -->
<g id="node18" class="node">
<title>permute_3</title>
<polygon fill="white" stroke="black" points="342,-839 111,-839 111,-786 342,-786 342,-839"/>
<text text-anchor="middle" x="226.5" y="-823.8" font-family="Times,serif" font-size="14.00">permute_3 idx_17</text>
<text text-anchor="middle" x="226.5" y="-808.8" font-family="Times,serif" font-size="14.00">MET permute</text>
<text text-anchor="middle" x="226.5" y="-793.8" font-family="Times,serif" font-size="14.00">(1, 16, 256, 256) torch.float32</text>
</g>
<!-- norm2&#45;&gt;permute_3 -->
<g id="edge19" class="edge">
<title>norm2&#45;&gt;permute_3</title>
<path fill="none" stroke="black" d="M295.43,-874.95C284.96,-865.62 273.58,-855.47 263.14,-846.16"/>
<polygon fill="black" stroke="black" points="265.16,-843.28 255.37,-839.24 260.5,-848.5 265.16,-843.28"/>
</g>
<!-- conv4 -->
<g id="node19" class="node">
<title>conv4</title>
<polygon fill="red" stroke="black" points="245,-750 102,-750 102,-607 245,-607 245,-750"/>
<text text-anchor="middle" x="173.5" y="-734.8" font-family="Times,serif" font-size="14.00">conv4 idx_18</text>
<text text-anchor="middle" x="173.5" y="-719.8" font-family="Times,serif" font-size="14.00">Conv2d</text>
<text text-anchor="middle" x="173.5" y="-704.8" font-family="Times,serif" font-size="14.00">&#45;&#45;&#45;&#45;&#45;&#45;&#45;&#45;&#45;&#45;</text>
<text text-anchor="middle" x="173.5" y="-689.8" font-family="Times,serif" font-size="14.00">kernel_size: (1, 1)</text>
<text text-anchor="middle" x="173.5" y="-674.8" font-family="Times,serif" font-size="14.00">in_channels: 16</text>
<text text-anchor="middle" x="173.5" y="-659.8" font-family="Times,serif" font-size="14.00">out_channels: 32</text>
<text text-anchor="middle" x="173.5" y="-644.8" font-family="Times,serif" font-size="14.00">+ bias</text>
<text text-anchor="middle" x="173.5" y="-629.8" font-family="Times,serif" font-size="14.00">&#45;&#45;&#45;&#45;&#45;&#45;&#45;&#45;&#45;&#45;</text>
<text text-anchor="middle" x="173.5" y="-614.8" font-family="Times,serif" font-size="14.00">(1, 32, 256, 256)</text>
</g>
<!-- permute_3&#45;&gt;conv4 -->
<g id="edge20" class="edge">
<title>permute_3&#45;&gt;conv4</title>
<path fill="none" stroke="black" d="M216.16,-785.74C213.04,-777.97 209.44,-769 205.68,-759.64"/>
<polygon fill="black" stroke="black" points="208.85,-758.14 201.87,-750.17 202.35,-760.75 208.85,-758.14"/>
</g>
<!-- sg_1 -->
<g id="node20" class="node">
<title>sg_1</title>
<polygon fill="white" stroke="black" points="263,-571 32,-571 32,-503 263,-503 263,-571"/>
<text text-anchor="middle" x="147.5" y="-555.8" font-family="Times,serif" font-size="14.00">sg_1 idx_19</text>
<text text-anchor="middle" x="147.5" y="-540.8" font-family="Times,serif" font-size="14.00">MOD sg</text>
<text text-anchor="middle" x="147.5" y="-525.8" font-family="Times,serif" font-size="14.00">SimpleGate</text>
<text text-anchor="middle" x="147.5" y="-510.8" font-family="Times,serif" font-size="14.00">(1, 16, 256, 256) torch.float32</text>
</g>
<!-- conv4&#45;&gt;sg_1 -->
<g id="edge21" class="edge">
<title>conv4&#45;&gt;sg_1</title>
<path fill="none" stroke="black" d="M160.35,-606.93C158.72,-598.19 157.09,-589.46 155.57,-581.3"/>
<polygon fill="black" stroke="black" points="158.98,-580.5 153.71,-571.31 152.1,-581.79 158.98,-580.5"/>
</g>
<!-- conv5 -->
<g id="node21" class="node">
<title>conv5</title>
<polygon fill="red" stroke="black" points="206,-467 63,-467 63,-324 206,-324 206,-467"/>
<text text-anchor="middle" x="134.5" y="-451.8" font-family="Times,serif" font-size="14.00">conv5 idx_20</text>
<text text-anchor="middle" x="134.5" y="-436.8" font-family="Times,serif" font-size="14.00">Conv2d</text>
<text text-anchor="middle" x="134.5" y="-421.8" font-family="Times,serif" font-size="14.00">&#45;&#45;&#45;&#45;&#45;&#45;&#45;&#45;&#45;&#45;</text>
<text text-anchor="middle" x="134.5" y="-406.8" font-family="Times,serif" font-size="14.00">kernel_size: (1, 1)</text>
<text text-anchor="middle" x="134.5" y="-391.8" font-family="Times,serif" font-size="14.00">in_channels: 16</text>
<text text-anchor="middle" x="134.5" y="-376.8" font-family="Times,serif" font-size="14.00">out_channels: 16</text>
<text text-anchor="middle" x="134.5" y="-361.8" font-family="Times,serif" font-size="14.00">+ bias</text>
<text text-anchor="middle" x="134.5" y="-346.8" font-family="Times,serif" font-size="14.00">&#45;&#45;&#45;&#45;&#45;&#45;&#45;&#45;&#45;&#45;</text>
<text text-anchor="middle" x="134.5" y="-331.8" font-family="Times,serif" font-size="14.00">(1, 16, 256, 256)</text>
</g>
<!-- sg_1&#45;&gt;conv5 -->
<g id="edge22" class="edge">
<title>sg_1&#45;&gt;conv5</title>
<path fill="none" stroke="black" d="M144.42,-502.94C143.69,-495.1 142.88,-486.39 142.04,-477.42"/>
<polygon fill="black" stroke="black" points="145.5,-476.86 141.09,-467.23 138.53,-477.51 145.5,-476.86"/>
</g>
<!-- dropout2 -->
<g id="node22" class="node">
<title>dropout2</title>
<polygon fill="white" stroke="black" points="243,-288 12,-288 12,-220 243,-220 243,-288"/>
<text text-anchor="middle" x="127.5" y="-272.8" font-family="Times,serif" font-size="14.00">dropout2 idx_21</text>
<text text-anchor="middle" x="127.5" y="-257.8" font-family="Times,serif" font-size="14.00">MOD dropout2</text>
<text text-anchor="middle" x="127.5" y="-242.8" font-family="Times,serif" font-size="14.00">Identity</text>
<text text-anchor="middle" x="127.5" y="-227.8" font-family="Times,serif" font-size="14.00">(1, 16, 256, 256) torch.float32</text>
</g>
<!-- conv5&#45;&gt;dropout2 -->
<g id="edge23" class="edge">
<title>conv5&#45;&gt;dropout2</title>
<path fill="none" stroke="black" d="M130.96,-323.93C130.52,-315.19 130.08,-306.46 129.67,-298.3"/>
<polygon fill="black" stroke="black" points="133.17,-298.13 129.17,-288.31 126.18,-298.48 133.17,-298.13"/>
</g>
<!-- mul_2 -->
<g id="node24" class="node">
<title>mul_2</title>
<polygon fill="#bf3eff" stroke="black" points="413.5,-184 303.5,-184 303.5,-146 413.5,-146 413.5,-184"/>
<text text-anchor="middle" x="358.5" y="-168.8" font-family="Times,serif" font-size="14.00">mul_2 idx_23</text>
<text text-anchor="middle" x="358.5" y="-153.8" font-family="Times,serif" font-size="14.00">*</text>
</g>
<!-- dropout2&#45;&gt;mul_2 -->
<g id="edge24" class="edge">
<title>dropout2&#45;&gt;mul_2</title>
<path fill="none" stroke="black" d="M215.16,-219.98C243.91,-209.16 275.1,-197.41 301.02,-187.65"/>
<polygon fill="black" stroke="black" points="302.56,-190.81 310.69,-184.01 300.09,-184.26 302.56,-190.81"/>
</g>
<!-- gamma -->
<g id="node23" class="node">
<title>gamma</title>
<polygon fill="white" stroke="black" points="456,-280.5 261,-280.5 261,-227.5 456,-227.5 456,-280.5"/>
<text text-anchor="middle" x="358.5" y="-265.3" font-family="Times,serif" font-size="14.00">gamma idx_22</text>
<text text-anchor="middle" x="358.5" y="-250.3" font-family="Times,serif" font-size="14.00">ATT </text>
<text text-anchor="middle" x="358.5" y="-235.3" font-family="Times,serif" font-size="14.00">(1, 16, 1, 1) torch.float32</text>
</g>
<!-- gamma&#45;&gt;mul_2 -->
<g id="edge25" class="edge">
<title>gamma&#45;&gt;mul_2</title>
<path fill="none" stroke="black" d="M358.5,-227.37C358.5,-216.92 358.5,-204.8 358.5,-194.11"/>
<polygon fill="black" stroke="black" points="362,-194.01 358.5,-184.01 355,-194.01 362,-194.01"/>
</g>
<!-- mul_2&#45;&gt;add_1 -->
<g id="edge27" class="edge">
<title>mul_2&#45;&gt;add_1</title>
<path fill="none" stroke="black" d="M374.15,-145.83C381.36,-137.45 390.06,-127.35 397.96,-118.17"/>
<polygon fill="black" stroke="black" points="400.77,-120.27 404.64,-110.41 395.47,-115.71 400.77,-120.27"/>
</g>
<!-- output -->
<g id="node26" class="node">
<title>output</title>
<ellipse fill="orange" stroke="black" cx="420.5" cy="-18" rx="41.69" ry="18"/>
<text text-anchor="middle" x="420.5" y="-14.3" font-family="Times,serif" font-size="14.00">output</text>
</g>
<!-- add_1&#45;&gt;output -->
<g id="edge28" class="edge">
<title>add_1&#45;&gt;output</title>
<path fill="none" stroke="black" d="M420.5,-71.72C420.5,-63.97 420.5,-54.79 420.5,-46.27"/>
<polygon fill="black" stroke="black" points="424,-46 420.5,-36 417,-46 424,-46"/>
</g>
</g>
</svg>
