<?xml version="1.0" encoding="UTF-8" standalone="no"?>
<!DOCTYPE svg PUBLIC "-//W3C//DTD SVG 1.1//EN"
 "http://www.w3.org/Graphics/SVG/1.1/DTD/svg11.dtd">
<!-- Generated by graphviz version 2.43.0 (0)
 -->
<!-- Title: %3 Pages: 1 -->
<svg width="563pt" height="3698pt"
 viewBox="0.00 0.00 563.29 3698.00" xmlns="http://www.w3.org/2000/svg" xmlns:xlink="http://www.w3.org/1999/xlink">
<g id="graph0" class="graph" transform="scale(1 1) rotate(0) translate(4 3694)">
<title>%3</title>
<polygon fill="white" stroke="transparent" points="-4,4 -4,-3694 559.29,-3694 559.29,4 -4,4"/>
<!-- inp -->
<g id="node1" class="node">
<title>inp</title>
<polygon fill="green" stroke="black" points="450,-3644 555.08,-3678.5 344.92,-3678.5 450,-3644"/>
<text text-anchor="middle" x="450" y="-3663.3" font-family="Times,serif" font-size="14.00">inp idx_0</text>
</g>
<!-- intro -->
<g id="node2" class="node">
<title>intro</title>
<polygon fill="red" stroke="black" points="471.5,-3608 328.5,-3608 328.5,-3465 471.5,-3465 471.5,-3608"/>
<text text-anchor="middle" x="400" y="-3592.8" font-family="Times,serif" font-size="14.00">intro idx_1</text>
<text text-anchor="middle" x="400" y="-3577.8" font-family="Times,serif" font-size="14.00">Conv2d</text>
<text text-anchor="middle" x="400" y="-3562.8" font-family="Times,serif" font-size="14.00">&#45;&#45;&#45;&#45;&#45;&#45;&#45;&#45;&#45;&#45;</text>
<text text-anchor="middle" x="400" y="-3547.8" font-family="Times,serif" font-size="14.00">kernel_size: (3, 3)</text>
<text text-anchor="middle" x="400" y="-3532.8" font-family="Times,serif" font-size="14.00">in_channels: 3</text>
<text text-anchor="middle" x="400" y="-3517.8" font-family="Times,serif" font-size="14.00">out_channels: 16</text>
<text text-anchor="middle" x="400" y="-3502.8" font-family="Times,serif" font-size="14.00">+ bias</text>
<text text-anchor="middle" x="400" y="-3487.8" font-family="Times,serif" font-size="14.00">&#45;&#45;&#45;&#45;&#45;&#45;&#45;&#45;&#45;&#45;</text>
<text text-anchor="middle" x="400" y="-3472.8" font-family="Times,serif" font-size="14.00">(1, 16, 256, 256)</text>
</g>
<!-- inp&#45;&gt;intro -->
<g id="edge1" class="edge">
<title>inp&#45;&gt;intro</title>
<path fill="none" stroke="black" d="M442.41,-3646.48C439.24,-3638.34 435.33,-3628.29 431.17,-3617.62"/>
<polygon fill="black" stroke="black" points="434.36,-3616.16 427.47,-3608.11 427.84,-3618.7 434.36,-3616.16"/>
</g>
<!-- add_4 -->
<g id="node29" class="node">
<title>add_4</title>
<polygon fill="yellow" stroke="black" points="505,-110 395,-110 395,-72 505,-72 505,-110"/>
<text text-anchor="middle" x="450" y="-94.8" font-family="Times,serif" font-size="14.00">add_4 idx_28</text>
<text text-anchor="middle" x="450" y="-79.8" font-family="Times,serif" font-size="14.00">+</text>
</g>
<!-- inp&#45;&gt;add_4 -->
<g id="edge33" class="edge">
<title>inp&#45;&gt;add_4</title>
<path fill="none" stroke="black" d="M461.68,-3647.59C468.24,-3636.5 476.08,-3621.88 481,-3608 513.09,-3517.56 522,-3491.97 522,-3396 522,-3396 522,-3396 522,-358 522,-262.03 514.46,-235.95 481,-146 477.57,-136.77 472.66,-127.28 467.75,-118.87"/>
<polygon fill="black" stroke="black" points="470.69,-116.97 462.5,-110.24 464.71,-120.61 470.69,-116.97"/>
</g>
<!-- encoders_0_0 -->
<g id="node3" class="node">
<title>encoders_0_0</title>
<polygon fill="white" stroke="black" points="493.5,-3429 262.5,-3429 262.5,-3361 493.5,-3361 493.5,-3429"/>
<text text-anchor="middle" x="378" y="-3413.8" font-family="Times,serif" font-size="14.00">encoders_0_0 idx_2</text>
<text text-anchor="middle" x="378" y="-3398.8" font-family="Times,serif" font-size="14.00">MOD encoders.0.0</text>
<text text-anchor="middle" x="378" y="-3383.8" font-family="Times,serif" font-size="14.00">NAFBlock</text>
<text text-anchor="middle" x="378" y="-3368.8" font-family="Times,serif" font-size="14.00">(1, 16, 256, 256) torch.float32</text>
</g>
<!-- intro&#45;&gt;encoders_0_0 -->
<g id="edge2" class="edge">
<title>intro&#45;&gt;encoders_0_0</title>
<path fill="none" stroke="black" d="M388.87,-3464.93C387.49,-3456.19 386.12,-3447.46 384.83,-3439.3"/>
<polygon fill="black" stroke="black" points="388.27,-3438.65 383.25,-3429.31 381.35,-3439.74 388.27,-3438.65"/>
</g>
<!-- downs_0 -->
<g id="node4" class="node">
<title>downs_0</title>
<polygon fill="red" stroke="black" points="430.5,-3325 287.5,-3325 287.5,-3167 430.5,-3167 430.5,-3325"/>
<text text-anchor="middle" x="359" y="-3309.8" font-family="Times,serif" font-size="14.00">downs_0 idx_3</text>
<text text-anchor="middle" x="359" y="-3294.8" font-family="Times,serif" font-size="14.00">Conv2d</text>
<text text-anchor="middle" x="359" y="-3279.8" font-family="Times,serif" font-size="14.00">&#45;&#45;&#45;&#45;&#45;&#45;&#45;&#45;&#45;&#45;</text>
<text text-anchor="middle" x="359" y="-3264.8" font-family="Times,serif" font-size="14.00">kernel_size: (2, 2)</text>
<text text-anchor="middle" x="359" y="-3249.8" font-family="Times,serif" font-size="14.00">in_channels: 16</text>
<text text-anchor="middle" x="359" y="-3234.8" font-family="Times,serif" font-size="14.00">out_channels: 32</text>
<text text-anchor="middle" x="359" y="-3219.8" font-family="Times,serif" font-size="14.00">stride: (2, 2)</text>
<text text-anchor="middle" x="359" y="-3204.8" font-family="Times,serif" font-size="14.00">+ bias</text>
<text text-anchor="middle" x="359" y="-3189.8" font-family="Times,serif" font-size="14.00">&#45;&#45;&#45;&#45;&#45;&#45;&#45;&#45;&#45;&#45;</text>
<text text-anchor="middle" x="359" y="-3174.8" font-family="Times,serif" font-size="14.00">(1, 32, 128, 128)</text>
</g>
<!-- encoders_0_0&#45;&gt;downs_0 -->
<g id="edge3" class="edge">
<title>encoders_0_0&#45;&gt;downs_0</title>
<path fill="none" stroke="black" d="M373.69,-3360.64C372.69,-3352.89 371.57,-3344.27 370.42,-3335.35"/>
<polygon fill="black" stroke="black" points="373.86,-3334.65 369.11,-3325.18 366.92,-3335.55 373.86,-3334.65"/>
</g>
<!-- add_3 -->
<g id="node26" class="node">
<title>add_3</title>
<polygon fill="yellow" stroke="black" points="433,-467 323,-467 323,-429 433,-429 433,-467"/>
<text text-anchor="middle" x="378" y="-451.8" font-family="Times,serif" font-size="14.00">add_3 idx_25</text>
<text text-anchor="middle" x="378" y="-436.8" font-family="Times,serif" font-size="14.00">+</text>
</g>
<!-- encoders_0_0&#45;&gt;add_3 -->
<g id="edge29" class="edge">
<title>encoders_0_0&#45;&gt;add_3</title>
<path fill="none" stroke="black" d="M415,-3360.81C424.61,-3350.29 433.95,-3337.99 440,-3325 483.03,-3232.65 472,-3199.89 472,-3098 472,-3098 472,-3098 472,-677.5 472,-599.49 492.28,-570.4 453,-503 445.91,-490.84 434.88,-480.67 423.43,-472.56"/>
<polygon fill="black" stroke="black" points="425.35,-469.63 415.08,-467.02 421.48,-475.46 425.35,-469.63"/>
</g>
<!-- encoders_1_0 -->
<g id="node5" class="node">
<title>encoders_1_0</title>
<polygon fill="white" stroke="black" points="443.5,-3131 212.5,-3131 212.5,-3063 443.5,-3063 443.5,-3131"/>
<text text-anchor="middle" x="328" y="-3115.8" font-family="Times,serif" font-size="14.00">encoders_1_0 idx_4</text>
<text text-anchor="middle" x="328" y="-3100.8" font-family="Times,serif" font-size="14.00">MOD encoders.1.0</text>
<text text-anchor="middle" x="328" y="-3085.8" font-family="Times,serif" font-size="14.00">NAFBlock</text>
<text text-anchor="middle" x="328" y="-3070.8" font-family="Times,serif" font-size="14.00">(1, 32, 128, 128) torch.float32</text>
</g>
<!-- downs_0&#45;&gt;encoders_1_0 -->
<g id="edge4" class="edge">
<title>downs_0&#45;&gt;encoders_1_0</title>
<path fill="none" stroke="black" d="M342.5,-3166.77C340.65,-3157.99 338.82,-3149.31 337.11,-3141.22"/>
<polygon fill="black" stroke="black" points="340.52,-3140.39 335.03,-3131.32 333.67,-3141.83 340.52,-3140.39"/>
</g>
<!-- downs_1 -->
<g id="node6" class="node">
<title>downs_1</title>
<polygon fill="red" stroke="black" points="385.5,-3027 242.5,-3027 242.5,-2869 385.5,-2869 385.5,-3027"/>
<text text-anchor="middle" x="314" y="-3011.8" font-family="Times,serif" font-size="14.00">downs_1 idx_5</text>
<text text-anchor="middle" x="314" y="-2996.8" font-family="Times,serif" font-size="14.00">Conv2d</text>
<text text-anchor="middle" x="314" y="-2981.8" font-family="Times,serif" font-size="14.00">&#45;&#45;&#45;&#45;&#45;&#45;&#45;&#45;&#45;&#45;</text>
<text text-anchor="middle" x="314" y="-2966.8" font-family="Times,serif" font-size="14.00">kernel_size: (2, 2)</text>
<text text-anchor="middle" x="314" y="-2951.8" font-family="Times,serif" font-size="14.00">in_channels: 32</text>
<text text-anchor="middle" x="314" y="-2936.8" font-family="Times,serif" font-size="14.00">out_channels: 64</text>
<text text-anchor="middle" x="314" y="-2921.8" font-family="Times,serif" font-size="14.00">stride: (2, 2)</text>
<text text-anchor="middle" x="314" y="-2906.8" font-family="Times,serif" font-size="14.00">+ bias</text>
<text text-anchor="middle" x="314" y="-2891.8" font-family="Times,serif" font-size="14.00">&#45;&#45;&#45;&#45;&#45;&#45;&#45;&#45;&#45;&#45;</text>
<text text-anchor="middle" x="314" y="-2876.8" font-family="Times,serif" font-size="14.00">(1, 64, 64, 64)</text>
</g>
<!-- encoders_1_0&#45;&gt;downs_1 -->
<g id="edge5" class="edge">
<title>encoders_1_0&#45;&gt;downs_1</title>
<path fill="none" stroke="black" d="M324.82,-3062.64C324.08,-3054.89 323.26,-3046.27 322.41,-3037.35"/>
<polygon fill="black" stroke="black" points="325.88,-3036.81 321.45,-3027.18 318.91,-3037.47 325.88,-3036.81"/>
</g>
<!-- add_2 -->
<g id="node22" class="node">
<title>add_2</title>
<polygon fill="yellow" stroke="black" points="383,-928 273,-928 273,-890 383,-890 383,-928"/>
<text text-anchor="middle" x="328" y="-912.8" font-family="Times,serif" font-size="14.00">add_2 idx_21</text>
<text text-anchor="middle" x="328" y="-897.8" font-family="Times,serif" font-size="14.00">+</text>
</g>
<!-- encoders_1_0&#45;&gt;add_2 -->
<g id="edge24" class="edge">
<title>encoders_1_0&#45;&gt;add_2</title>
<path fill="none" stroke="black" d="M368.45,-3062.96C378.71,-3052.53 388.62,-3040.24 395,-3027 439.14,-2935.37 424,-2901.71 424,-2800 424,-2800 424,-2800 424,-1138.5 424,-1060.49 444.7,-1031.16 405,-964 397.78,-951.78 386.59,-941.64 374.95,-933.57"/>
<polygon fill="black" stroke="black" points="376.75,-930.56 366.45,-928.06 372.94,-936.43 376.75,-930.56"/>
</g>
<!-- encoders_2_0 -->
<g id="node7" class="node">
<title>encoders_2_0</title>
<polygon fill="white" stroke="black" points="395.5,-2833 182.5,-2833 182.5,-2765 395.5,-2765 395.5,-2833"/>
<text text-anchor="middle" x="289" y="-2817.8" font-family="Times,serif" font-size="14.00">encoders_2_0 idx_6</text>
<text text-anchor="middle" x="289" y="-2802.8" font-family="Times,serif" font-size="14.00">MOD encoders.2.0</text>
<text text-anchor="middle" x="289" y="-2787.8" font-family="Times,serif" font-size="14.00">NAFBlock</text>
<text text-anchor="middle" x="289" y="-2772.8" font-family="Times,serif" font-size="14.00">(1, 64, 64, 64) torch.float32</text>
</g>
<!-- downs_1&#45;&gt;encoders_2_0 -->
<g id="edge6" class="edge">
<title>downs_1&#45;&gt;encoders_2_0</title>
<path fill="none" stroke="black" d="M300.69,-2868.77C299.2,-2859.99 297.73,-2851.31 296.35,-2843.22"/>
<polygon fill="black" stroke="black" points="299.79,-2842.6 294.67,-2833.32 292.89,-2843.77 299.79,-2842.6"/>
</g>
<!-- downs_2 -->
<g id="node8" class="node">
<title>downs_2</title>
<polygon fill="red" stroke="black" points="291,-2729 145,-2729 145,-2571 291,-2571 291,-2729"/>
<text text-anchor="middle" x="218" y="-2713.8" font-family="Times,serif" font-size="14.00">downs_2 idx_7</text>
<text text-anchor="middle" x="218" y="-2698.8" font-family="Times,serif" font-size="14.00">Conv2d</text>
<text text-anchor="middle" x="218" y="-2683.8" font-family="Times,serif" font-size="14.00">&#45;&#45;&#45;&#45;&#45;&#45;&#45;&#45;&#45;&#45;</text>
<text text-anchor="middle" x="218" y="-2668.8" font-family="Times,serif" font-size="14.00">kernel_size: (2, 2)</text>
<text text-anchor="middle" x="218" y="-2653.8" font-family="Times,serif" font-size="14.00">in_channels: 64</text>
<text text-anchor="middle" x="218" y="-2638.8" font-family="Times,serif" font-size="14.00">out_channels: 128</text>
<text text-anchor="middle" x="218" y="-2623.8" font-family="Times,serif" font-size="14.00">stride: (2, 2)</text>
<text text-anchor="middle" x="218" y="-2608.8" font-family="Times,serif" font-size="14.00">+ bias</text>
<text text-anchor="middle" x="218" y="-2593.8" font-family="Times,serif" font-size="14.00">&#45;&#45;&#45;&#45;&#45;&#45;&#45;&#45;&#45;&#45;</text>
<text text-anchor="middle" x="218" y="-2578.8" font-family="Times,serif" font-size="14.00">(1, 128, 32, 32)</text>
</g>
<!-- encoders_2_0&#45;&gt;downs_2 -->
<g id="edge7" class="edge">
<title>encoders_2_0&#45;&gt;downs_2</title>
<path fill="none" stroke="black" d="M272.89,-2764.64C268.98,-2756.56 264.62,-2747.53 260.12,-2738.2"/>
<polygon fill="black" stroke="black" points="263.26,-2736.67 255.76,-2729.18 256.96,-2739.71 263.26,-2736.67"/>
</g>
<!-- add_1 -->
<g id="node18" class="node">
<title>add_1</title>
<polygon fill="yellow" stroke="black" points="335,-1389 225,-1389 225,-1351 335,-1351 335,-1389"/>
<text text-anchor="middle" x="280" y="-1373.8" font-family="Times,serif" font-size="14.00">add_1 idx_17</text>
<text text-anchor="middle" x="280" y="-1358.8" font-family="Times,serif" font-size="14.00">+</text>
</g>
<!-- encoders_2_0&#45;&gt;add_1 -->
<g id="edge19" class="edge">
<title>encoders_2_0&#45;&gt;add_1</title>
<path fill="none" stroke="black" d="M298.22,-2764.56C312.41,-2710.03 338,-2598.36 338,-2502 338,-2502 338,-2502 338,-1599.5 338,-1521.38 344.54,-1498.1 317,-1425 313.37,-1415.37 307.68,-1405.8 301.84,-1397.45"/>
<polygon fill="black" stroke="black" points="304.54,-1395.2 295.78,-1389.23 298.9,-1399.36 304.54,-1395.2"/>
</g>
<!-- encoders_3_0 -->
<g id="node9" class="node">
<title>encoders_3_0</title>
<polygon fill="white" stroke="black" points="310,-2535 88,-2535 88,-2467 310,-2467 310,-2535"/>
<text text-anchor="middle" x="199" y="-2519.8" font-family="Times,serif" font-size="14.00">encoders_3_0 idx_8</text>
<text text-anchor="middle" x="199" y="-2504.8" font-family="Times,serif" font-size="14.00">MOD encoders.3.0</text>
<text text-anchor="middle" x="199" y="-2489.8" font-family="Times,serif" font-size="14.00">NAFBlock</text>
<text text-anchor="middle" x="199" y="-2474.8" font-family="Times,serif" font-size="14.00">(1, 128, 32, 32) torch.float32</text>
</g>
<!-- downs_2&#45;&gt;encoders_3_0 -->
<g id="edge8" class="edge">
<title>downs_2&#45;&gt;encoders_3_0</title>
<path fill="none" stroke="black" d="M207.89,-2570.77C206.77,-2562.09 205.66,-2553.5 204.62,-2545.49"/>
<polygon fill="black" stroke="black" points="208.06,-2544.79 203.31,-2535.32 201.12,-2545.69 208.06,-2544.79"/>
</g>
<!-- downs_3 -->
<g id="node10" class="node">
<title>downs_3</title>
<polygon fill="red" stroke="black" points="203,-2431 57,-2431 57,-2273 203,-2273 203,-2431"/>
<text text-anchor="middle" x="130" y="-2415.8" font-family="Times,serif" font-size="14.00">downs_3 idx_9</text>
<text text-anchor="middle" x="130" y="-2400.8" font-family="Times,serif" font-size="14.00">Conv2d</text>
<text text-anchor="middle" x="130" y="-2385.8" font-family="Times,serif" font-size="14.00">&#45;&#45;&#45;&#45;&#45;&#45;&#45;&#45;&#45;&#45;</text>
<text text-anchor="middle" x="130" y="-2370.8" font-family="Times,serif" font-size="14.00">kernel_size: (2, 2)</text>
<text text-anchor="middle" x="130" y="-2355.8" font-family="Times,serif" font-size="14.00">in_channels: 128</text>
<text text-anchor="middle" x="130" y="-2340.8" font-family="Times,serif" font-size="14.00">out_channels: 256</text>
<text text-anchor="middle" x="130" y="-2325.8" font-family="Times,serif" font-size="14.00">stride: (2, 2)</text>
<text text-anchor="middle" x="130" y="-2310.8" font-family="Times,serif" font-size="14.00">+ bias</text>
<text text-anchor="middle" x="130" y="-2295.8" font-family="Times,serif" font-size="14.00">&#45;&#45;&#45;&#45;&#45;&#45;&#45;&#45;&#45;&#45;</text>
<text text-anchor="middle" x="130" y="-2280.8" font-family="Times,serif" font-size="14.00">(1, 256, 16, 16)</text>
</g>
<!-- encoders_3_0&#45;&gt;downs_3 -->
<g id="edge9" class="edge">
<title>encoders_3_0&#45;&gt;downs_3</title>
<path fill="none" stroke="black" d="M183.34,-2466.64C179.59,-2458.64 175.4,-2449.72 171.07,-2440.49"/>
<polygon fill="black" stroke="black" points="174.12,-2438.75 166.7,-2431.18 167.78,-2441.72 174.12,-2438.75"/>
</g>
<!-- add -->
<g id="node14" class="node">
<title>add</title>
<polygon fill="yellow" stroke="black" points="246,-1850 152,-1850 152,-1812 246,-1812 246,-1850"/>
<text text-anchor="middle" x="199" y="-1834.8" font-family="Times,serif" font-size="14.00">add idx_13</text>
<text text-anchor="middle" x="199" y="-1819.8" font-family="Times,serif" font-size="14.00">+</text>
</g>
<!-- encoders_3_0&#45;&gt;add -->
<g id="edge14" class="edge">
<title>encoders_3_0&#45;&gt;add</title>
<path fill="none" stroke="black" d="M208.59,-2466.59C223.37,-2412.09 250,-2300.47 250,-2204 250,-2204 250,-2204 250,-2060.5 250,-1982.49 255.67,-1960.01 231,-1886 227.86,-1876.59 222.91,-1867.04 217.83,-1858.64"/>
<polygon fill="black" stroke="black" points="220.67,-1856.59 212.34,-1850.04 214.77,-1860.35 220.67,-1856.59"/>
</g>
<!-- middle_blks_0 -->
<g id="node11" class="node">
<title>middle_blks_0</title>
<polygon fill="white" stroke="black" points="222,-2237 0,-2237 0,-2169 222,-2169 222,-2237"/>
<text text-anchor="middle" x="111" y="-2221.8" font-family="Times,serif" font-size="14.00">middle_blks_0 idx_10</text>
<text text-anchor="middle" x="111" y="-2206.8" font-family="Times,serif" font-size="14.00">MOD middle_blks.0</text>
<text text-anchor="middle" x="111" y="-2191.8" font-family="Times,serif" font-size="14.00">NAFBlock</text>
<text text-anchor="middle" x="111" y="-2176.8" font-family="Times,serif" font-size="14.00">(1, 256, 16, 16) torch.float32</text>
</g>
<!-- downs_3&#45;&gt;middle_blks_0 -->
<g id="edge10" class="edge">
<title>downs_3&#45;&gt;middle_blks_0</title>
<path fill="none" stroke="black" d="M119.89,-2272.77C118.77,-2264.09 117.66,-2255.5 116.62,-2247.49"/>
<polygon fill="black" stroke="black" points="120.06,-2246.79 115.31,-2237.32 113.12,-2247.69 120.06,-2246.79"/>
</g>
<!-- ups_0_0 -->
<g id="node12" class="node">
<title>ups_0_0</title>
<polygon fill="red" stroke="black" points="184,-2133 38,-2133 38,-1990 184,-1990 184,-2133"/>
<text text-anchor="middle" x="111" y="-2117.8" font-family="Times,serif" font-size="14.00">ups_0_0 idx_11</text>
<text text-anchor="middle" x="111" y="-2102.8" font-family="Times,serif" font-size="14.00">Conv2d</text>
<text text-anchor="middle" x="111" y="-2087.8" font-family="Times,serif" font-size="14.00">&#45;&#45;&#45;&#45;&#45;&#45;&#45;&#45;&#45;&#45;</text>
<text text-anchor="middle" x="111" y="-2072.8" font-family="Times,serif" font-size="14.00">kernel_size: (1, 1)</text>
<text text-anchor="middle" x="111" y="-2057.8" font-family="Times,serif" font-size="14.00">in_channels: 256</text>
<text text-anchor="middle" x="111" y="-2042.8" font-family="Times,serif" font-size="14.00">out_channels: 512</text>
<text text-anchor="middle" x="111" y="-2027.8" font-family="Times,serif" font-size="14.00">no bias</text>
<text text-anchor="middle" x="111" y="-2012.8" font-family="Times,serif" font-size="14.00">&#45;&#45;&#45;&#45;&#45;&#45;&#45;&#45;&#45;&#45;</text>
<text text-anchor="middle" x="111" y="-1997.8" font-family="Times,serif" font-size="14.00">(1, 512, 16, 16)</text>
</g>
<!-- middle_blks_0&#45;&gt;ups_0_0 -->
<g id="edge11" class="edge">
<title>middle_blks_0&#45;&gt;ups_0_0</title>
<path fill="none" stroke="black" d="M111,-2168.94C111,-2161.1 111,-2152.39 111,-2143.42"/>
<polygon fill="black" stroke="black" points="114.5,-2143.23 111,-2133.23 107.5,-2143.23 114.5,-2143.23"/>
</g>
<!-- ups_0_1 -->
<g id="node13" class="node">
<title>ups_0_1</title>
<polygon fill="white" stroke="black" points="222,-1954 0,-1954 0,-1886 222,-1886 222,-1954"/>
<text text-anchor="middle" x="111" y="-1938.8" font-family="Times,serif" font-size="14.00">ups_0_1 idx_12</text>
<text text-anchor="middle" x="111" y="-1923.8" font-family="Times,serif" font-size="14.00">MOD ups.0.1</text>
<text text-anchor="middle" x="111" y="-1908.8" font-family="Times,serif" font-size="14.00">PixelShuffle</text>
<text text-anchor="middle" x="111" y="-1893.8" font-family="Times,serif" font-size="14.00">(1, 128, 32, 32) torch.float32</text>
</g>
<!-- ups_0_0&#45;&gt;ups_0_1 -->
<g id="edge12" class="edge">
<title>ups_0_0&#45;&gt;ups_0_1</title>
<path fill="none" stroke="black" d="M111,-1989.93C111,-1981.29 111,-1972.66 111,-1964.58"/>
<polygon fill="black" stroke="black" points="114.5,-1964.31 111,-1954.31 107.5,-1964.31 114.5,-1964.31"/>
</g>
<!-- ups_0_1&#45;&gt;add -->
<g id="edge13" class="edge">
<title>ups_0_1&#45;&gt;add</title>
<path fill="none" stroke="black" d="M144.52,-1885.86C154.08,-1876.41 164.35,-1866.26 173.36,-1857.35"/>
<polygon fill="black" stroke="black" points="175.94,-1859.72 180.59,-1850.2 171.02,-1854.74 175.94,-1859.72"/>
</g>
<!-- decoders_0_0 -->
<g id="node15" class="node">
<title>decoders_0_0</title>
<polygon fill="white" stroke="black" points="310,-1776 88,-1776 88,-1708 310,-1708 310,-1776"/>
<text text-anchor="middle" x="199" y="-1760.8" font-family="Times,serif" font-size="14.00">decoders_0_0 idx_14</text>
<text text-anchor="middle" x="199" y="-1745.8" font-family="Times,serif" font-size="14.00">MOD decoders.0.0</text>
<text text-anchor="middle" x="199" y="-1730.8" font-family="Times,serif" font-size="14.00">NAFBlock</text>
<text text-anchor="middle" x="199" y="-1715.8" font-family="Times,serif" font-size="14.00">(1, 128, 32, 32) torch.float32</text>
</g>
<!-- add&#45;&gt;decoders_0_0 -->
<g id="edge15" class="edge">
<title>add&#45;&gt;decoders_0_0</title>
<path fill="none" stroke="black" d="M199,-1811.97C199,-1804.45 199,-1795.36 199,-1786.28"/>
<polygon fill="black" stroke="black" points="202.5,-1786.12 199,-1776.12 195.5,-1786.12 202.5,-1786.12"/>
</g>
<!-- ups_1_0 -->
<g id="node16" class="node">
<title>ups_1_0</title>
<polygon fill="red" stroke="black" points="273,-1672 127,-1672 127,-1529 273,-1529 273,-1672"/>
<text text-anchor="middle" x="200" y="-1656.8" font-family="Times,serif" font-size="14.00">ups_1_0 idx_15</text>
<text text-anchor="middle" x="200" y="-1641.8" font-family="Times,serif" font-size="14.00">Conv2d</text>
<text text-anchor="middle" x="200" y="-1626.8" font-family="Times,serif" font-size="14.00">&#45;&#45;&#45;&#45;&#45;&#45;&#45;&#45;&#45;&#45;</text>
<text text-anchor="middle" x="200" y="-1611.8" font-family="Times,serif" font-size="14.00">kernel_size: (1, 1)</text>
<text text-anchor="middle" x="200" y="-1596.8" font-family="Times,serif" font-size="14.00">in_channels: 128</text>
<text text-anchor="middle" x="200" y="-1581.8" font-family="Times,serif" font-size="14.00">out_channels: 256</text>
<text text-anchor="middle" x="200" y="-1566.8" font-family="Times,serif" font-size="14.00">no bias</text>
<text text-anchor="middle" x="200" y="-1551.8" font-family="Times,serif" font-size="14.00">&#45;&#45;&#45;&#45;&#45;&#45;&#45;&#45;&#45;&#45;</text>
<text text-anchor="middle" x="200" y="-1536.8" font-family="Times,serif" font-size="14.00">(1, 256, 32, 32)</text>
</g>
<!-- decoders_0_0&#45;&gt;ups_1_0 -->
<g id="edge16" class="edge">
<title>decoders_0_0&#45;&gt;ups_1_0</title>
<path fill="none" stroke="black" d="M199.24,-1707.94C199.29,-1700.1 199.36,-1691.39 199.42,-1682.42"/>
<polygon fill="black" stroke="black" points="202.92,-1682.26 199.49,-1672.23 195.92,-1682.2 202.92,-1682.26"/>
</g>
<!-- ups_1_1 -->
<g id="node17" class="node">
<title>ups_1_1</title>
<polygon fill="white" stroke="black" points="308.5,-1493 95.5,-1493 95.5,-1425 308.5,-1425 308.5,-1493"/>
<text text-anchor="middle" x="202" y="-1477.8" font-family="Times,serif" font-size="14.00">ups_1_1 idx_16</text>
<text text-anchor="middle" x="202" y="-1462.8" font-family="Times,serif" font-size="14.00">MOD ups.1.1</text>
<text text-anchor="middle" x="202" y="-1447.8" font-family="Times,serif" font-size="14.00">PixelShuffle</text>
<text text-anchor="middle" x="202" y="-1432.8" font-family="Times,serif" font-size="14.00">(1, 64, 64, 64) torch.float32</text>
</g>
<!-- ups_1_0&#45;&gt;ups_1_1 -->
<g id="edge17" class="edge">
<title>ups_1_0&#45;&gt;ups_1_1</title>
<path fill="none" stroke="black" d="M201.01,-1528.93C201.14,-1520.29 201.26,-1511.66 201.38,-1503.58"/>
<polygon fill="black" stroke="black" points="204.88,-1503.36 201.52,-1493.31 197.88,-1503.26 204.88,-1503.36"/>
</g>
<!-- ups_1_1&#45;&gt;add_1 -->
<g id="edge18" class="edge">
<title>ups_1_1&#45;&gt;add_1</title>
<path fill="none" stroke="black" d="M231.93,-1424.61C240.22,-1415.37 249.09,-1405.48 256.92,-1396.74"/>
<polygon fill="black" stroke="black" points="259.71,-1398.87 263.78,-1389.09 254.5,-1394.2 259.71,-1398.87"/>
</g>
<!-- decoders_1_0 -->
<g id="node19" class="node">
<title>decoders_1_0</title>
<polygon fill="white" stroke="black" points="386.5,-1315 173.5,-1315 173.5,-1247 386.5,-1247 386.5,-1315"/>
<text text-anchor="middle" x="280" y="-1299.8" font-family="Times,serif" font-size="14.00">decoders_1_0 idx_18</text>
<text text-anchor="middle" x="280" y="-1284.8" font-family="Times,serif" font-size="14.00">MOD decoders.1.0</text>
<text text-anchor="middle" x="280" y="-1269.8" font-family="Times,serif" font-size="14.00">NAFBlock</text>
<text text-anchor="middle" x="280" y="-1254.8" font-family="Times,serif" font-size="14.00">(1, 64, 64, 64) torch.float32</text>
</g>
<!-- add_1&#45;&gt;decoders_1_0 -->
<g id="edge20" class="edge">
<title>add_1&#45;&gt;decoders_1_0</title>
<path fill="none" stroke="black" d="M280,-1350.97C280,-1343.45 280,-1334.36 280,-1325.28"/>
<polygon fill="black" stroke="black" points="283.5,-1325.12 280,-1315.12 276.5,-1325.12 283.5,-1325.12"/>
</g>
<!-- ups_2_0 -->
<g id="node20" class="node">
<title>ups_2_0</title>
<polygon fill="red" stroke="black" points="353,-1211 207,-1211 207,-1068 353,-1068 353,-1211"/>
<text text-anchor="middle" x="280" y="-1195.8" font-family="Times,serif" font-size="14.00">ups_2_0 idx_19</text>
<text text-anchor="middle" x="280" y="-1180.8" font-family="Times,serif" font-size="14.00">Conv2d</text>
<text text-anchor="middle" x="280" y="-1165.8" font-family="Times,serif" font-size="14.00">&#45;&#45;&#45;&#45;&#45;&#45;&#45;&#45;&#45;&#45;</text>
<text text-anchor="middle" x="280" y="-1150.8" font-family="Times,serif" font-size="14.00">kernel_size: (1, 1)</text>
<text text-anchor="middle" x="280" y="-1135.8" font-family="Times,serif" font-size="14.00">in_channels: 64</text>
<text text-anchor="middle" x="280" y="-1120.8" font-family="Times,serif" font-size="14.00">out_channels: 128</text>
<text text-anchor="middle" x="280" y="-1105.8" font-family="Times,serif" font-size="14.00">no bias</text>
<text text-anchor="middle" x="280" y="-1090.8" font-family="Times,serif" font-size="14.00">&#45;&#45;&#45;&#45;&#45;&#45;&#45;&#45;&#45;&#45;</text>
<text text-anchor="middle" x="280" y="-1075.8" font-family="Times,serif" font-size="14.00">(1, 128, 64, 64)</text>
</g>
<!-- decoders_1_0&#45;&gt;ups_2_0 -->
<g id="edge21" class="edge">
<title>decoders_1_0&#45;&gt;ups_2_0</title>
<path fill="none" stroke="black" d="M280,-1246.94C280,-1239.1 280,-1230.39 280,-1221.42"/>
<polygon fill="black" stroke="black" points="283.5,-1221.23 280,-1211.23 276.5,-1221.23 283.5,-1221.23"/>
</g>
<!-- ups_2_1 -->
<g id="node21" class="node">
<title>ups_2_1</title>
<polygon fill="white" stroke="black" points="395.5,-1032 164.5,-1032 164.5,-964 395.5,-964 395.5,-1032"/>
<text text-anchor="middle" x="280" y="-1016.8" font-family="Times,serif" font-size="14.00">ups_2_1 idx_20</text>
<text text-anchor="middle" x="280" y="-1001.8" font-family="Times,serif" font-size="14.00">MOD ups.2.1</text>
<text text-anchor="middle" x="280" y="-986.8" font-family="Times,serif" font-size="14.00">PixelShuffle</text>
<text text-anchor="middle" x="280" y="-971.8" font-family="Times,serif" font-size="14.00">(1, 32, 128, 128) torch.float32</text>
</g>
<!-- ups_2_0&#45;&gt;ups_2_1 -->
<g id="edge22" class="edge">
<title>ups_2_0&#45;&gt;ups_2_1</title>
<path fill="none" stroke="black" d="M280,-1067.93C280,-1059.29 280,-1050.66 280,-1042.58"/>
<polygon fill="black" stroke="black" points="283.5,-1042.31 280,-1032.31 276.5,-1042.31 283.5,-1042.31"/>
</g>
<!-- ups_2_1&#45;&gt;add_2 -->
<g id="edge23" class="edge">
<title>ups_2_1&#45;&gt;add_2</title>
<path fill="none" stroke="black" d="M298.42,-963.61C303.26,-954.84 308.42,-945.48 313.06,-937.09"/>
<polygon fill="black" stroke="black" points="316.25,-938.54 318.02,-928.09 310.12,-935.16 316.25,-938.54"/>
</g>
<!-- decoders_2_0 -->
<g id="node23" class="node">
<title>decoders_2_0</title>
<polygon fill="white" stroke="black" points="443.5,-854 212.5,-854 212.5,-786 443.5,-786 443.5,-854"/>
<text text-anchor="middle" x="328" y="-838.8" font-family="Times,serif" font-size="14.00">decoders_2_0 idx_22</text>
<text text-anchor="middle" x="328" y="-823.8" font-family="Times,serif" font-size="14.00">MOD decoders.2.0</text>
<text text-anchor="middle" x="328" y="-808.8" font-family="Times,serif" font-size="14.00">NAFBlock</text>
<text text-anchor="middle" x="328" y="-793.8" font-family="Times,serif" font-size="14.00">(1, 32, 128, 128) torch.float32</text>
</g>
<!-- add_2&#45;&gt;decoders_2_0 -->
<g id="edge25" class="edge">
<title>add_2&#45;&gt;decoders_2_0</title>
<path fill="none" stroke="black" d="M328,-889.97C328,-882.45 328,-873.36 328,-864.28"/>
<polygon fill="black" stroke="black" points="331.5,-864.12 328,-854.12 324.5,-864.12 331.5,-864.12"/>
</g>
<!-- ups_3_0 -->
<g id="node24" class="node">
<title>ups_3_0</title>
<polygon fill="red" stroke="black" points="399.5,-750 256.5,-750 256.5,-607 399.5,-607 399.5,-750"/>
<text text-anchor="middle" x="328" y="-734.8" font-family="Times,serif" font-size="14.00">ups_3_0 idx_23</text>
<text text-anchor="middle" x="328" y="-719.8" font-family="Times,serif" font-size="14.00">Conv2d</text>
<text text-anchor="middle" x="328" y="-704.8" font-family="Times,serif" font-size="14.00">&#45;&#45;&#45;&#45;&#45;&#45;&#45;&#45;&#45;&#45;</text>
<text text-anchor="middle" x="328" y="-689.8" font-family="Times,serif" font-size="14.00">kernel_size: (1, 1)</text>
<text text-anchor="middle" x="328" y="-674.8" font-family="Times,serif" font-size="14.00">in_channels: 32</text>
<text text-anchor="middle" x="328" y="-659.8" font-family="Times,serif" font-size="14.00">out_channels: 64</text>
<text text-anchor="middle" x="328" y="-644.8" font-family="Times,serif" font-size="14.00">no bias</text>
<text text-anchor="middle" x="328" y="-629.8" font-family="Times,serif" font-size="14.00">&#45;&#45;&#45;&#45;&#45;&#45;&#45;&#45;&#45;&#45;</text>
<text text-anchor="middle" x="328" y="-614.8" font-family="Times,serif" font-size="14.00">(1, 64, 128, 128)</text>
</g>
<!-- decoders_2_0&#45;&gt;ups_3_0 -->
<g id="edge26" class="edge">
<title>decoders_2_0&#45;&gt;ups_3_0</title>
<path fill="none" stroke="black" d="M328,-785.94C328,-778.1 328,-769.39 328,-760.42"/>
<polygon fill="black" stroke="black" points="331.5,-760.23 328,-750.23 324.5,-760.23 331.5,-760.23"/>
</g>
<!-- ups_3_1 -->
<g id="node25" class="node">
<title>ups_3_1</title>
<polygon fill="white" stroke="black" points="443.5,-571 212.5,-571 212.5,-503 443.5,-503 443.5,-571"/>
<text text-anchor="middle" x="328" y="-555.8" font-family="Times,serif" font-size="14.00">ups_3_1 idx_24</text>
<text text-anchor="middle" x="328" y="-540.8" font-family="Times,serif" font-size="14.00">MOD ups.3.1</text>
<text text-anchor="middle" x="328" y="-525.8" font-family="Times,serif" font-size="14.00">PixelShuffle</text>
<text text-anchor="middle" x="328" y="-510.8" font-family="Times,serif" font-size="14.00">(1, 16, 256, 256) torch.float32</text>
</g>
<!-- ups_3_0&#45;&gt;ups_3_1 -->
<g id="edge27" class="edge">
<title>ups_3_0&#45;&gt;ups_3_1</title>
<path fill="none" stroke="black" d="M328,-606.93C328,-598.29 328,-589.66 328,-581.58"/>
<polygon fill="black" stroke="black" points="331.5,-581.31 328,-571.31 324.5,-581.31 331.5,-581.31"/>
</g>
<!-- ups_3_1&#45;&gt;add_3 -->
<g id="edge28" class="edge">
<title>ups_3_1&#45;&gt;add_3</title>
<path fill="none" stroke="black" d="M347.19,-502.61C352.28,-493.74 357.72,-484.28 362.59,-475.82"/>
<polygon fill="black" stroke="black" points="365.65,-477.51 367.6,-467.09 359.58,-474.02 365.65,-477.51"/>
</g>
<!-- decoders_3_0 -->
<g id="node27" class="node">
<title>decoders_3_0</title>
<polygon fill="white" stroke="black" points="493.5,-393 262.5,-393 262.5,-325 493.5,-325 493.5,-393"/>
<text text-anchor="middle" x="378" y="-377.8" font-family="Times,serif" font-size="14.00">decoders_3_0 idx_26</text>
<text text-anchor="middle" x="378" y="-362.8" font-family="Times,serif" font-size="14.00">MOD decoders.3.0</text>
<text text-anchor="middle" x="378" y="-347.8" font-family="Times,serif" font-size="14.00">NAFBlock</text>
<text text-anchor="middle" x="378" y="-332.8" font-family="Times,serif" font-size="14.00">(1, 16, 256, 256) torch.float32</text>
</g>
<!-- add_3&#45;&gt;decoders_3_0 -->
<g id="edge30" class="edge">
<title>add_3&#45;&gt;decoders_3_0</title>
<path fill="none" stroke="black" d="M378,-428.97C378,-421.45 378,-412.36 378,-403.28"/>
<polygon fill="black" stroke="black" points="381.5,-403.12 378,-393.12 374.5,-403.12 381.5,-403.12"/>
</g>
<!-- ending -->
<g id="node28" class="node">
<title>ending</title>
<polygon fill="red" stroke="black" points="471.5,-289 328.5,-289 328.5,-146 471.5,-146 471.5,-289"/>
<text text-anchor="middle" x="400" y="-273.8" font-family="Times,serif" font-size="14.00">ending idx_27</text>
<text text-anchor="middle" x="400" y="-258.8" font-family="Times,serif" font-size="14.00">Conv2d</text>
<text text-anchor="middle" x="400" y="-243.8" font-family="Times,serif" font-size="14.00">&#45;&#45;&#45;&#45;&#45;&#45;&#45;&#45;&#45;&#45;</text>
<text text-anchor="middle" x="400" y="-228.8" font-family="Times,serif" font-size="14.00">kernel_size: (3, 3)</text>
<text text-anchor="middle" x="400" y="-213.8" font-family="Times,serif" font-size="14.00">in_channels: 16</text>
<text text-anchor="middle" x="400" y="-198.8" font-family="Times,serif" font-size="14.00">out_channels: 3</text>
<text text-anchor="middle" x="400" y="-183.8" font-family="Times,serif" font-size="14.00">+ bias</text>
<text text-anchor="middle" x="400" y="-168.8" font-family="Times,serif" font-size="14.00">&#45;&#45;&#45;&#45;&#45;&#45;&#45;&#45;&#45;&#45;</text>
<text text-anchor="middle" x="400" y="-153.8" font-family="Times,serif" font-size="14.00">(1, 3, 256, 256)</text>
</g>
<!-- decoders_3_0&#45;&gt;ending -->
<g id="edge31" class="edge">
<title>decoders_3_0&#45;&gt;ending</title>
<path fill="none" stroke="black" d="M383.21,-324.94C384.46,-317.01 385.85,-308.2 387.28,-299.13"/>
<polygon fill="black" stroke="black" points="390.74,-299.65 388.85,-289.23 383.83,-298.56 390.74,-299.65"/>
</g>
<!-- ending&#45;&gt;add_4 -->
<g id="edge32" class="edge">
<title>ending&#45;&gt;add_4</title>
<path fill="none" stroke="black" d="M428.36,-145.88C432.08,-136.62 435.7,-127.61 438.88,-119.69"/>
<polygon fill="black" stroke="black" points="442.17,-120.9 442.65,-110.31 435.67,-118.29 442.17,-120.9"/>
</g>
<!-- output -->
<g id="node30" class="node">
<title>output</title>
<ellipse fill="orange" stroke="black" cx="450" cy="-18" rx="41.69" ry="18"/>
<text text-anchor="middle" x="450" y="-14.3" font-family="Times,serif" font-size="14.00">output</text>
</g>
<!-- add_4&#45;&gt;output -->
<g id="edge34" class="edge">
<title>add_4&#45;&gt;output</title>
<path fill="none" stroke="black" d="M450,-71.72C450,-63.97 450,-54.79 450,-46.27"/>
<polygon fill="black" stroke="black" points="453.5,-46 450,-36 446.5,-46 453.5,-46"/>
</g>
</g>
</svg>
