<?xml version="1.0" encoding="UTF-8" standalone="no"?>
<!DOCTYPE svg PUBLIC "-//W3C//DTD SVG 1.1//EN"
 "http://www.w3.org/Graphics/SVG/1.1/DTD/svg11.dtd">
<!-- Generated by graphviz version 2.43.0 (0)
 -->
<!-- Title: %3 Pages: 1 -->
<svg width="1032pt" height="1614pt"
 viewBox="0.00 0.00 1032.00 1614.00" xmlns="http://www.w3.org/2000/svg" xmlns:xlink="http://www.w3.org/1999/xlink">
<g id="graph0" class="graph" transform="scale(1 1) rotate(0) translate(4 1610)">
<title>%3</title>
<polygon fill="white" stroke="transparent" points="-4,4 -4,-1610 1028,-1610 1028,4 -4,4"/>
<!-- x -->
<g id="node1" class="node">
<title>x</title>
<polygon fill="green" stroke="black" points="420.5,-1560 507.68,-1594.5 333.32,-1594.5 420.5,-1560"/>
<text text-anchor="middle" x="420.5" y="-1579.3" font-family="Times,serif" font-size="14.00">x idx_0</text>
</g>
<!-- conv1 -->
<g id="node2" class="node">
<title>conv1</title>
<polygon fill="red" stroke="black" points="653,-1524 510,-1524 510,-1381 653,-1381 653,-1524"/>
<text text-anchor="middle" x="581.5" y="-1508.8" font-family="Times,serif" font-size="14.00">conv1 idx_1</text>
<text text-anchor="middle" x="581.5" y="-1493.8" font-family="Times,serif" font-size="14.00">Conv2d</text>
<text text-anchor="middle" x="581.5" y="-1478.8" font-family="Times,serif" font-size="14.00">&#45;&#45;&#45;&#45;&#45;&#45;&#45;&#45;&#45;&#45;</text>
<text text-anchor="middle" x="581.5" y="-1463.8" font-family="Times,serif" font-size="14.00">kernel_size: (3, 3)</text>
<text text-anchor="middle" x="581.5" y="-1448.8" font-family="Times,serif" font-size="14.00">in_channels: 3</text>
<text text-anchor="middle" x="581.5" y="-1433.8" font-family="Times,serif" font-size="14.00">out_channels: 8</text>
<text text-anchor="middle" x="581.5" y="-1418.8" font-family="Times,serif" font-size="14.00">+ bias</text>
<text text-anchor="middle" x="581.5" y="-1403.8" font-family="Times,serif" font-size="14.00">&#45;&#45;&#45;&#45;&#45;&#45;&#45;&#45;&#45;&#45;</text>
<text text-anchor="middle" x="581.5" y="-1388.8" font-family="Times,serif" font-size="14.00">(1, 8, 224, 224)</text>
</g>
<!-- x&#45;&gt;conv1 -->
<g id="edge1" class="edge">
<title>x&#45;&gt;conv1</title>
<path fill="none" stroke="black" d="M440.92,-1567.95C457.31,-1556.49 480.76,-1539.69 500.5,-1524 500.98,-1523.62 501.46,-1523.24 501.94,-1522.85"/>
<polygon fill="black" stroke="black" points="504.22,-1525.51 509.79,-1516.49 499.82,-1520.07 504.22,-1525.51"/>
</g>
<!-- conv2 -->
<g id="node3" class="node">
<title>conv2</title>
<polygon fill="red" stroke="black" points="331,-1524 188,-1524 188,-1381 331,-1381 331,-1524"/>
<text text-anchor="middle" x="259.5" y="-1508.8" font-family="Times,serif" font-size="14.00">conv2 idx_2</text>
<text text-anchor="middle" x="259.5" y="-1493.8" font-family="Times,serif" font-size="14.00">Conv2d</text>
<text text-anchor="middle" x="259.5" y="-1478.8" font-family="Times,serif" font-size="14.00">&#45;&#45;&#45;&#45;&#45;&#45;&#45;&#45;&#45;&#45;</text>
<text text-anchor="middle" x="259.5" y="-1463.8" font-family="Times,serif" font-size="14.00">kernel_size: (3, 3)</text>
<text text-anchor="middle" x="259.5" y="-1448.8" font-family="Times,serif" font-size="14.00">in_channels: 3</text>
<text text-anchor="middle" x="259.5" y="-1433.8" font-family="Times,serif" font-size="14.00">out_channels: 8</text>
<text text-anchor="middle" x="259.5" y="-1418.8" font-family="Times,serif" font-size="14.00">+ bias</text>
<text text-anchor="middle" x="259.5" y="-1403.8" font-family="Times,serif" font-size="14.00">&#45;&#45;&#45;&#45;&#45;&#45;&#45;&#45;&#45;&#45;</text>
<text text-anchor="middle" x="259.5" y="-1388.8" font-family="Times,serif" font-size="14.00">(1, 8, 224, 224)</text>
</g>
<!-- x&#45;&gt;conv2 -->
<g id="edge2" class="edge">
<title>x&#45;&gt;conv2</title>
<path fill="none" stroke="black" d="M399.77,-1568.02C383.15,-1556.6 359.4,-1539.83 339.5,-1524 339.33,-1523.86 339.16,-1523.73 338.98,-1523.59"/>
<polygon fill="black" stroke="black" points="341.14,-1520.83 331.17,-1517.26 336.74,-1526.27 341.14,-1520.83"/>
</g>
<!-- conv3 -->
<g id="node4" class="node">
<title>conv3</title>
<polygon fill="red" stroke="black" points="492,-1524 349,-1524 349,-1381 492,-1381 492,-1524"/>
<text text-anchor="middle" x="420.5" y="-1508.8" font-family="Times,serif" font-size="14.00">conv3 idx_3</text>
<text text-anchor="middle" x="420.5" y="-1493.8" font-family="Times,serif" font-size="14.00">Conv2d</text>
<text text-anchor="middle" x="420.5" y="-1478.8" font-family="Times,serif" font-size="14.00">&#45;&#45;&#45;&#45;&#45;&#45;&#45;&#45;&#45;&#45;</text>
<text text-anchor="middle" x="420.5" y="-1463.8" font-family="Times,serif" font-size="14.00">kernel_size: (3, 3)</text>
<text text-anchor="middle" x="420.5" y="-1448.8" font-family="Times,serif" font-size="14.00">in_channels: 3</text>
<text text-anchor="middle" x="420.5" y="-1433.8" font-family="Times,serif" font-size="14.00">out_channels: 8</text>
<text text-anchor="middle" x="420.5" y="-1418.8" font-family="Times,serif" font-size="14.00">+ bias</text>
<text text-anchor="middle" x="420.5" y="-1403.8" font-family="Times,serif" font-size="14.00">&#45;&#45;&#45;&#45;&#45;&#45;&#45;&#45;&#45;&#45;</text>
<text text-anchor="middle" x="420.5" y="-1388.8" font-family="Times,serif" font-size="14.00">(1, 8, 224, 224)</text>
</g>
<!-- x&#45;&gt;conv3 -->
<g id="edge3" class="edge">
<title>x&#45;&gt;conv3</title>
<path fill="none" stroke="black" d="M420.5,-1559.91C420.5,-1552.48 420.5,-1543.7 420.5,-1534.43"/>
<polygon fill="black" stroke="black" points="424,-1534.21 420.5,-1524.21 417,-1534.21 424,-1534.21"/>
</g>
<!-- relu -->
<g id="node5" class="node">
<title>relu</title>
<polygon fill="#66cdaa" stroke="black" points="644.5,-1345 518.5,-1345 518.5,-1277 644.5,-1277 644.5,-1345"/>
<text text-anchor="middle" x="581.5" y="-1329.8" font-family="Times,serif" font-size="14.00">relu idx_4</text>
<text text-anchor="middle" x="581.5" y="-1314.8" font-family="Times,serif" font-size="14.00">Act relu</text>
<text text-anchor="middle" x="581.5" y="-1299.8" font-family="Times,serif" font-size="14.00">&#45;&#45;&#45;&#45;&#45;&#45;&#45;&#45;&#45;&#45;</text>
<text text-anchor="middle" x="581.5" y="-1284.8" font-family="Times,serif" font-size="14.00">(1, 8, 224, 224)</text>
</g>
<!-- conv1&#45;&gt;relu -->
<g id="edge4" class="edge">
<title>conv1&#45;&gt;relu</title>
<path fill="none" stroke="black" d="M581.5,-1380.93C581.5,-1372.29 581.5,-1363.66 581.5,-1355.58"/>
<polygon fill="black" stroke="black" points="585,-1355.31 581.5,-1345.31 578,-1355.31 585,-1355.31"/>
</g>
<!-- relu_2 -->
<g id="node12" class="node">
<title>relu_2</title>
<polygon fill="#66cdaa" stroke="black" points="339.5,-1345 213.5,-1345 213.5,-1277 339.5,-1277 339.5,-1345"/>
<text text-anchor="middle" x="276.5" y="-1329.8" font-family="Times,serif" font-size="14.00">relu_2 idx_11</text>
<text text-anchor="middle" x="276.5" y="-1314.8" font-family="Times,serif" font-size="14.00">Act relu</text>
<text text-anchor="middle" x="276.5" y="-1299.8" font-family="Times,serif" font-size="14.00">&#45;&#45;&#45;&#45;&#45;&#45;&#45;&#45;&#45;&#45;</text>
<text text-anchor="middle" x="276.5" y="-1284.8" font-family="Times,serif" font-size="14.00">(1, 8, 224, 224)</text>
</g>
<!-- conv2&#45;&gt;relu_2 -->
<g id="edge11" class="edge">
<title>conv2&#45;&gt;relu_2</title>
<path fill="none" stroke="black" d="M268.1,-1380.93C269.17,-1372.19 270.23,-1363.46 271.22,-1355.3"/>
<polygon fill="black" stroke="black" points="274.7,-1355.66 272.44,-1345.31 267.76,-1354.82 274.7,-1355.66"/>
</g>
<!-- relu_3 -->
<g id="node13" class="node">
<title>relu_3</title>
<polygon fill="#66cdaa" stroke="black" points="483.5,-1345 357.5,-1345 357.5,-1277 483.5,-1277 483.5,-1345"/>
<text text-anchor="middle" x="420.5" y="-1329.8" font-family="Times,serif" font-size="14.00">relu_3 idx_12</text>
<text text-anchor="middle" x="420.5" y="-1314.8" font-family="Times,serif" font-size="14.00">Act relu</text>
<text text-anchor="middle" x="420.5" y="-1299.8" font-family="Times,serif" font-size="14.00">&#45;&#45;&#45;&#45;&#45;&#45;&#45;&#45;&#45;&#45;</text>
<text text-anchor="middle" x="420.5" y="-1284.8" font-family="Times,serif" font-size="14.00">(1, 8, 224, 224)</text>
</g>
<!-- conv3&#45;&gt;relu_3 -->
<g id="edge12" class="edge">
<title>conv3&#45;&gt;relu_3</title>
<path fill="none" stroke="black" d="M420.5,-1380.93C420.5,-1372.29 420.5,-1363.66 420.5,-1355.58"/>
<polygon fill="black" stroke="black" points="424,-1355.31 420.5,-1345.31 417,-1355.31 424,-1355.31"/>
</g>
<!-- sigmoid -->
<g id="node14" class="node">
<title>sigmoid</title>
<polygon fill="#66cdaa" stroke="black" points="195.5,-1345 69.5,-1345 69.5,-1277 195.5,-1277 195.5,-1345"/>
<text text-anchor="middle" x="132.5" y="-1329.8" font-family="Times,serif" font-size="14.00">sigmoid idx_13</text>
<text text-anchor="middle" x="132.5" y="-1314.8" font-family="Times,serif" font-size="14.00">Act sigmoid</text>
<text text-anchor="middle" x="132.5" y="-1299.8" font-family="Times,serif" font-size="14.00">&#45;&#45;&#45;&#45;&#45;&#45;&#45;&#45;&#45;&#45;</text>
<text text-anchor="middle" x="132.5" y="-1284.8" font-family="Times,serif" font-size="14.00">(1, 8, 224, 224)</text>
</g>
<!-- conv3&#45;&gt;sigmoid -->
<g id="edge13" class="edge">
<title>conv3&#45;&gt;sigmoid</title>
<path fill="none" stroke="black" d="M348.82,-1386.38C345.74,-1384.47 342.63,-1382.66 339.5,-1381 287.34,-1353.29 265.13,-1364.73 205.37,-1345.03"/>
<polygon fill="black" stroke="black" points="206.46,-1341.71 195.86,-1341.75 204.17,-1348.32 206.46,-1341.71"/>
</g>
<!-- conv4 -->
<g id="node6" class="node">
<title>conv4</title>
<polygon fill="red" stroke="black" points="802,-1241 659,-1241 659,-1098 802,-1098 802,-1241"/>
<text text-anchor="middle" x="730.5" y="-1225.8" font-family="Times,serif" font-size="14.00">conv4 idx_5</text>
<text text-anchor="middle" x="730.5" y="-1210.8" font-family="Times,serif" font-size="14.00">Conv2d</text>
<text text-anchor="middle" x="730.5" y="-1195.8" font-family="Times,serif" font-size="14.00">&#45;&#45;&#45;&#45;&#45;&#45;&#45;&#45;&#45;&#45;</text>
<text text-anchor="middle" x="730.5" y="-1180.8" font-family="Times,serif" font-size="14.00">kernel_size: (3, 3)</text>
<text text-anchor="middle" x="730.5" y="-1165.8" font-family="Times,serif" font-size="14.00">in_channels: 8</text>
<text text-anchor="middle" x="730.5" y="-1150.8" font-family="Times,serif" font-size="14.00">out_channels: 16</text>
<text text-anchor="middle" x="730.5" y="-1135.8" font-family="Times,serif" font-size="14.00">+ bias</text>
<text text-anchor="middle" x="730.5" y="-1120.8" font-family="Times,serif" font-size="14.00">&#45;&#45;&#45;&#45;&#45;&#45;&#45;&#45;&#45;&#45;</text>
<text text-anchor="middle" x="730.5" y="-1105.8" font-family="Times,serif" font-size="14.00">(1, 16, 224, 224)</text>
</g>
<!-- relu&#45;&gt;conv4 -->
<g id="edge5" class="edge">
<title>relu&#45;&gt;conv4</title>
<path fill="none" stroke="black" d="M616.81,-1276.94C627.29,-1267.13 639.21,-1255.97 651.3,-1244.65"/>
<polygon fill="black" stroke="black" points="653.92,-1246.99 658.83,-1237.6 649.14,-1241.88 653.92,-1246.99"/>
</g>
<!-- cat_1 -->
<g id="node18" class="node">
<title>cat_1</title>
<polygon fill="white" stroke="black" points="641,-1196 410,-1196 410,-1143 641,-1143 641,-1196"/>
<text text-anchor="middle" x="525.5" y="-1180.8" font-family="Times,serif" font-size="14.00">cat_1 idx_17</text>
<text text-anchor="middle" x="525.5" y="-1165.8" font-family="Times,serif" font-size="14.00">FUN cat</text>
<text text-anchor="middle" x="525.5" y="-1150.8" font-family="Times,serif" font-size="14.00">(1, 16, 224, 224) torch.float32</text>
</g>
<!-- relu&#45;&gt;cat_1 -->
<g id="edge19" class="edge">
<title>relu&#45;&gt;cat_1</title>
<path fill="none" stroke="black" d="M568.23,-1276.94C559.65,-1255.56 548.48,-1227.75 539.72,-1205.92"/>
<polygon fill="black" stroke="black" points="542.85,-1204.33 535.88,-1196.35 536.36,-1206.94 542.85,-1204.33"/>
</g>
<!-- add -->
<g id="node9" class="node">
<title>add</title>
<polygon fill="yellow" stroke="black" points="773,-1009.5 688,-1009.5 688,-971.5 773,-971.5 773,-1009.5"/>
<text text-anchor="middle" x="730.5" y="-994.3" font-family="Times,serif" font-size="14.00">add idx_8</text>
<text text-anchor="middle" x="730.5" y="-979.3" font-family="Times,serif" font-size="14.00">+</text>
</g>
<!-- conv4&#45;&gt;add -->
<g id="edge7" class="edge">
<title>conv4&#45;&gt;add</title>
<path fill="none" stroke="black" d="M730.5,-1097.78C730.5,-1070.56 730.5,-1040.99 730.5,-1019.97"/>
<polygon fill="black" stroke="black" points="734,-1019.82 730.5,-1009.82 727,-1019.82 734,-1019.82"/>
</g>
<!-- logits -->
<g id="node7" class="node">
<title>logits</title>
<polygon fill="white" stroke="black" points="1024,-1337.5 829,-1337.5 829,-1284.5 1024,-1284.5 1024,-1337.5"/>
<text text-anchor="middle" x="926.5" y="-1322.3" font-family="Times,serif" font-size="14.00">logits idx_6</text>
<text text-anchor="middle" x="926.5" y="-1307.3" font-family="Times,serif" font-size="14.00">ATT </text>
<text text-anchor="middle" x="926.5" y="-1292.3" font-family="Times,serif" font-size="14.00">(1, 10, 1, 1) torch.float32</text>
</g>
<!-- mean -->
<g id="node8" class="node">
<title>mean</title>
<polygon fill="white" stroke="black" points="943,-1196 820,-1196 820,-1143 943,-1143 943,-1196"/>
<text text-anchor="middle" x="881.5" y="-1180.8" font-family="Times,serif" font-size="14.00">mean idx_7</text>
<text text-anchor="middle" x="881.5" y="-1165.8" font-family="Times,serif" font-size="14.00">MET mean</text>
<text text-anchor="middle" x="881.5" y="-1150.8" font-family="Times,serif" font-size="14.00">() torch.float32</text>
</g>
<!-- logits&#45;&gt;mean -->
<g id="edge6" class="edge">
<title>logits&#45;&gt;mean</title>
<path fill="none" stroke="black" d="M918.25,-1284.41C911.15,-1262.43 900.86,-1230.5 892.96,-1206.04"/>
<polygon fill="black" stroke="black" points="896.25,-1204.84 889.85,-1196.4 889.59,-1206.99 896.25,-1204.84"/>
</g>
<!-- mean_5 -->
<g id="node28" class="node">
<title>mean_5</title>
<polygon fill="white" stroke="black" points="953,-659 830,-659 830,-606 953,-606 953,-659"/>
<text text-anchor="middle" x="891.5" y="-643.8" font-family="Times,serif" font-size="14.00">mean_5 idx_27</text>
<text text-anchor="middle" x="891.5" y="-628.8" font-family="Times,serif" font-size="14.00">MET mean</text>
<text text-anchor="middle" x="891.5" y="-613.8" font-family="Times,serif" font-size="14.00">() torch.float32</text>
</g>
<!-- logits&#45;&gt;mean_5 -->
<g id="edge34" class="edge">
<title>logits&#45;&gt;mean_5</title>
<path fill="none" stroke="black" d="M938.66,-1284.42C944.06,-1271.68 949.79,-1255.86 952.5,-1241 963.89,-1178.47 956.65,-1161.42 952.5,-1098 941.98,-937.16 911.19,-746.97 897.82,-669.27"/>
<polygon fill="black" stroke="black" points="901.21,-668.32 896.05,-659.07 894.31,-669.52 901.21,-668.32"/>
</g>
<!-- mean&#45;&gt;add -->
<g id="edge8" class="edge">
<title>mean&#45;&gt;add</title>
<path fill="none" stroke="black" d="M859.54,-1142.76C831.04,-1109.35 781.56,-1051.35 752.86,-1017.71"/>
<polygon fill="black" stroke="black" points="755.19,-1015.05 746.04,-1009.71 749.86,-1019.59 755.19,-1015.05"/>
</g>
<!-- relu_1 -->
<g id="node10" class="node">
<title>relu_1</title>
<polygon fill="#66cdaa" stroke="black" points="774,-845.5 639,-845.5 639,-777.5 774,-777.5 774,-845.5"/>
<text text-anchor="middle" x="706.5" y="-830.3" font-family="Times,serif" font-size="14.00">relu_1 idx_9</text>
<text text-anchor="middle" x="706.5" y="-815.3" font-family="Times,serif" font-size="14.00">Act relu</text>
<text text-anchor="middle" x="706.5" y="-800.3" font-family="Times,serif" font-size="14.00">&#45;&#45;&#45;&#45;&#45;&#45;&#45;&#45;&#45;&#45;</text>
<text text-anchor="middle" x="706.5" y="-785.3" font-family="Times,serif" font-size="14.00">(1, 16, 224, 224)</text>
</g>
<!-- add&#45;&gt;relu_1 -->
<g id="edge9" class="edge">
<title>add&#45;&gt;relu_1</title>
<path fill="none" stroke="black" d="M728.02,-971.22C724.35,-944.18 717.38,-892.71 712.36,-855.7"/>
<polygon fill="black" stroke="black" points="715.81,-855.12 711,-845.68 708.87,-856.06 715.81,-855.12"/>
</g>
<!-- conv5 -->
<g id="node11" class="node">
<title>conv5</title>
<polygon fill="red" stroke="black" points="732,-704 589,-704 589,-561 732,-561 732,-704"/>
<text text-anchor="middle" x="660.5" y="-688.8" font-family="Times,serif" font-size="14.00">conv5 idx_10</text>
<text text-anchor="middle" x="660.5" y="-673.8" font-family="Times,serif" font-size="14.00">Conv2d</text>
<text text-anchor="middle" x="660.5" y="-658.8" font-family="Times,serif" font-size="14.00">&#45;&#45;&#45;&#45;&#45;&#45;&#45;&#45;&#45;&#45;</text>
<text text-anchor="middle" x="660.5" y="-643.8" font-family="Times,serif" font-size="14.00">kernel_size: (3, 3)</text>
<text text-anchor="middle" x="660.5" y="-628.8" font-family="Times,serif" font-size="14.00">in_channels: 16</text>
<text text-anchor="middle" x="660.5" y="-613.8" font-family="Times,serif" font-size="14.00">out_channels: 32</text>
<text text-anchor="middle" x="660.5" y="-598.8" font-family="Times,serif" font-size="14.00">+ bias</text>
<text text-anchor="middle" x="660.5" y="-583.8" font-family="Times,serif" font-size="14.00">&#45;&#45;&#45;&#45;&#45;&#45;&#45;&#45;&#45;&#45;</text>
<text text-anchor="middle" x="660.5" y="-568.8" font-family="Times,serif" font-size="14.00">(1, 32, 224, 224)</text>
</g>
<!-- relu_1&#45;&gt;conv5 -->
<g id="edge10" class="edge">
<title>relu_1&#45;&gt;conv5</title>
<path fill="none" stroke="black" d="M697.85,-777.21C693.18,-759.24 687.19,-736.21 681.39,-713.88"/>
<polygon fill="black" stroke="black" points="684.73,-712.83 678.83,-704.03 677.96,-714.59 684.73,-712.83"/>
</g>
<!-- add_1 -->
<g id="node20" class="node">
<title>add_1</title>
<polygon fill="yellow" stroke="black" points="580.5,-517.5 470.5,-517.5 470.5,-479.5 580.5,-479.5 580.5,-517.5"/>
<text text-anchor="middle" x="525.5" y="-502.3" font-family="Times,serif" font-size="14.00">add_1 idx_19</text>
<text text-anchor="middle" x="525.5" y="-487.3" font-family="Times,serif" font-size="14.00">+</text>
</g>
<!-- conv5&#45;&gt;add_1 -->
<g id="edge22" class="edge">
<title>conv5&#45;&gt;add_1</title>
<path fill="none" stroke="black" d="M588.65,-561.25C575.38,-548.27 562.33,-535.51 551.57,-524.99"/>
<polygon fill="black" stroke="black" points="553.76,-522.24 544.17,-517.75 548.87,-527.24 553.76,-522.24"/>
</g>
<!-- mean_2 -->
<g id="node22" class="node">
<title>mean_2</title>
<polygon fill="white" stroke="black" points="722,-525 599,-525 599,-472 722,-472 722,-525"/>
<text text-anchor="middle" x="660.5" y="-509.8" font-family="Times,serif" font-size="14.00">mean_2 idx_21</text>
<text text-anchor="middle" x="660.5" y="-494.8" font-family="Times,serif" font-size="14.00">MET mean</text>
<text text-anchor="middle" x="660.5" y="-479.8" font-family="Times,serif" font-size="14.00">() torch.float32</text>
</g>
<!-- conv5&#45;&gt;mean_2 -->
<g id="edge25" class="edge">
<title>conv5&#45;&gt;mean_2</title>
<path fill="none" stroke="black" d="M660.5,-560.86C660.5,-552 660.5,-543.24 660.5,-535.25"/>
<polygon fill="black" stroke="black" points="664,-535.23 660.5,-525.23 657,-535.23 664,-535.23"/>
</g>
<!-- cat -->
<g id="node16" class="node">
<title>cat</title>
<polygon fill="white" stroke="black" points="392,-1196 161,-1196 161,-1143 392,-1143 392,-1196"/>
<text text-anchor="middle" x="276.5" y="-1180.8" font-family="Times,serif" font-size="14.00">cat idx_15</text>
<text text-anchor="middle" x="276.5" y="-1165.8" font-family="Times,serif" font-size="14.00">FUN cat</text>
<text text-anchor="middle" x="276.5" y="-1150.8" font-family="Times,serif" font-size="14.00">(1, 24, 224, 224) torch.float32</text>
</g>
<!-- relu_2&#45;&gt;cat -->
<g id="edge15" class="edge">
<title>relu_2&#45;&gt;cat</title>
<path fill="none" stroke="black" d="M276.5,-1276.94C276.5,-1255.75 276.5,-1228.25 276.5,-1206.51"/>
<polygon fill="black" stroke="black" points="280,-1206.35 276.5,-1196.35 273,-1206.35 280,-1206.35"/>
</g>
<!-- relu_2&#45;&gt;cat_1 -->
<g id="edge20" class="edge">
<title>relu_2&#45;&gt;cat_1</title>
<path fill="none" stroke="black" d="M336.14,-1276.9C356.56,-1265.55 379.54,-1252.74 400.5,-1241 423.81,-1227.94 449.52,-1213.46 471.53,-1201.03"/>
<polygon fill="black" stroke="black" points="473.42,-1203.98 480.41,-1196.02 469.98,-1197.89 473.42,-1203.98"/>
</g>
<!-- relu_3&#45;&gt;cat -->
<g id="edge16" class="edge">
<title>relu_3&#45;&gt;cat</title>
<path fill="none" stroke="black" d="M386.37,-1276.94C363.51,-1254.79 333.52,-1225.74 310.65,-1203.58"/>
<polygon fill="black" stroke="black" points="312.81,-1200.8 303.19,-1196.35 307.93,-1205.83 312.81,-1200.8"/>
</g>
<!-- conv7 -->
<g id="node15" class="node">
<title>conv7</title>
<polygon fill="red" stroke="black" points="143,-1241 0,-1241 0,-1098 143,-1098 143,-1241"/>
<text text-anchor="middle" x="71.5" y="-1225.8" font-family="Times,serif" font-size="14.00">conv7 idx_14</text>
<text text-anchor="middle" x="71.5" y="-1210.8" font-family="Times,serif" font-size="14.00">Conv2d</text>
<text text-anchor="middle" x="71.5" y="-1195.8" font-family="Times,serif" font-size="14.00">&#45;&#45;&#45;&#45;&#45;&#45;&#45;&#45;&#45;&#45;</text>
<text text-anchor="middle" x="71.5" y="-1180.8" font-family="Times,serif" font-size="14.00">kernel_size: (3, 3)</text>
<text text-anchor="middle" x="71.5" y="-1165.8" font-family="Times,serif" font-size="14.00">in_channels: 8</text>
<text text-anchor="middle" x="71.5" y="-1150.8" font-family="Times,serif" font-size="14.00">out_channels: 32</text>
<text text-anchor="middle" x="71.5" y="-1135.8" font-family="Times,serif" font-size="14.00">+ bias</text>
<text text-anchor="middle" x="71.5" y="-1120.8" font-family="Times,serif" font-size="14.00">&#45;&#45;&#45;&#45;&#45;&#45;&#45;&#45;&#45;&#45;</text>
<text text-anchor="middle" x="71.5" y="-1105.8" font-family="Times,serif" font-size="14.00">(1, 32, 224, 224)</text>
</g>
<!-- sigmoid&#45;&gt;conv7 -->
<g id="edge14" class="edge">
<title>sigmoid&#45;&gt;conv7</title>
<path fill="none" stroke="black" d="M118.04,-1276.94C114.5,-1268.84 110.56,-1259.82 106.51,-1250.56"/>
<polygon fill="black" stroke="black" points="109.64,-1248.99 102.43,-1241.23 103.23,-1251.79 109.64,-1248.99"/>
</g>
<!-- sigmoid&#45;&gt;cat -->
<g id="edge17" class="edge">
<title>sigmoid&#45;&gt;cat</title>
<path fill="none" stroke="black" d="M166.63,-1276.94C189.49,-1254.79 219.48,-1225.74 242.35,-1203.58"/>
<polygon fill="black" stroke="black" points="245.07,-1205.83 249.81,-1196.35 240.19,-1200.8 245.07,-1205.83"/>
</g>
<!-- mean_4 -->
<g id="node26" class="node">
<title>mean_4</title>
<polygon fill="white" stroke="black" points="297,-436 174,-436 174,-383 297,-383 297,-436"/>
<text text-anchor="middle" x="235.5" y="-420.8" font-family="Times,serif" font-size="14.00">mean_4 idx_25</text>
<text text-anchor="middle" x="235.5" y="-405.8" font-family="Times,serif" font-size="14.00">MET mean</text>
<text text-anchor="middle" x="235.5" y="-390.8" font-family="Times,serif" font-size="14.00">() torch.float32</text>
</g>
<!-- conv7&#45;&gt;mean_4 -->
<g id="edge31" class="edge">
<title>conv7&#45;&gt;mean_4</title>
<path fill="none" stroke="black" d="M92.79,-1097.98C112.41,-1026.68 138.5,-912.97 138.5,-812.5 138.5,-812.5 138.5,-812.5 138.5,-631.5 138.5,-560.3 181.23,-486.26 209.97,-444.51"/>
<polygon fill="black" stroke="black" points="212.99,-446.3 215.87,-436.11 207.26,-442.28 212.99,-446.3"/>
</g>
<!-- conv6 -->
<g id="node17" class="node">
<title>conv6</title>
<polygon fill="red" stroke="black" points="376,-1062 233,-1062 233,-919 376,-919 376,-1062"/>
<text text-anchor="middle" x="304.5" y="-1046.8" font-family="Times,serif" font-size="14.00">conv6 idx_16</text>
<text text-anchor="middle" x="304.5" y="-1031.8" font-family="Times,serif" font-size="14.00">Conv2d</text>
<text text-anchor="middle" x="304.5" y="-1016.8" font-family="Times,serif" font-size="14.00">&#45;&#45;&#45;&#45;&#45;&#45;&#45;&#45;&#45;&#45;</text>
<text text-anchor="middle" x="304.5" y="-1001.8" font-family="Times,serif" font-size="14.00">kernel_size: (3, 3)</text>
<text text-anchor="middle" x="304.5" y="-986.8" font-family="Times,serif" font-size="14.00">in_channels: 24</text>
<text text-anchor="middle" x="304.5" y="-971.8" font-family="Times,serif" font-size="14.00">out_channels: 32</text>
<text text-anchor="middle" x="304.5" y="-956.8" font-family="Times,serif" font-size="14.00">+ bias</text>
<text text-anchor="middle" x="304.5" y="-941.8" font-family="Times,serif" font-size="14.00">&#45;&#45;&#45;&#45;&#45;&#45;&#45;&#45;&#45;&#45;</text>
<text text-anchor="middle" x="304.5" y="-926.8" font-family="Times,serif" font-size="14.00">(1, 32, 224, 224)</text>
</g>
<!-- cat&#45;&gt;conv6 -->
<g id="edge18" class="edge">
<title>cat&#45;&gt;conv6</title>
<path fill="none" stroke="black" d="M280.57,-1142.76C283.53,-1124.06 287.71,-1097.64 291.75,-1072.11"/>
<polygon fill="black" stroke="black" points="295.24,-1072.43 293.35,-1062.01 288.33,-1071.34 295.24,-1072.43"/>
</g>
<!-- mean_3 -->
<g id="node24" class="node">
<title>mean_3</title>
<polygon fill="white" stroke="black" points="395,-347 272,-347 272,-294 395,-294 395,-347"/>
<text text-anchor="middle" x="333.5" y="-331.8" font-family="Times,serif" font-size="14.00">mean_3 idx_23</text>
<text text-anchor="middle" x="333.5" y="-316.8" font-family="Times,serif" font-size="14.00">MET mean</text>
<text text-anchor="middle" x="333.5" y="-301.8" font-family="Times,serif" font-size="14.00">() torch.float32</text>
</g>
<!-- conv6&#45;&gt;mean_3 -->
<g id="edge28" class="edge">
<title>conv6&#45;&gt;mean_3</title>
<path fill="none" stroke="black" d="M313.04,-918.7C320.95,-846.94 331.5,-732.67 331.5,-633.5 331.5,-633.5 331.5,-633.5 331.5,-497.5 331.5,-449.04 332.27,-393.07 332.85,-357.5"/>
<polygon fill="black" stroke="black" points="336.36,-357.21 333.03,-347.15 329.36,-357.09 336.36,-357.21"/>
</g>
<!-- conv8 -->
<g id="node19" class="node">
<title>conv8</title>
<polygon fill="red" stroke="black" points="597,-883 454,-883 454,-740 597,-740 597,-883"/>
<text text-anchor="middle" x="525.5" y="-867.8" font-family="Times,serif" font-size="14.00">conv8 idx_18</text>
<text text-anchor="middle" x="525.5" y="-852.8" font-family="Times,serif" font-size="14.00">Conv2d</text>
<text text-anchor="middle" x="525.5" y="-837.8" font-family="Times,serif" font-size="14.00">&#45;&#45;&#45;&#45;&#45;&#45;&#45;&#45;&#45;&#45;</text>
<text text-anchor="middle" x="525.5" y="-822.8" font-family="Times,serif" font-size="14.00">kernel_size: (3, 3)</text>
<text text-anchor="middle" x="525.5" y="-807.8" font-family="Times,serif" font-size="14.00">in_channels: 16</text>
<text text-anchor="middle" x="525.5" y="-792.8" font-family="Times,serif" font-size="14.00">out_channels: 32</text>
<text text-anchor="middle" x="525.5" y="-777.8" font-family="Times,serif" font-size="14.00">+ bias</text>
<text text-anchor="middle" x="525.5" y="-762.8" font-family="Times,serif" font-size="14.00">&#45;&#45;&#45;&#45;&#45;&#45;&#45;&#45;&#45;&#45;</text>
<text text-anchor="middle" x="525.5" y="-747.8" font-family="Times,serif" font-size="14.00">(1, 32, 224, 224)</text>
</g>
<!-- cat_1&#45;&gt;conv8 -->
<g id="edge21" class="edge">
<title>cat_1&#45;&gt;conv8</title>
<path fill="none" stroke="black" d="M525.5,-1142.9C525.5,-1091.37 525.5,-973.26 525.5,-893.14"/>
<polygon fill="black" stroke="black" points="529,-893.08 525.5,-883.08 522,-893.08 529,-893.08"/>
</g>
<!-- conv8&#45;&gt;add_1 -->
<g id="edge23" class="edge">
<title>conv8&#45;&gt;add_1</title>
<path fill="none" stroke="black" d="M525.5,-739.93C525.5,-672.92 525.5,-575.57 525.5,-527.92"/>
<polygon fill="black" stroke="black" points="529,-527.73 525.5,-517.73 522,-527.73 529,-527.73"/>
</g>
<!-- mean_1 -->
<g id="node21" class="node">
<title>mean_1</title>
<polygon fill="white" stroke="black" points="587,-436 464,-436 464,-383 587,-383 587,-436"/>
<text text-anchor="middle" x="525.5" y="-420.8" font-family="Times,serif" font-size="14.00">mean_1 idx_20</text>
<text text-anchor="middle" x="525.5" y="-405.8" font-family="Times,serif" font-size="14.00">MET mean</text>
<text text-anchor="middle" x="525.5" y="-390.8" font-family="Times,serif" font-size="14.00">() torch.float32</text>
</g>
<!-- add_1&#45;&gt;mean_1 -->
<g id="edge24" class="edge">
<title>add_1&#45;&gt;mean_1</title>
<path fill="none" stroke="black" d="M525.5,-479.47C525.5,-469.87 525.5,-457.71 525.5,-446.28"/>
<polygon fill="black" stroke="black" points="529,-446.09 525.5,-436.09 522,-446.09 529,-446.09"/>
</g>
<!-- add_2 -->
<g id="node23" class="node">
<title>add_2</title>
<polygon fill="yellow" stroke="black" points="580.5,-339.5 470.5,-339.5 470.5,-301.5 580.5,-301.5 580.5,-339.5"/>
<text text-anchor="middle" x="525.5" y="-324.3" font-family="Times,serif" font-size="14.00">add_2 idx_22</text>
<text text-anchor="middle" x="525.5" y="-309.3" font-family="Times,serif" font-size="14.00">+</text>
</g>
<!-- mean_1&#45;&gt;add_2 -->
<g id="edge26" class="edge">
<title>mean_1&#45;&gt;add_2</title>
<path fill="none" stroke="black" d="M525.5,-382.87C525.5,-372.42 525.5,-360.3 525.5,-349.61"/>
<polygon fill="black" stroke="black" points="529,-349.51 525.5,-339.51 522,-349.51 529,-349.51"/>
</g>
<!-- mean_2&#45;&gt;add_2 -->
<g id="edge27" class="edge">
<title>mean_2&#45;&gt;add_2</title>
<path fill="none" stroke="black" d="M649.02,-471.86C637.47,-447.59 618.15,-410.83 595.5,-383 584.61,-369.62 570.65,-356.72 558.06,-346.21"/>
<polygon fill="black" stroke="black" points="560,-343.28 550.03,-339.68 555.58,-348.7 560,-343.28"/>
</g>
<!-- add_3 -->
<g id="node25" class="node">
<title>add_3</title>
<polygon fill="yellow" stroke="black" points="484.5,-258 374.5,-258 374.5,-220 484.5,-220 484.5,-258"/>
<text text-anchor="middle" x="429.5" y="-242.8" font-family="Times,serif" font-size="14.00">add_3 idx_24</text>
<text text-anchor="middle" x="429.5" y="-227.8" font-family="Times,serif" font-size="14.00">+</text>
</g>
<!-- add_2&#45;&gt;add_3 -->
<g id="edge29" class="edge">
<title>add_2&#45;&gt;add_3</title>
<path fill="none" stroke="black" d="M503.72,-301.46C490.68,-290.66 473.91,-276.78 459.61,-264.94"/>
<polygon fill="black" stroke="black" points="461.46,-261.93 451.53,-258.24 457,-267.32 461.46,-261.93"/>
</g>
<!-- mean_3&#45;&gt;add_3 -->
<g id="edge30" class="edge">
<title>mean_3&#45;&gt;add_3</title>
<path fill="none" stroke="black" d="M364.4,-293.91C375.69,-284.56 388.44,-274 399.64,-264.73"/>
<polygon fill="black" stroke="black" points="402.01,-267.31 407.48,-258.24 397.54,-261.92 402.01,-267.31"/>
</g>
<!-- add_4 -->
<g id="node27" class="node">
<title>add_4</title>
<polygon fill="yellow" stroke="black" points="484.5,-184 374.5,-184 374.5,-146 484.5,-146 484.5,-184"/>
<text text-anchor="middle" x="429.5" y="-168.8" font-family="Times,serif" font-size="14.00">add_4 idx_26</text>
<text text-anchor="middle" x="429.5" y="-153.8" font-family="Times,serif" font-size="14.00">+</text>
</g>
<!-- add_3&#45;&gt;add_4 -->
<g id="edge32" class="edge">
<title>add_3&#45;&gt;add_4</title>
<path fill="none" stroke="black" d="M429.5,-219.83C429.5,-212.13 429.5,-202.97 429.5,-194.42"/>
<polygon fill="black" stroke="black" points="433,-194.41 429.5,-184.41 426,-194.41 433,-194.41"/>
</g>
<!-- mean_4&#45;&gt;add_4 -->
<g id="edge33" class="edge">
<title>mean_4&#45;&gt;add_4</title>
<path fill="none" stroke="black" d="M236.63,-382.92C238.8,-358.36 244.97,-321.09 262.5,-294 292.72,-247.29 346.08,-210.86 384.36,-189"/>
<polygon fill="black" stroke="black" points="386.24,-191.96 393.26,-184.03 382.82,-185.85 386.24,-191.96"/>
</g>
<!-- add_5 -->
<g id="node29" class="node">
<title>add_5</title>
<polygon fill="yellow" stroke="black" points="596.5,-110 486.5,-110 486.5,-72 596.5,-72 596.5,-110"/>
<text text-anchor="middle" x="541.5" y="-94.8" font-family="Times,serif" font-size="14.00">add_5 idx_28</text>
<text text-anchor="middle" x="541.5" y="-79.8" font-family="Times,serif" font-size="14.00">+</text>
</g>
<!-- add_4&#45;&gt;add_5 -->
<g id="edge35" class="edge">
<title>add_4&#45;&gt;add_5</title>
<path fill="none" stroke="black" d="M457.76,-145.83C471.96,-136.71 489.33,-125.54 504.56,-115.74"/>
<polygon fill="black" stroke="black" points="506.73,-118.51 513.25,-110.16 502.94,-112.63 506.73,-118.51"/>
</g>
<!-- mean_5&#45;&gt;add_5 -->
<g id="edge36" class="edge">
<title>mean_5&#45;&gt;add_5</title>
<path fill="none" stroke="black" d="M868.5,-605.72C835.99,-566.51 780.5,-488.21 780.5,-410.5 780.5,-410.5 780.5,-410.5 780.5,-238 780.5,-156.32 677.59,-118.97 606.82,-102.94"/>
<polygon fill="black" stroke="black" points="607.15,-99.43 596.63,-100.73 605.66,-106.27 607.15,-99.43"/>
</g>
<!-- output -->
<g id="node30" class="node">
<title>output</title>
<ellipse fill="orange" stroke="black" cx="541.5" cy="-18" rx="41.69" ry="18"/>
<text text-anchor="middle" x="541.5" y="-14.3" font-family="Times,serif" font-size="14.00">output</text>
</g>
<!-- add_5&#45;&gt;output -->
<g id="edge37" class="edge">
<title>add_5&#45;&gt;output</title>
<path fill="none" stroke="black" d="M541.5,-71.72C541.5,-63.97 541.5,-54.79 541.5,-46.27"/>
<polygon fill="black" stroke="black" points="545,-46 541.5,-36 538,-46 545,-46"/>
</g>
</g>
</svg>
